<mxfile host="embed.diagrams.net" modified="2023-06-09T20:10:02.047Z" agent="Mozilla/5.0 (Windows NT 10.0; Win64; x64) AppleWebKit/537.36 (KHTML, like Gecko) Chrome/114.0.0.0 Safari/537.36" etag="sQ-ly31yJa2FszdIS-CS" version="21.3.8" type="embed" pages="4">
  <diagram id="9ylT7aUPzLyhK_7HaOR8" name="Page_Tableau">
    <mxGraphModel grid="1" page="1" gridSize="15" guides="1" tooltips="1" connect="1" arrows="1" fold="1" pageScale="1" pageWidth="850" pageHeight="1100" math="0" shadow="0">
      <root>
        <mxCell id="0" />
        <mxCell id="1" parent="0" />
        <mxCell id="JRejqfcZiqhWgCMIX4Sz-1" value="" style="shape=image;verticalLabelPosition=bottom;verticalAlign=top;imageAspect=0;aspect=fixed;image=data:image/png,iVBORw0KGgoAAAANSUhEUgAABQIAAAN7CAYAAAAeJOfyAAAAAXNSR0IArs4c6QAAAARnQU1BAACxjwv8YQUAAAAJcEhZcwAADsMAAA7DAcdvqGQAAC4HSURBVHhe7d1rjFznYR7g/VO0P/I3hQo0Ker2R6AfsRcEBFSBHbcwHAcI0SLRUnFT10AC0rWlxGnMm1S2TuJGsa3EoSiKFOUkasVELi05lSmGVCTHlKKLY4liSVmM4jpSDbuubpRoUtTNivJ1zsyc2TOzZ2ZnySW14vu8wAPPnMt3vnMZEvN6l5opIiIiIiIiIiIicsFHESgiIiIiIiIiIhIQRaCIiIiIiIiIiEhAFIEiIiIiIiIiIiIBUQSKiIiIiIiIiIgERBEoIiIiIiIiIiISkIlF4EMPPVRu+7OvlXsP/005eOh/D7n7L4+V+488VQ4+Ory82vaLBx4st37hC/1RRERERERERERE5K3OxCLw1v0PlFOnXi+vvfJmx992vf7qm+Xk918pmzdtLn9x34Pl794sQ+srL5/+Qfnq4b/pjyIiIiIiIiIiIiJvdSYWgXd97Vh55fQb5dTJ1wdefvlvyzf/+v+USy65pPz0B3667P3y/vLqK3/XLQwH23T2OfDg4/1RRERERERERERE5K3OxCJw773/q7x06vXy/ROv9r3SLf1uv+2O8qPveEdZ9RM/Ud77/veXAwf+vLz88pvlRGd9tV21T7WviIiIiIiIiIjI+cihQ4emstIyMzMzcV7Vumqb5cjEUW6/5+HurwEff+F0eaHjxRdfLidefKX8wod/sXzgn/+zsu997yvX/Kt/WVb/639Tnnrqe90isNqu2qfaty371810Jz/q0q3f6m/RzP6ybubS0rpq4joREREREREREUnKNCXfSiwCqzn9vb//D1rnNmndmWSRfyPwwfLC8ZfK8eOny4kTr5WTJ39Q7tx3T/knP/IjZe+P/3gpq1eX8jM/Uz70Yz9Wrr1uRznVWf/8851tX3yl/HFn38mZpshTBIqIiIiIiIiIyOKZpixbrkJtudNW+LUtO9tMLAJvvuNgt9R79NA3yrWf/d3ykbUfKR/56MfKz//sz5aPXnRR+co731kevPjicvMv/VLZd/dXyhNPfLscOPDV8tU/v7/svvP+/ijjoggUEREREREREZHlyTSF2XKWasudZvHXfL2cmVgEfv72r5Tdt9xaPvGZm8vVf/T1suW63WX37t3lps9/vvzjH/qh8pMd7+148J57ysmXTpVPf/p3ytatN5Rt23aU//bl+/qjjMtwkTf0K8Pr9vcW1tvs31ouXfArxCNF4Lfmt5mZWddZ28vEcQclolJRREREREREROTtnGlKs+Uu1pY7dQF4LkrAKhOLwGt2fqF84Kd+qnzwiv9Uvnzf4bJ95+fLni/cWrZdf3151+xs+Yc//MPl33/4w+W111/vbv+rv/ofy/ve9/6yedPV5bpb9naXjc+48q25vHo9U2Yu3Vq6b7tlX3Nd2+vq7bqWf3NwwvYL3ouIiIiIiIiI5GbwQ1WLWElRBC6eiXds/W/vKO9996XlX7zzHeWf/ug/Klf84s+V//ml28uXvvSl8pnPfKZce+215cknn+xvXcott/xxueiii8qaucvLp2/6Yn/puCws7+YfpHGFXbXZTOn9YF9j3dBPA/bVP/031biKQBERERERERGRt3Pe7kVgXQJW/9t8vZyZWAR+aset5UP/7sNlbm5N+dQ1v1t+4zevKbfddlu55557yv3331+++c1vljfeeKO/dSl/+qd3lc997obyR7u/WK7ZtYQisFvk1b/O+62y9dJxhV21blwROP/rwINMPa4iUERERERERETk7ZxpSrPlLtaWK23FX9uys83EIvCT23aXhx/+Rvna1x8rT/z1d8q263eWXbtuLLfffnu3DDx69Eh55plnyuv9Xw3eu3dfefiRY+XJJ58uW7b+9+6y8WmUb9VP7Y399d/Gvws4VOw1y7uR7eqMHbdZKHbS/alBRaCIiIiIiIiIyNs10xRmy1mqLVcmFX6T1p1JJhaBGz/7+XLvfV8vf/CHt5Zrfvv3yhVX/krZtGlj+fjHP97932uuuabcfPPN5YEHHijPP/98+erBe8uDDx0tx459u2y69vf7o4xLs8jrFXPdX9+9dF1ZN/KTe+vWXTr49d5BeTe0fyfdoq/+FeCO7objxu2k+SvD6zrrFIEiIiIiIiIiIm/bVGXZNFZaqm5q0ryqddU2y5GJo3zsk79XbrzxD8sn1l9d5tb8Qnn3u99TLrvs58qqVavKxRdfXN71rtlyySWXlCuvvLIcPPjV8oX/cVs5eN8j5bHHnizrP3NTfxQRERERERERERF5qzOxCPzgxz9ZDt53qDz0taPlvr84VG666ZayYf3V5dd+bVP5rd/6nbJ1687ybz/4ofKe9/xkWbd2Xfn9P9hdHnjwSHnwLx8rP//L/7k/ioiIiIiIiIiIiLzVmVgE3rJ7d7niN7eXK379+o5t5Zc/dUP5lf+6o/u/tY9+8rrywY//epm7Ykv5D/9la7nyN64vl3/s6nLt567rjyIiIiIiIiIiIiJvdZbnF4xFRERERERERERkRUcRKCIiIiIiIiIiEhBFoIiIiIiIiIiISEAUgSIiIiIiIiIiIgFRBIqIiIiIiIiIiAREESgiIiIiIiIiIhIQRaCIiIiIiIiIiEhAFIEiIiIiIiIiIiIBUQSKiIiIiIiIiIgEZObNN98sAAAAAMCFbeaNN94oAAAAAMCFbeYHP/hBAQAAAAAubDOvvfZaAQAAAAAubDOvvvpqAQAAAAAubDMvv/xyaTp9+omy6/LZsmrVqgVmL99Vnjh9emj7ptN3X9Xd7vJdT4xdd9Xd4/dfSU4/satcPjs7dM5P7Lq8zM5eXnY9MX8Obdstdg3/6tiN3X2a12nascctb9t/WvW9aTpf9+lcPBf19Z+dvarcXd+T/jVrHuv06bvLVS3Xdxr1eG3P+krUdk16y+evwV/92eap7kXznk37mR/3utruibt3lat23b1g/7M1epylOl/zrNTHqoz+uVAvP9PzaFMfbyU+v83Paq36s+2q8zDXu69a+BmpnO/7AwAAcK7MvPTSS2WcU3f1ioHNd51qXT+q3n7NjcfGrpt2rLfaqWM3ljX9L6P1nI/duKbzJXFNufHY/DlUy6ptRpfX2s67Hrt5nZYy9rRzm9bb7d5MY/R61NeyUl/3tvswrbPZ961SX4OhZ3HCZ3Ya0+4/7hk7dequsrlzHWc33zW0fDks53N9LudZqedamV1zYzl2qjfnuzbPF2LL+fk82/t+LrV9tu7afOZ/vi1Fdb1nZzeXu/rXv3a+7w8AAMC5MnOq84VmnJMH+l+kD5wcWv74zs2DIqr6crZ55+ND26/ZPL9+zci6eqyTj+8sm9f0x1izuex8fP4Yi47ff3+g/6XtwMmT3fGqfWY3H2isWzM07lLU4/Xmt7M83jnG4zt7X0brMU+efLzs7JzDbOd8eyVB79hD47Rcw3rs+jwqSxl7mrktxbj7XGm7F4O59Y998uSBoTmOu7eD7das6d2rzr3bf8umoWMvOF7LnKbRPKfBfDvjrWnOe8pnsnXe9wzfw9Hnbdx5DJ7hls9I636NdUPzm7Ru5PPU3KY7/8az1HxuRq/HYufQvbYTzqdtu+brTfu/0b0v1evK4L5McS7TGDpm/9yreVZj19dv0rN8vuZZqY+1pvOMDf5M68+lWlatG1z/MccdjNE/x97rneVA/z42n5nmtqP3beIxWj4LBzrrlutzWxncq+Z8Gvey3mbctR/3GRo/9/7/4dIZZ3Pj75R6vO6+y3F/6vMaeQaHxu+/b/7dVr0HAABYLjPf//73yzgn9vdKmk37T8wve6z6MrOm7Hyst2z/puoLy6ay/8SJwfbVF+XHOu8f63/BqvZvjtUbo/qi91g5ceKx4TGmGL/ab3Td/PvOvjv789i0v7v8TAzm2P+SV827Op/u+P25Nc9jdC6DccZew95+9bKljD3N3JaibY7d5d3jtN+L5ut6Pt17e2J/2dR5XV37+hmo5zVY1zyXtueif9/GXdNpNK9f/bqa08JzGJnbtPNujF9t27x+k86jPt/Wz0h3v/brvWB+bdetOteRz1M1Tq1a1ytE6zH77/tzmfZeDG036XxatlvwunFe3TlOeS7TGDpOf9zePIevw9C59bc7n/Os1Mdas2nT0PG7z2D/z7PmebQdtx5j9F7Uz8w02y56jEmfhZZnpXmO02oev17WOof+eVVzH3xWu/su8hlqm3v3XBeury3L/emva3sGB+P3z/lsryEAAMA4My+++GIZ54V9G7tfTjbue2F4+QtHy74dO8rGubnu+tnZubLj6AuD7ed2HO1td3RHmet88aneN8c6umNusE/bcaYdf9/G6svSxrLvhXq/fWVj53i9feaXn4n5ue8rO+Y6x5nb0ZnT8Lyb5zH2WrUsr8euljdNO/Y0c1uKevzBPDrjHR1c08n3Yv5+9q73gnvbfAb692d2474Fx67Gqbet9p/rbHP0DM6lNjhWdS7NY3Re9+Z3dHDtqnNd8rxH7mE139F1bedRn2/bZ6T7forrXY9VWzD3Rbat1y04dvM6TXEO9fWsXredT9t2C16PXNulnMtiho4zcq7NPzua2/WOv3D5uZxnpd5/8Jmurnk9lwXzaz/u/BgL72f1vrnvgm0b12fiMSZ8Fqp9zvZzW6nHq47Z1B17kc9q9/24z1DL3EfHGv07pTZ/vc7i/kzxDLatq+cAAACwHGZeqL6EjHF88CXm+PyyIzf0vvTNbSw37DvS/8IyV244cnzB9sePz3/xaq47ckPvC9qouRuOTDV+tV01/uDL0vH5+VXLutt0jlkvOxP1PLpzqo/b+WI5mMvxI+WGbpF0QznSOX7zXIfGmXAN6/OoVNdk2rEXm1s95rTa5thdPuleNObUXd6fW/M8umM0n4GWazR67H0jz8bcxt41qLdfivr52Nicd33tNm7snduZzrs/Tj3PBc/hmPMYPd+h40y43vVnZvQeVSZ9nka3bT47C855ynvR3G7i+YzZbuj1yLVdyrksZug4jfOu1tXPRnXPmnNoPsvna56V+ljV/t05dJ6Bjf3CqTmPScdtjtEcs9qvet+836Prmuc38Rgj16G2nJ/b0XtVOdI4t+Z5dLdvzGnSZ6ht7qNj9d4Pf5Yry3J/Jj2DjfFH1zXnAQAAcLZmnn/++TLOc3du6H452XDnc4Nlh7f3vjhtP9xbdueG6gvLhnLnc88Ntp/bfri3/+HtvS8+nffNsUbHaFrK+M111fv6eNU248af1tDcnztctne+9DXHbR6rqTmf7jgt17A5dr2sed6Ljb3Y3Ooxp9U2x8qkezH/fq7MdY5f7zu6z/Bc7ywbOq9nN9zZXddd33Z9Oud0+M7tZUP/vEbnNa1qLtX+3Wszt70crq5d43o1x17yvPvru+OOPJeDbVrOY/QZbh5n0vUed48qo/tNUp//7NyG7rzq69JdN+W9aG436XzatlvweuTaLuVcFjN0nMa8qnXTPMvna56V+ljN6zb6vprHpOM2x2i+r8+nue+CbSc8h01tn4X5dcvzuR29V91ljeOOzm/qz1DL3CdtX29TaV6v+vXo+0Xvz4RncPR+jJsHAADA2Zp5rvsFqd2ze/tfcPY+O1j2aOeLTr3s2Uf39r5YVV98Hu28729flQuPPvtsd9vRdb396i9Ejw7GrLebOH5jv2efrddtKHs7x3r22Ud7BUf1vr9dPY967ksxOsfBubXMs96nbVnbNRwduzLuGjTX18sWm1u9z7Ta5lgZPubwvWjuV9+D7rL62m/Yu/AZqO9ZZ119jOax69fzz0X7vKZVj9ccs7K38yW7WjZ0Lkud98g9qMYcPIsTzmNwzVo+I5Oud3MO1X7N44/OpTlmPd+m+jjNOVamvRdt2y36mR/3euTaLvVcJhk6zoT71dy2bdm5nmelPlY1Xj1263WccNzmGM0xq/3Gbdt63yYdY8JneH774eMu1ejxK482jjG4Pv3PQnN+1ev62JM+Q23HGqxvPAOD7dqOP3ItF70/I+uG/syYch4AAABna+aZZ54p4zx9x/ruF5z1dzw9v+zpR8q2y+oi5bKyfv1lg23q7S9bv75c1vki03297ZHWsar39TbdcerlE8av1t/Rfz972frOuurL0vpyx9NPl0e2DW9Xv6+Pv1RPP7KtO7/B/PvzquZ03cP1696xR/eZXX/H/LK2azgydqWa77RjT5rbtkfm95lW2xy7yxe5F08/fUdZP3K+3eWd+a2v9+vcp3pObduPHvuR0efiDO9fZXC8ketSH3P2sm3lkZFrPPW8R+/ByPtx51Efu/qMVMcaWrfY9W7MrzfG8HUcOt7IvWyq5zruuix2L5rbNc+n3nZwTVq2G33dPU7/s1o/89X6ac9lkqFjjtyfOxp/dnS3nebZPEfzrNTHquY3/3meP05zHuOO2xyj+b45//qeD7ZtuW8TjzHmM7+sn9v+varGaqqe9/rz2vwsDH9Wx3+Gxs69vq8jf6c0t2le2zO+P4s8g+P+bqvWAQAALJeZp6svMsB58f/u+ESjUGjfBgAAAOBcmPne975XgPPj//5Jvwi87uut6wEAAADOlZnvfve7BQAAAAC4sM185zvfKQAAAADAhW3m29/+dgEAAAAALmwzTz31VAEAAAAALmwzL774YgEAAAAALmwzhw4dKgAAAADAhW3m6s/uKgAAAADAhW3m3nvvLQAAAADAhU0RCAAAAAABFIEAAAAAEEARCAAAAAABFIEAAAAAEEARCAAAAAABFIEAAAAAEEARCAAAAAABFIEAAAAAEEARCAAAAAABFIEAAAAAEEARCAAAAAABFIEAAAAAEEARCAAAAAABFIEAAAAAEEARCAAAAAABFIEAAAAAEEARCAAAAAABFIEAAAAAEEARCAAAAAABFIEAAAAAEEARCAAAAAABFIEAAAAAEEARCAAAAAABFIEAAAAAEEARCAAAAAABFIEAAAAAEEARCAAAAAABFIEAAAAAEEARCAAAAAABFIEAAAAAEEARCAAAAAABFIEAAAAAEEARCAAAAAABFIEAAAAAEEARCAAAAAABFIEAAAAAEEARCAAAAAABFIEAAAAAEEARCAAAAAABFIEAAAAAEEARCAAAAAABFIEAAAAAEEARCAAAAAABFIEAAAAAEEARCAAAAAABFIEAAAAAEEARCAAAAAABFIEAAAAAEEARCAAAAAABFIEAAAAAEEARCAAAAAABFIEAAAAAEEARCAAAAAABFIEAAAAAEEARCAAAAAABFIEAAAAAEEARCAAAAAABFIEAAAAAEEARCAAAAAABFIEAAAAAEEARCAAAAAABFIEAAAAAEEARCAAAAAABFIEAAAAAEEARCAAAAAABFIEAAAAAEEARCAAAAAABFIEAAAAAEEARCAAAAAABFIEAAAAAEEARCAAAAAABFIEAAAAAEEARCAAAAAABFIEAAAAAEEARCAAAAAABFIEAAAAAEEARCAAAAAABFIEAAAAAEEARCAAAAAABFIEAAAAAEEARCAAAAAABFIEAAAAAEEARCAAAAAABFIEAAAAAEEARCAAAAAABFIEAAAAAEEARCAAAAAABFIEAAAAAEEARCAAAAAABFIEAAAAAEEARCAAAAAABFIEAAAAAEEARCAAAAAABFIEAAAAAEEARCAAAAAABFIEAAAAAEEARCAAAAAABFIEAAAAAEEARCAAAAAABFIEAAAAAEEARCAAAAAABFIEAAAAAEEARCAAAAAABFIEAAAAAEEARCAAAAAABFIEAAAAAEEARCAAAAAABFIEAAAAAEEARCAAAAAABFIEAAAAAEEARCAAAAAABFIEAAAAAEEARCAAAAAABFIEAAAAAEEARCAAAAAABFIEAAAAAEEARCAAAAAABFIEAAAAAEEARCAAAAAABFIEAAAAAEEARCAAAAAABFIEAAAAAEEARCAAAAAABFIEAAAAAEEARCAAAAAABFIEAAAAAEEARCAAAAAABFIEAAAAAEEARCAAAAAABFIEAAAAAEEARCAAAAAABFIEAAAAAEEARCAAAAAABFIEAAAAAEEARCAAAAAABFIEAAAAAEEARCAAAAAABFIEAAAAAEEARCAAAAAABFIEAAAAAEEARCAAAAAABFIEAAAAAEEARCAAAAAABFIEAAAAAEEARCAAAAAABFIEAAAAAEEARCAAAAAABFIEAAAAAEEARCAAAAAABFIEAAAAAEEARCAAAAAABFIEAAAAAEEARCAAAAAABFIEAAAAAEEARCAAAAAABFIEAAAAAEEARCAAAAAABFIEAAAAAEEARCAAAAAABFIEAAAAAEEARCAAAAAABFIEAAAAAEEARCAAAAAABFIEAAAAAEEARCAAAAAABFIEAAAAAEEARCAAAAAABFIEAAAAAEEARCAAAAAABFIEAAAAAEEARCAAAAAABFIEAAAAAEEARCAAAAAABFIEAAAAAEEARCAAAAAABFIEAAAAAEEARCAAAAAABFIEAAAAAEEARCAAAAAABFIEAAAAAEEARCAAAAAABFIEAAAAAEEARCAAAAAABFIEAAAAAEEARCAAAAAABFIEAAAAAEEARCAAAAAABFIEAAAAAEEARCAAAAAABFIEAAAAAEEARCAAAAAABFIEAAAAAEEARCAAAAAABFIEAAAAAEEARCAAAAAABFIEAAAAAEEARCAAAAAABFIEAAAAAEEARCAAAAAABFIEAAAAAEEARCAAAAAABFIEAAAAAEEARCAAAAAABFIEAAAAAEEARCAAAAAABFIEAAAAAEEARCAAAAAABFIEAAAAAEEARCAAAAAABFIEAAAAAEEARCAAAAAABFIEAAAAAEEARCAAAAAABFIEAAAAAEEARCAAAAAABFIEAAAAAEEARCAAAAAABFIEAAAAAEEARCAAAAAABFIEAAAAAEEARCAAAAAABFIEAAAAAEEARCAAAAAABFIEAAAAAEEARCAAAAAABFIEAAAAAEEARCAAAAAABFIEAAAAAEEARCAAAAAABFIEAAAAAEEARCAAAAAABFIEAAAAAEEARCAAAAAABFIEAAAAAEEARCAAAAAABFIEAAAAAEEARCAAAAAABFIEAAAAAEEARCAAAAAABFIEAAAAAEEARCAAAAAABFIEAAAAAEEARCAAAAAABFIEAAAAAEEARCAAAAAABFIEAAAAAEEARCAAAAAABFIEAAAAAEEARCAAAAAABFIEAAAAAEEARCAAAAAABFIEAAAAAEEARCAAAAAABFIEAAAAAEEARCAAAAAABFIEAAAAAEEARCAAAAAABFIEAAAAAEEARCAAAAAABFIEAAAAAEEARCAAAAAABFIEAAAAAEEARCAAAAAABFIEAAAAAEEARCAAAAAABFIEAAAAAEEARCAAAAAABFIEAAAAAEEARCAAAAAABFIEAAAAAEEARCAAAAAABFIEAAAAAEEARCAAAAAABFIEAAAAAEEARCAAAAAABFIEAAAAAEEARCAAAAAABFIEAAAAAEEARCAAAAAABFIEAAAAAEEARCAAAAAABFIEAAAAAEEARCAAAAAABFIEAAAAAEEARCAAAAAABFIEAAAAAEEARCAAAAAABFIEAAAAAEEARCAAAAAABFIEAAAAAEEARCAAAAAABFIEAAAAAEEARCAAAAAABFIEAAAAAEEARCAAAAAABFIEAAAAAEEARCAAAAAABFIEAAAAAEEARCAAAAAABFIEAAAAAEEARCAAAAAABFIEAAAAAEEARCAAAAAABFIEAAAAAEEARCAAAAAABFIEAAAAAEEARCAAAAAABFIEAAAAAEEARCAAAAAABFIEAAAAAEEARCAAAAAABFIEAAAAAEEARCAAAAAABFIEAAAAAEEARCAAAAAABFIEAAAAAEEARCAAAAAABFIEAAAAAEEARCAAAAAABFIEAAAAAEEARCAAAAAABFIEAAAAAEEARCAAAAAABFIEAAAAAEEARCAAAAAABFIEAAAAAEEARCAAAAAABFIEAAAAAEEARCAAAAAABFIEAAAAAEEARCAAAAAABFIEAAAAAEEARCAAAAAABFIEAAAAAEEARCAAAAAABFIEAAAAAEEARCAAAAAABFIEAAAAAEEARCAAAAAABFIEAAAAAEEARCAAAAAABFIEAAAAAEEARCAAAAAABFIEAAAAAEEARCAAAAAABFIEAAAAAEEARCAAAAAABFIEAAAAAEEARCAAAAAABFIEAAAAAEEARCAAAAAABFIEAAAAAEEARCAAAAAABFIEAAAAAEEARCAAAAAABFIEAAAAAEEARCAAAAAABFIEAAAAAEEARCAAAAAABFIEAAAAAEEARCAAAAAABFIEAAAAAEEARCAAAAAABFIEAAAAAEEARCAAAAAABFIEAAAAAEEARCAAAAAABFIEAAAAAEEARCAAAAAABFIEAAAAAEEARCAAAAAABFIEAAAAAEEARCAAAAAABFIEAAAAAEEARCAAAAAABFIEAAAAAEEARCAAAAAABFIEAAAAAEEARCAAAAAABFIEAAAAAEEARCAAAAAABFIEAAAAAEEARCAAAAAABFIEAAAAAEEARCAAAAAABFIEAAAAAEEARCAAAAAABFIEAAAAAEEARCAAAAAABFIEAAAAAEEARCAAAAAABFIEAAAAAEEARCAAAAAABFIEAAAAAEEARCAAAAAABFIEAAAAAEEARCAAAAAABFIEAAAAAEEARCAAAAAABFIEAAAAAEEARCAAAAAABFIEAAAAAEEARCAAAAAABFIEAAAAAEEARCAAAAAABFIEAAAAAEEARCAAAAAABFIEAAAAAEEARCACwQuy+69AFqe1cAQA4/xSBAAArxIVYmikCAQBWDkUgAMAKoQgEAOBcUgQCAKwQikAAAM4lRSAAwAqhCAQA4FxSBAIArBDN0uzgni1l9exsmV29pew5eHBou6btazvbzK4t21u2mbRuGge3ry2rVq0qa7cfHHrdtm3Tnu1bytot27uvFYEAACuHIhAAYIVolmZ7tqzuFm+zs6vLlj1vfRHYtr7NwYPby9qqwFyrCAQAWGkUgQAAK0Rdmh08uKdsWV2VaWuHSrXaoCRc3Vk/UvZNWjc8xtruTxzWZePaLXsWbDPpJwIX7F9t0593tay7fPUWRSAAwAqiCAQAWCEGRWD/14JXb9mz4Kf6musGP33XXz9pXfM4ve3mf9Jw3E8OjisCB8fpF5TN/f1EIADAyqUIBABYIerSrPqpvvpXghf+JN78uup9s4SbtK5631T99N72LVvK2tXjfwV5sSKw2qcqA/c09lMEAgCsXIpAAIAVoirNBr8W3P+PhIwWa6NlX+99exHYXFcfozIo8lavLVu21z91OH0RWK3b3hm7el9bvbZ9vopAAICVQxEIALBCdIvAfknXLNkq0/zU36R1zeNMu92kIrC7/uCe3n8huP/vAna3UwQCAKxYikAAgBWiKs2qkm60cGsuG/z7fGfxbwQOj1dvN/1PBNavq+P0xmusUwQCAKxYikAAgBWiKs26vxY8Ut4NfpW38evBVfF2pv/V4OZ/3bcqANeuXVg+dreb8BOBezrv659c7I7RLwW76+o5dI6tCAQAWDkUgQAAK8SFWJopAgEAVg5FIADACqEIBADgXFIEAgCsEIpAAADOJUUgAMAKUZVmF6K2cwUA4PxTBAIAAABAAEUgAAAAAARQBAIAAABAAEUgAAAAAARQBAIAAABAAEUgAAAAAARQBAIAAABAAEUgAAAAAARQBAIAAABAAEUgAAAAAARQBAIAAABAAEUgAAAAAARQBAIAAABAAEUgAAAAAARQBAIAAABAAEUgAAAAAARQBAIAAABAAEUgAAAAAARQBAIAAABAAEUgAAAAAARQBAIAAABAAEUgAAAAAARQBAIAAABAAEUgAAAAAARQBAIAAABAAEUgAAAAAARQBAIAAABAAEUgAAAAAARQBAIAAABAAEUgAAAAAARQBAIAAABAAEUgAAAAAARQBAIAAABAAEUgAAAAAARQBAIAAABAAEUgAAAAAARQBAIAAABAAEUgAAAAAARQBAIAAABAAEUgAAAAAARQBAIAAABAAEUgAAAAAARQBAIAAABAAEUgAAAAAARQBAIAAABAAEUgAAAAAARQBAIAAABAAEUgAAAAAARQBAIAAABAAEUgAAAAAARQBAIAAABAAEUgAAAAAARQBAIAAABAAEUgAAAAAARQBAIAAABAAEUgAAAAAARQBAIAAABAAEUgAAAAAARQBAIAAABAAEUgAAAAAARQBAIAAABAAEUgAAAAAARQBAIAAABAAEUgAAAAAARQBAIAAABAAEUgAAAAAARQBAIAAABAAEUgAAAAAARQBAIAAABAAEUgAAAAAARQBAIAAABAAEUgAAAAAARQBAIAAABAAEUgAAAAAARQBAIAAABAAEUgAAAAAARQBAIAAABAAEUgAAAAAARQBAIAAABAAEUgAAAAAARQBAIAAABAAEUgAAAAAARQBAIAAABAAEUgAAAAAARQBAIAAABAAEUgAAAAAARQBAIAAABAAEUgAAAAAARQBAIAAABAAEUgAAAAAARQBAIAAABAAEUgAAAAAARQBAIAAABAAEUgAAAAAARQBAIAAABAAEUgAAAAAARQBAIAAABAAEUgAAAAAARQBAIAAABAAEUgAAAAAARQBAIAAABAAEUgAAAAAARQBAIAAABAAEUgAAAAAARQBAIAAABAAEUgAAAAAARQBAIAAABAAEUgAAAAAARQBAIAAABAAEUgAAAAAARQBAIAAABAAEUgAAAAAARQBAIAAABAAEUgAAAAAARQBAIAAABAAEUgAAAAAARQBAIAAABAAEUgAAAAAARQBAIAAABAAEUgAAAAAARQBAIAAABAAEUgAAAAAARQBAIAAABAAEUgAAAAAARQBAIAAABAAEUgAAAAAARQBAIAAABAAEUgAAAAAARQBAIAAABAAEUgAAAAAARQBAIAAABAAEUgAAAAAARQBAIAAABAAEUgAAAAAARQBAIAAABAAEUgAAAAAARQBAIAAABAAEUgAAAAAARQBAIAAABAAEUgAAAAAARQBAIAAABAAEUgAAAAAARQBAIAAABAAEUgAAAAAARQBAIAAABAAEUgAAAAAARQBAIAAABAAEUgAAAAAARQBAIAAABAAEUgAAAAAARQBAIAAABAAEUgAAAAAARQBAIAAABAAEUgAAAAAARQBAIAAABAAEUgAAAAAARQBAIAAABAAEUgAAAAAARQBAIAAABAAEUgAAAAAARQBAIAAABAAEUgAAAAAARQBAIAAABAAEUgAAAAAARQBAIAAABAAEUgAAAAAARQBAIAAABAAEUgAAAAAARQBAIAAABAAEUgAAAAAARQBAIAAABAAEUgAAAAAARQBAIAAABAAEUgAAAAAARQBAIAAABAAEUgAAAAAARQBAIAAABAAEUgAAAAAARQBAIAAABAAEUgAAAAAARQBAIAAABAAEUgAAAAAARQBAIAAABAAEUgAAAAAARQBAIAAABAAEUgAAAAAARQBAIAAABAAEUgAAAAAARQBAIAAABAAEUgAAAAAARQBAIAAABAAEUgAAAAAARQBAIAAABAAEUgAAAAAARQBAIAAABAAEUgAAAAAARQBAIAAABAAEUgAAAAAARQBAIAAABAAEUgAAAAAARQBAIAAABAAEUgAAAAAARQBAIAAABAAEUgAAAAAARQBAIAAABAAEUgAAAAAARQBAIAAABAAEUgAAAAAARQBAIAAABAAEUgAAAAAARQBAIAAABAAEUgAAAAAARQBAIAAABAAEUgAAAAAARQBAIAAABAAEUgAAAAAARQBAIAAABAAEUgAAAAAARQBAIAAABAAEUgAAAAAARQBAIAAABAAEUgAAAAAARQBAIAAABAAEUgAAAAAARQBAIAAABAAEUgAAAAAARQBAIAAABAAEUgAAAAAARQBAIAAABAAEUgAAAAAARQBAIAAABAAEUgAAAAAARQBAIAAABAAEUgAAAAAARQBAIAAABAAEUgAAAAAARQBAIAAABAAEUgAAAAAARQBAIAAABAAEUgAAAAAARQBAIAAABAAEUgAAAAAARQBAIAAABAAEUgAAAAAARQBAIAAABAAEUgAAAAAARQBAIAAABAAEUgAAAAAARQBAIAAABAAEUgAAAAAARQBAIAAABAAEUgAAAAAARQBAIAAABAAEUgAAAAAARQBAIAAABAAEUgAAAAAARQBAIAAABAAEUgAAAAAARQBAIAAABAAEUgAAAAAARQBAIAAABAAEUgAAAAAARQBAIAAABAAEUgAAAAAARQBAIAAABAAEUgAAAAAARQBAIAAABAAEUgAAAAAARQBAIAAABAAEUgAAAAAARQBAIAAABAAEUgAAAAAARQBAIAAABAAEUgAAAAAARQBAIAAABAAEUgAAAAAARQBAIAAABAAEUgAAAAAARQBAIAAABAAEUgAAAAAARQBAIAAABAAEUgAAAAAARQBAIAAABAAEUgAAAAAARQBAIAAABAAEUgAAAAAARQBAIAAABAAEUgAAAAAARQBAIAAABAAEUgAAAAAARQBAIAAABAAEUgAAAAAARQBAIAAABAAEUgAAAAAARQBAIAAABAAEUgAAAAAARQBAIAAABAAEUgAAAAAARQBAIAAABAAEUgAAAAAARQBAIAAABAAEUgAAAAAARQBAIAAABAAEUgAAAAAARQBAIAAABAAEUgAAAAAARQBAIAAABAAEUgAAAAAARQBAIAAABAAEUgAAAAAARQBAIAAABAAEUgAAAAAARQBAIAAABAAEUgAAAAAARQBAIAAABAAEUgAAAAAARQBAIAAABAAEUgAAAAAARQBAIAAABAAEUgAAAAAARQBAIAAABAAEUgAAAAAARQBAIAAABAAEUgAAAAAARQBAIAAABAAEUgAAAAAARQBAIAAABAAEUgAAAAAARQBAIAAABAAEUgAAAAAARQBAIAAABAAEUgAAAAAARQBAIAAABAAEUgAAAAAARQBAIAAABAAEUgAAAAAARQBAIAAABAAEUgAAAAAARQBAIAAABAAEUgAAAAAARQBAIAAABAAEUgAAAAAARQBAIAAABAAEUgAAAAAARQBAIAAABAAEUgAAAAAARQBAIAAABAAEUgAAAAAARQBAIAAABAAEUgAAAAAARQBAIAAABAAEUgAAAAAARQBAIAAABAAEUgAAAAAARQBAIAAABAAEUgAAAAAARQBAIAAABAAEUgAAAAAARQBAIAAABAAEUgAAAAAARQBAIAAABAAEUgAAAAAARQBAIAAABAAEUgAAAAAARQBAIAAABAAEUgAAAAAARQBAIAAABAAEUgAAAAAARQBAIAAABAAEUgAAAAAARQBAIAAABAAEUgAAAAAARQBAIAAABAAEUgAAAAAARQBAIAAABAAEUgAAAAAARQBAIAAABAAEUgAAAAAARQBAIAAABAAEUgAAAAAARQBAIAAABAAEUgAAAAAARQBAIAAABAAEUgAAAAAARQBAIAAABAAEUgAAAAAARQBAIAAABAAEUgAAAAAARQBAIAAABAAEUgAAAAAARQBAIAAABAAEUgAAAAAARQBAIAAABAAEUgAAAAAARQBAIAAABAAEUgAAAAAARQBAIAAABAAEUgAAAAAARQBAIAAABAAEUgAAAAAARQBAIAAABAAEUgAAAAAARQBAIAAABAAEUgAAAAAARQBAIAAABAAEUgAAAAAARQBAIAAABAAEUgAAAAAARQBAIAAABAgJmrP7urAAAAAAAXsl3l/wNW0mtwhATxBgAAAABJRU5ErkJggg==" vertex="1" parent="1">
          <mxGeometry x="-9960" y="-7139.57" width="8207.97" height="5704.57" as="geometry" />
        </mxCell>
        <mxCell id="MXg8VkrpPcY3UE_s63cD-7" value="" style="html=1;shadow=0;dashed=0;align=center;verticalAlign=middle;shape=mxgraph.arrows2.arrow;dy=0.79;dx=388.48;notch=0;rotation=-60;fillColor=#FF0000;strokeColor=#b85450;" vertex="1" parent="1">
          <mxGeometry x="-8250" y="-2820" width="2918.95" height="573.31" as="geometry" />
        </mxCell>
        <mxCell id="MXg8VkrpPcY3UE_s63cD-8" value="" style="rounded=0;whiteSpace=wrap;html=1;" vertex="1" parent="1">
          <mxGeometry x="-8250" y="-1260" width="1560" height="600" as="geometry" />
        </mxCell>
        <mxCell id="MXg8VkrpPcY3UE_s63cD-9" value="&lt;h1 style=&quot;font-size: 90px;&quot;&gt;&lt;font style=&quot;font-size: 90px;&quot;&gt;Cliquez sur le bouton &quot;Add a list&quot; pour créer une liste via la Vue Creer Liste&lt;/font&gt;&lt;span style=&quot;&quot;&gt;&amp;nbsp;&lt;/span&gt;&lt;/h1&gt;" style="text;html=1;strokeColor=none;fillColor=none;spacing=5;spacingTop=-20;whiteSpace=wrap;overflow=hidden;rounded=0;fontSize=60;align=center;" vertex="1" parent="1">
          <mxGeometry x="-8205" y="-1185" width="1425" height="450" as="geometry" />
        </mxCell>
      </root>
    </mxGraphModel>
  </diagram>
  <diagram id="99rSGq4W8LJAlPOmb6ID" name="Page_Créer_Liste">
    <mxGraphModel grid="1" page="1" gridSize="10" guides="1" tooltips="1" connect="1" arrows="1" fold="1" pageScale="1" pageWidth="1100" pageHeight="850" math="0" shadow="0">
      <root>
        <mxCell id="0" />
        <mxCell id="1" parent="0" />
        <mxCell id="_NxqNlhstrXVOYrvw1uD-1" value="" style="shape=image;verticalLabelPosition=bottom;verticalAlign=top;imageAspect=0;aspect=fixed;image=data:image/png,iVBORw0KGgoAAAANSUhEUgAABPoAAAN4CAYAAABapYbxAAAAAXNSR0IArs4c6QAAAARnQU1BAACxjwv8YQUAAAAJcEhZcwAADsMAAA7DAcdvqGQAAE0pSURBVHhe7d1/sGRlYSf8+eet9/0j/2bLrdpka939I+Uf0VtTRdWS0rhbljFVUruVcMe4rmtVUuAqJmQTuCDLrklMiEpiBhjuMIBiGAX5oSJMBgRkIIhG+RGGyBKXwFrJ64sKMwgCioQ8bz+n++n79HNP9+07p6f7znM/X+tTc2+fc57z9Ol7j3W+nO67I4iIiIiIiIiIiMgJH0WfiIiIiIiIiIhIBVH0iYiIiIiIiIiIVBBFn4iIiIiIiIiISAUZW/R99atfDTd86Wvh7of+Lhx64H+PuP2vHg33PvxkOPTg6ONx3etvvS9cc+21g1FERERERERERERkHhlb9F1z8Cvh+edfDj9+6dWef2y8/KNXw3M/eCmce8654S/vuS/806thZHn04gs/CXc99HeDUURERERERERERGQeGVv03fa1R8NLL7wSnn/u5aEXX/zH8K2//T/hpJNOCr/8tl8ON3/xYPjRS//UFILDdXrb3HrfNwejiIiIiIiIiIiIyDwytui7+e6/Dj98/uXwg2d/NPBSU+rdeMNN4Wdf+9qw8xd+Ibz5rW8Nt9765fDii6+GZ3vL43pxm7itiIiIiIiIiIjIPPL0009PZatl3759E+cVl8V1ps3You/GO77RvE33mSMvhCM9R4++GJ49+lJ413t+Pbzt3/zrcOAtbwkX/Pt/F075D/8xPPnkd5qiL64Xt4nbtuXJO/c1kyvd8NDRwRp5ngx37rshtC6auExERERERERERLZTpinxtmLRF+d0xZVXts5t0rJxmfAZffeFI8/8MDzzzAvh2Wd/HJ577ifhlgN3hH/5Mz8Tbv75nw/hlFNCePvbw7t/7ufChRethud7y59+urfu0ZfCZ3rbTs40RZ2iT0RERERERERENs40ZdhmCrN5pq3Qa3tsmowt+q666VBT2j34wN+ECz/2p+G9p703vPd97w+/9iu/Et73mteEO1//+nDf614XrvqN3wgHbr8zPPbYt8Ott94V7vryvWH/LfcORhkXRZ+IiIiIiIiIiMwm0xRimy3N5pm82Mu/3mzGFn1X3Hhn2H/1NeF3P3pVOO/TXw/nX7Q/7N+/P1x+xRXhX/zUT4Vf7Hlzz3133BGe++Hz4SMf+ZOwe/el4eKLV8OnvnjPYJRxGS3qRt7Se+eT/QfTOk8+FG5Y9xbfoug7urbOvn139pb2M3HcYUmoNBQREREREREROZEzTSl2LMXZPJMKvmMt+WLGFn0X7L02vO2Xfim884z/Hr54z0Nhz94rwnXXXhMuvuSS8IalpfDPfvqnw395z3vCj19+uVn/t3/7v4W3vOWt4dxzzgsXXX1z89j4jCvX8sfj1/vCvhseCs23TZmXL2v7On57Z8tn/k1Yf933IiIiIiIiIiLbN8ObpjawlaLo62ds0XfWH6+GN7/x5PBvX//a8K9+9p+HM379V8MXPndj+NznPhc++tGPhgsvvDA88cQTg7VDuPrqz4TXvOY1YdfyO8JHLr9+8Oi4rC/n1n5QxhVycbV9oX9jXrZs5G6+gXT33lTjKvpERERERERERE7knOhFXyr54r/515vN2KLvw6vXhHf/5/eE5eVd4cMX/Gn4/T+4INxwww3hjjvuCPfee2/41re+FV555ZXB2iH8xV/cFj7+8UvDp/dfHy7Yt4mirynq0tttj4aHevtoL+TisnFF39rbdYeZelxFn4iIiIiIiIjIiZxpSrFjKc7mkbZir+2xaTK26PvQxfvDN77xN+FrX38kPPa3fx8uvmRv2LfvsnDjjTc2Zd/hww+H7373u+HlwVt3b775QPjG/Y+GJ554Kpy/+8+bx8YnK9fiXXdj356bfS7fSHGXl3PFeiljx80Lw16au/4UfSIiIiIiIiIiJ2qmKcQ2W5rNI5MKvUnLxmVs0bfysSvC3fd8PXzik9eEC/74z8IZH/itcM45K+HMM89s/r3gggvCVVddFb7yla80O7zr0N3hvq8eDo8++u1wzoVXDkYZl7yo6xdvzdtrb7gz3FnceXfnnTcM3nqblXMj2/fSFHnpLbo9zYrjxu0lf0vvnb1lij4RERERERERkRM2sZuaxlZL7KYmzSsui+tMm7FF3/s/9Gfhsss+GX73rPPC8q53hTe+8U3h1FN/NezcuTO87nWvC294w1I46aSTwgc+8IFw6NBd4drP3hAO3XN/eOSRJ8JZH718MIqIiIiIiIiIiIjMI2OLvnee+aFw6J4Hwle/djjc85cPhMsvvzqcfdZ54Xd+55zwR3/0J2H37r3hP73z3eFNb/rFcPppp4crP7E/fOW+h8N9f/VI+LXf/B+DUURERERERERERGQeGVv0Xb1/fzjjD/aEM37vkp6Lw29++NLwW3+42vybvO9DF4V3nvl7YfmM88N//Z+7wwd+/5LwjvefFy78+EWDUURERERERERERGQeGVv0iYiIiIiIiIiIyIkTRZ+IiIiIiIiIiEgFUfSJiIiIiIiIiIhUEEWfiIiIiIiIiIhIBVH0iYiIiIiIiIiIVBBFn4iIiIiIiIiISAVR9ImIiIiIiIiIiFQQRZ+IiIiIiIiIiEgFUfSJiIiIiIiIiIhUkB2vvvpqAAAAAABObDteeeWVAAAAAACc2Hb85Cc/CQAAAADAiW3Hj3/84wAAAAAAnNh2/OhHPwoAAAAAwIltx4svvhiSF154LOx7x1LYuXPnOkvv2Bcee+GF4bqlF27/YLPeO/Y9NnbZB28fv/1W8sJj+8I7lpZGnvNj+94RlpbeEfY9tvYc2tbb6Bj+r0cva7bJj9O0Y497vG37aaXXJjev1+l4/Fyk47+09MFwe3pNBscs39cLL9wePthyfKeRxmv7Wd+K2o5J//G1Y/C/vnTuVK9F/ppN+zs/7uu43mO37wsf3Hf7uu27KvezWfOaZ5T2FZXnhfT4sT6PNml/W/HnN/9dTeK57YNzmOvtH1z/OxLN+/UBAADoYscPf/jD0Ob52/oX/ufe9nzr8lJaf9dlj45dNu1Yi/b8o5eFXYOLzTTnRy/b1bsI3BUue3TtOcTH4jrl40nb805j58dpM2NPO7dpnWivzTTK45GOZZSOe9vrMK0u2y5KOgYjP4sTfmenMe32437Gnn/+tnBu7zgunXvbyOOzMMuf6+M5zyjNNVradVl49Pn+nG87d63wmuXvZ9fX/Xhq+9267dxjP79tRjzeS0vnhtsGxz+Z9+sDAADQxY7nexctbZ67dXChfOtzI49/c++5w6IpXnydu/ebI+vvOndt+a5iWRrruW/uDefuGoyx69yw95tr+9hw/MH3tw4uym597rlmvLjN0rm3Zst2jYy7GWm8/vz2hm/29vHNvf2LzTTmc899M+ztPYel3vPtlwD9fY+M03IM09jpeUSbGXuauW3GuNc5ansthnMb7Pu5524dmeO413a43q5d/deq99odvPqckX2v21/LnKaRP6fhfHvj7crnPeXPZOu87xh9Dcuft3HPY/gz3PI70rpdtmxkfpOWFb9P+TrN/LOfpfznpjweGz2H5thOeD5t6+Vfn3Pwb5rXJX4dDV+XKZ7LNEb2OXjucZ5x7HT8Jv0sz2ueUdrXrt7P2PCcNphLfCwuGx7/MfsdjjF4jv2v94ZbB69j/jOTr1u+bhP30fK7cGtv2ax+b6Pha5XPJ3st0zrjjv2436Hxcx/8B5XeOOdm/5+Sxmu2ncXrk55X8TM4Mv7g+/z/2+L3AAAAm7HjBz/4QWjz7MF+CXPOwWfXHnskXqzsCnsf6T928Jx4QXJOOPjss8P144XwI73vHxlcQMXt87H6Y8QLuUfCs88+MjrGFOPH7cpla9/3tt07mMc5B5vHj8VwjoOLuDjv+Hya8Qdzy59HOZfhOGOPYX+79Nhmxp5mbpvRNsfm8WY/7a9F/nWaT/PaPnswnNP7Oh779DOQ5jVclj+Xtp+Lwes27phOIz9+6es4p/XPoZjbtPPOxo/r5sdv0vNIz7f1d6TZrv14r5tf23GLz7X4fYrjJHFZv/BMYw6+H8xl2tdiZL1Jz6dlvXVfZ8+rmeOUz2UaI/sZjNuf5+hxGHlug/XmOc8o7WvXOeeM7L/5GRycz/Ln0bbfNEb5WqSfmWnW3XAfk34XWn5W8uc4rXz/6bHWOQyeV5z78He12XaD36G2uTfPdf3yZCavz2BZ28/gcPzBc+56DAEAgO1tx9GjR0ObIwdWmouPlQNHRh8/cjgcWF0NK8vLzfKlpeWwevjIcP3l1cP99Q6vhuXehU38Ph/r8OrycJu2/Uw7/oGVeDG0Eg4cSdsdCCu9/fW3WXv8WKzN/UBYXe7tZ3m1N6fReefPY+yxank8jR0fz0079jRz24w0/nAevfEOD4/p5Ndi7fXsH+91r23+MzB4fZZWDqzbdxwnrRu3X+6tc/gYnksy3Fd8Lvk+el/353d4eOzic930vIvXMM63XNb2PNLzbfsdab6f4ninsZJ1c99g3bRs3b7z4zTFc0jHM37d9nza1lv3dXFsN/NcNjKyn+K55ueOfL3+/tc/fjznGaXth7/T8ZinuaybX/t+18ZY/3rG7/Nt162bHZ+J+5jwuxC36fp7G6Xx4j5zzdgb/K4234/7HWqZezlW+f8pydrx6vD6TPEz2LYszQEAAGBaO47EC40WzwwvUp5Ze+zhS/sXdcsr4dIDDw8uSJbDpQ8/s279Z55Zu7DKlz18af8CrLR86cNTjR/Xi+MPL4aeWZtffKxZp7fP9NixSPNo5pT227twHM7lmYfDpU1RdGl4uLf//LmOjDPhGKbnEcVjMu3YG80tjTmttjk2j096LbI5NY8P5pY/j2aM/Geg5RiV+z5Q/Gwsr/SPQVp/M9LPx0o+73TsVlb6z+1Y5z0YJ81z3c/hmOdRPt+R/Uw43ul3pnyNokm/T+W6+c/Ouuc85WuRrzfx+YxZb+Tr4thu5rlsZGQ/2fOOy9LPRnzN8jnkP8vzmmeU9hW3b+bQ+xlYGRRK+Twm7TcfIx8zbhe/z1/vcln+/CbuozgOySx/b8vXKno4e27582jWz+Y06Xeobe7lWP3vR3+Xo5m8PpN+BrPxy2X5PAAAAKax4+mnnw5tvn/L2c3Fx9m3fH/42EN7+hdGex7qP3bL2fGC5Oxwy/e/P1x/ec9D/e0f2tO/sOl9n49VjpHbzPj5svh92l9cZ9z40xqZ+/cfCnt6F3X5uPm+cvl8mnFajmE+dnosf94bjb3R3NKY02qbYzTptVj7fjks9/afti23GZ3rLeHs3tdLZ9/SLGuWtx2f3nN66JY94ezB8yrnNa04l7h9c2yW94SH4rHLjlc+9qbnPVjejFv8XA7XaXke5c9wvp9Jx3vcaxSV202Snv/S8tnNvNJxaZZN+Vrk6016Pm3rrfu6OLabeS4bGdlPNq+4bJqf5XnNM0r7yo9b+X2cx6T95mPk36fnk2+7bt0JP4e5tt+FtWWz+b0tX6vmsWy/5fym/h1qmfuk9dM6UX680tfl9xu+PhN+BsvXY9w8AAAAprHj+81F0Hrfu3lwAXPz94aPPdi7kEmPfe/Bm/sXTvHC5sHe94P1Y3nw4Pe+16xbLutvly54HhyOmdabOH623fe+l5adHW7u7et733uwX2DE7wfrpXmkuW9GOcfhc2uZZ9qm7bG2Y1iOHY07Bvny9NhGc0vbTKttjtHoPkdfi3y79Bo0j6Vjf/bN638G0mvWW5b2ke87fb32c9E+r2ml8fIxo5t7F9HxsZHnstl5F69BHHP4szjheQyPWcvvyKTjnc8hbpfvv5xLPmaaby7tJ59jNO1r0bbehr/z474uju1mn8skI/uZ8Hrl67Y9drznGaV9xfHS2K3HccJ+8zHyMeN249Ztfd0m7WPC7/Da+qP73axy/9GD2T6Gx2fwu5DPL36d9j3pd6htX8Pl2c/AcL22/RfHcsPXp1g2cs6Ych4AAADT2PHd7343tHnqprOaC5izbnpq7bGn7g8Xn5qKklPDWWedOlwnrX/qWWeFU3sXKs3XF9/fOlb8Pq3TjJMenzB+XH7T4PulU8/qLYsXQ2eFm556Ktx/8eh66fu0/8166v6Lm/kN5z+YV5zTRd9IX/f3XW6zdNZNa4+1HcNi7CjOd9qxJ83t4vvXtplW2xybxzd4LZ566qZwVvF8m8d78zsrbdd7ndKc2tYv931/+XNxjK9fNNxfcVzSPpdOvTjcXxzjqeddvgbF9+OeR9p3/B2J+xpZttHxzubXH2P0OI7sr3gtc2mu447LRq9Fvl7+fNK6w2PSsl75dbOfwe9q+pmPy6d9LpOM7LN4fW7Kzh3NutP8bB6neUZpX3F+a7/Pa/vJ5zFuv/kY+ff5/NNrPly35XWbuI8xv/Mz/b0dvFZxrFz8eU+/r/nvwujv6vjfobFzT69r8f8p+Tr5sT3m12eDn8Fx/98WlwEAAGzGjqfixQpw3P1/N/1uVhi0rwMAAABwrHZ85zvfCcDx9/9+flD0XfT11uUAAAAAXez4h3/4hwAAAAAAnNh2/P3f/30AAAAAAE5sO7797W8HAAAAAODEtuPJJ58MAAAAAMCJbcfRo0cDAAAAAHBi2/HAAw8EAAAAAODEtuO2v/5OAAAAAABObDvO+9i+AAAAAACc2NzRBwAAAAAVaIq+u+++GwAAAAA4gSn6AAAAAKACij4AAAAAqICiDwAAAAAqoOgDAAAAgAoo+gAAAACgAoo+AAAAAKiAog8AAAAAKqDoAwAAAIAKKPoAAAAAoAKKPgAAAACogKIPAAAAACqg6AMAAACACij6AAAAAKACij4AAAAAqICiDwAAAAAqoOgDAAAAgAoo+gAAAACgAoo+AAAAAKiAog8AAAAAKqDoAwAAAIAKKPoAAAAAoAKKPgAAAACogKIPAAAAACqg6AMAAACACij6AAAAAKACij4AAAAAqICiDwAAAAAqoOgDAAAAgAoo+gAAAACgAoo+AAAAAKiAog8AAAAAKqDoAwAAAIAKKPoAAAAAoAKKPgAAAACogKIPAAAAACqg6AMAAACACij6AAAAAKACij4AAAAAqICiDwAAAAAqoOgDAAAAgAoo+gAAAACgAoo+AAAAAKiAog8AAAAAKqDoAwAAAIAKKPoAAAAAoAKKPgAAAACogKIPAAAAACqg6AMAAACACij6AAAAAKACij4AAAAAqICiDwAAAAAqoOgDAAAAgAoo+gAAAACgAoo+AAAAAKiAog8AAAAAKqDoAwAAAIAKKPoAAAAAoAKKPgAAAACogKIPAAAAACqg6AMAAACACij6AAAAAKACij4AAAAAqICiDwAAAAAqoOgDAAAAgAoo+gAAAACgAoo+AAAAAKiAog8AAAAAKqDoAwAAAIAKKPoAAAAAoAKKPgAAAACogKIPAAAAACqg6AMAAACACij6AAAAAKACij4AAAAAqICiDwAAAAAqoOgDAAAAgAoo+gAAAACgAoo+AAAAAKiAog8AAAAAKqDoAwAAAIAKKPoAAAAAoAKKPgAAAACogKIPAAAAACqg6AMAAACACij6AAAAAKACij4AAAAAqICiDwAAAAAqoOgDAAAAgAoo+gAAAACgAoo+AAAAAKiAog8AAAAAKqDoAwAAAIAKKPoAAAAAoAKKPgAAAACogKIPAAAAACqg6AMAAACACij6AAAAAKACij4AAAAAqICiDwAAAAAqoOgDAAAAgAoo+gAAAACgAoo+AAAAAKiAog8AAAAAKqDoAwAAAIAKKPoAAAAAoAKKPgAAAACogKIPAAAAACqg6AMAAACACij6AAAAAKACij4AAAAAqICiDwAAAAAqoOgDAAAAgAoo+gAAAACgAoo+AAAAAKiAog8AAAAAKqDoAwAAAIAKKPoAAAAAoAKKPgAAAACogKIPAAAAACqg6AMAAACACij6AAAAAKACij4AAAAAqICiDwAAAAAqoOgDAAAAgAoo+gAAAACgAoo+AAAAAKiAog8AAAAAKqDoAwAAAIAKKPoAAAAAoAKKPgAAAACogKIPAAAAACqg6AMAAACACij6AAAAAKACij4AAAAAqICiDwAAAAAqoOgDAAAAgAoo+gAAAACgAoo+AAAAAKiAog8AAAAAKqDoAwAAAIAKKPoAAAAAoAKKPgAAAACogKIPAAAAACqg6AMAAACACij6AAAAAKACij4AAAAAqICiDwAAAAAqoOgDAAAAgAoo+gAAAACgAoo+AAAAAKiAog8AAAAAKqDoAwAAAIAKKPoAAAAAoAKKPgAAAACogKIPAAAAACqg6AMAAACACij6AAAAAKACij4AAAAAqICiDwAAAAAqoOgDAAAAgAoo+gAAAACgAoo+AAAAAKiAog8AAAAAKqDoAwAAAIAKKPoAAAAAoAKKPgAAAACogKIPAAAAACqg6AMAAACACij6AAAAAKACij4AAAAAqICiDwAAAAAqoOgDAAAAgAoo+gAAAACgAoo+AAAAAKiAog8AAAAAKqDoAwAAAIAKKPoAAAAAoAKKPgAAAACogKIPAAAAACqg6AMAAACACij6AAAAAKACij4AAAAAqICiDwAAAAAqoOgDAAAAgAoo+gAAAACgAoo+AAAAAKiAog8AAAAAKqDoAwAAAIAKKPoAAAAAoAKKPgAAAACogKIPAAAAACqg6AMAAACACij6AAAAAKACij4AAAAAqICiDwAAAAAqoOgDAAAAgAoo+gAAAACgAoo+AAAAAKiAog8AAAAAKqDoAwAAAIAKKPoAAAAAoAKKPgAAAACogKIPAAAAACqg6AMAAACACij6AAAAAKACij4AAAAAqICiDwAAAAAqoOgDAAAAgAoo+gAAAACgAoo+AAAAAKiAog8AAAAAKqDoAwAAAIAKKPoAAAAAoAKKPgAAAACogKIPAAAAACqg6AMAAACACij6AAAAAKACij4AAAAAqICiDwAAAAAqoOgDAAAAgAoo+gAAAACgAoo+AAAAAKiAog8AAAAAKqDoAwAAAIAKKPoAAAAAoAKKPgAAAACogKIPAAAAACqg6AMAAACACij6AAAAAKACij4AAAAAqICiDwAAAAAqoOgDAAAAgAoo+gAAAACgAoo+AAAAAKiAog8AAAAAKqDoAwAAAIAKKPoAAAAAoAKKPgAAAACogKIPAAAAACqg6AMAAACACij6AAAAAKACij4AAAAAqICiDwAAAAAqoOgDAAAAgAoo+gAAAACgAoo+AAAAAKiAog8AAAAAKqDoAwAAAIAKKPoAAAAAoAKKPgAAAACogKIPAAAAACqg6AOABTh06BAAPW3nSADg2Cj6AGDG2i5kATh2bedaAGA9RR8AdNR2UbqRu+66C4CetnPkRtrOxQCAog8AjknbhedmtF3sAmxHbefIzWg7RwPAdqXoA4BNarvQHKftojb68pe/DEBP2zkyajunjtN2rgaA7UjRBwBTaru4bFNerJYXtXfeeScAmfI8WZ5H2861bdrO3QCwnSj6AGAKbReUpfyiNL9gbbuoTe644w6AbantnJjk59D83Np27i21ncMBYLtQ9AHAFNouJnNlwdd24Zpf4N5+++0jvvSlLwFsC+X5Lz83tp07y8Kv7RycazuHA8B2oegDgA20XUgm6cJzXMk3bbF32223AWwL5fmvPD+2lX5l2Re1nZOTtnM5AGwHij4AmKDtAjLZTMGXX9Smi91bb70VYFtrK/82U/i1nZuTtnM6ANRO0QcAE7RdPEYblXxlwddW7B08eHDoL/7iLwC2hfzcV54X89IvL/zyc+y0ZV/bOR0AaqfoA4AJ2i4ex5V86e6TcQVfWeodOHAAoHq33HJL6+NRWf6NK/zS+XUzZV/bOR0AaqfoA4AJ2i4e85IvFX2p4EslXyr42oq9eNF78803D33xi18E2Fbyc2AqAvPSL5V9UTq3psIvL/oiRR8ArFH0AcAYbReO6e6RtpIv3X2SCr5U7OWF3k033RS+8IUvND7/+c+Hz33ucwDbUjwHpvNhKv/y0i8v/NKdfW1lXzovt52z287tAFAzRR8AjFFeME4q+aJ0F1+8QI0Xq3mxly5sb7zxxnDDDTeE66+/Plx33XVDn/3sZwG2hfzcF8+F8ZyYF3+p8JtF2dd2bgeAmin6AGCM8oKxreRLRV9e8sWL1Hixmkq9VORde+214Zprrml85jOfCZ/+9KfD/v37Aap19dVXD5XL4jkwngvjOTGeH+O5Mp4zY+EX/0PJpLIvnX/Lsq88b7ed2wGgZoo+AGhRXiymu0VSyZffzRcvPOMFaLwYjRemseR717veBcAxiHf5TVv2pfNxKvqS/Pzddo4HgFop+gCgRX6RGG1U8sUL0Pi5UvGtuvFOvnixKiIim0s8d8a7++KdfeltvJM+s6+8s0/RB8B2p+gDgBb5RWI0qeiLF5753XzxbhRFn4jI5hPPnfEtvfFtvPFz++J/PGkr++K5N1L0AcAoRR8AtMgLviQVfXnJl+7mS5/NF99uFi9QFX0iIptPPHfGz/PL7+pLb+GNZV8s+qK2t/DmRV+k6ANgO1L0AUCLsujb6G6+eAEaL0bjHSjxAlXRJyKy+cRz56c+9anmj3TEu6NncVdf2zkeAGql6AOAFpOKvvJuvlT0xYvReAdK/AuSij4Rkc0nnjs/+clPDt++Gz/zNN3Vl8q+ae/qU/QBsB0p+gCgxbiir+1uvniHSfp8PkWfiMixJ547P/GJT4y8fTd+JEL8Dymx7Gu7q0/RBwBrFH0A0GJS0RcvLPOiL1545p/PF+9Emabo++pXvxpu+NLXwt0P/V049MD/HnH7Xz0a7n34yXDowdHH47rX33pfuKZ3ASwiUlviufPKK68Mf/7nf978R5P09t22z+pre/uuog+A7U7RBwAtyqIvlnx50Zf/EY540Zk+ny8Wffv375+q6Lvm4FfC88+/HH780qs9/9h4+Uevhud+8FI495xzw1/ec1/4p1fDyPLoxRd+Eu566O8Go8woB08PO3bsCKcfDOHx3aeH3Y8PHhcRmWPiufOKK64Yfk5fevtuuqsv/keVWPalu/rS23dT0RfP04o+ALYzRR8AFMqSL93NF5Wfz5fetpuKvs9+9rNTF323fe3R8NILr4Tnn3t56MUX/zF862//TzjppJPCL7/tl8PNXzwYfvTSPzWF4HCd3ja33vfNwSizycHdu8Pjvf/tPnlH2HFy/FpEZP6J5859+/aFq666qrk7Op5T49t3y7v6yqLP23cBoE/RBwCFaYq+/G278aIz3mkS7zqJnykVP1tqmqLv5rv/Ovzw+ZfDD5790cBLTal34w03hZ997WvDzl/4hfDmt761t68vhxdffDU821se14vbxG1F5MTJAw88MJWtlnin76R5xWVxnVklFX3xD3LE/2gSz6nx7bvprr62t+/Gsk/RBwB9ij4AKIwr+uJFZFvRF99Klv8hjvjZUtMUfTfe8Y3mbbrPHHkhHOk5evTF8OzRl8K73vPr4W3/5l+HA295S7jg3/+7cMp/+I/hySe/0xR9cb24Tdx2cgZ35/UuwBtT3KV38PTeevG9u2PSLE/jRRPWnZjHd4eTd5x8HN8efDCcPhy/9/Vc7lDM9nncn5+ciJmmxNuKRV+c0//1f/8/rXObtOxYE8+de/fuHf5BjnhObXv7rqIPANop+gCgMK+i75qD94Ujz/wwPPPMC+HZZ38cnnvuJ+GWA3eEf/kzPxNu/vmfD+GUU0J4+9vDu3/u58KFF62G53vLn366t+7Rl8JnetuOTVM09T9vb5jeY7sn9XJxm5NPD6ef3FZQ9UvDstd7fPfJU77NNy/e5pEFF30bZt7HQ7ZCpinDZlmYzTJthV7bY7NIXvTFc+mkz+lT9AHAeoo+AChMKvrKz+drK/rih8hPU/RdddOhprR78IG/CRd+7E/De097b3jv+94ffu1XfiW87zWvCXe+/vXhvte9Llz1G78RDtx+Z3jssW/39tub05fvDftvuXcwSpn2Um6jPL775HDy7seH/+ZZ++McsaBKd/QNiqrHd4fTN2ys5l1s5fvrfa3oky2QaQqxWZdms0ycWyr28q9nnXjuXF1dHf7l3VT0TfM5fYo+AFD0AcA68yr6rrjxzrD/6mvC7370qnDep78ezr9of/OZVJdfcUX4Fz/1U+EXe97cc19vv8/98PnwkY/8Sdi9+9Jw8cWr4VNfvGcwSpHmbr7Tw/ier18ynX76yWHHcL1YDq4VdyePFGO99ZvWMFunSP8PeQy+zt/e22wX99f2WDZWM+e1ddZKysF6u/t/ETgqS8hhsjFO7s2nvUgr9jvy/Qb7Gplj2/FtGav5evQt1KcfjMvWvh++/XnD8eVEzzSl2PEozmaZVPAdr5IvRtEHAN0o+gCgMK+i74K914a3/dIvhXee8d/DF+95KOzZe0W47tprwsWXXBLesLQU/tlP/3T4L+95T/jxyy836//2b/+38Ja3vDWce8554aKrb24eW5d1RV2ZftG0rsQablMWegfD7vhNXGetgRvJ47t3txRT44qvmHJZVu41hdfosmEZdjCWcONKtrUxHo9vKR7ZX8rG82jfV7Fdb9n6wrEca/B1HGfdcSvGm2p8yTMsSjewlaLomy6KPgDoRtEHAIV5FX1n/fFqePMbTw7/9vWvDf/qZ/95OOPXfzV84XM3NhezH/3oR8OFF14YnnjiicHaIVx99WfCa17zmrBr+R3hI5dfP3i0SFOUTbojrCyZ+sVYXizF79fKqd76zdfrt0vJ7+jrF2SpaEnrTyi2WuYb7wrs737CdnlGisqYcXOdNN6EZc0cRwukyeXd+m1Hi7tiX1ONLyd6pinGjld5NovEuaWCL/961lH0AUA3ij4AKMyr6Pvw6jXh3f/5PWF5eVf48AV/Gn7/Dy5oxoj7uffee8O3vvWt8MorrwzWDr393RY+/vFLw6f3Xx8u2Dem6GvuyMvf/lqmrdAqSqbGWvk2/Iy+kUJqsLz32PAz+prlabv8zsC2feZF2IlQ9I3OcX0mjRWHiHcZjnleU40vJ3qmKcWOR3E2i7QVe22PzSKKPgDoRtEHAIV5FX0funh/+MY3/iZ87euPhMf+9u/DxZfsDfv2Xdb8dcm4r8OHHw7f/e53w8uDt+7efPOB8I37Hw1PPPFUOH/3nzePtWZwV91I2fd4+qu7RckU1133Vt+yLGwvDx+P5VW+bT5WU16NK77KUiwbe6T0mrRdntExmnm1rlc8j+Y45fMYt6/++JPfTluuv37/cV79Mdr2tdH4cqJnmkJs1qXZLBLnNK7Qm7TsWKPoA4BuFH0AUJhX0bfysSvC3fd8PXzik9eEC/74z8IZH/itcM45K+HMM89s/r3gggvCVVddFb7yla+Ep59+Otx16O5w31cPh0cf/XY458IrB6OMSVOYZXfoDQu50ZIp3j3XVjA9PvL23X5G/tBGz/rt+kVaf3+nh9Ozz/obbtuMWRRdI3MtC7BJ32fJ3jI8/o9x9JKtt+P03hyH622wr/J4FsdmdP3s63x/2V17o8ejlw3HlxM9sQybxlZL/HmcNK+4LK4zqyj6AKAbRR8AFOZV9L3/Q38WLrvsk+F3zzovLO96V3jjG98UTj31V8POnTvD6173uvCGNyyFk046KXzgAx/ozeeucO1nbwiH7rk/PPLIE+Gsj14+GEVEpJ4o+gCgG0UfABTmVfS988wPhUP3PBC++rXD4Z6/fCBcfvnV4eyzzgu/8zvnhD/6oz8Ju3fvDf/pne8Ob3rTL4bTTzs9XPmJ/eEr9z0c7vurR8Kv/eb/GIwiIlJPFH0A0I2iDwAK8yr6rt6/P5zxB3vCGb93Sc/F4Tc/fGn4rT9cbf5N3vehi8I7z/y9sHzG+eG//s/d4QO/f0l4x/vPCxd+/KLBKCIi9UTRBwDdKPoAoDCvok9EREaj6AOAbhR9AFBQ9ImILCaKPgDoRtEHAAVFn4jIYqLoA4BuFH0AUFD0iYgsJoo+AOhG0QcABUWfiMhiougDgG4UfQBQUPSJiCwmij4A6EbRBwAFRZ+IyGKi6AOAbhR9AFBQ9ImILCaKPgDoRtEHAIVZFX1Hjx4FYBMUfQDQjaIPAAqKPoDFUPQBQDeKPgAoKPoAFkPRBwDdKPoAoKDoA1gMRR8AdKPoA4CCog9gMRR9ANCNog8ACoo+gMVQ9AFAN4o+ACgo+gAWQ9EHAN0o+gCgoOgDWAxFHwB0o+gDgIKiD2AxFH0A0I2iDwAKij6AxVD0AUA3ij4AKCj6ABZD0QcA3Sj6AKCg6ANYDEUfAHSj6AOAgqIPYDEUfQDQjaIPAAqKPoDFUPQBQDeKPgAoKPoAFkPRBwDdKPoAoKDoA1gMRR8AdKPoA4CCog9gMRR9ANCNog8ACoo+gMVQ9AFAN4o+ACgc76LvyOHVsLy0FHbu3Dm0tLQcVg8faV0/d/jAalhZPdC6bBaOHFhp5rNyYOO5bBUHVpZ6x28lHDgy/ZyP5Xnm22xm++P9mkFNFH0A0I2iDwAK8yr6llcPty4f58iRA2Glt93SiqIvt4iir215m3m8ZlATRR8AdKPoA4DCIou+4bKVlbCyHAus5bDSW+/IkcNhtfd9LJqipeXV8PAzgxJpebnZpim7Dh9pxojb9tdbGd4pmIqqXDmHsswaN9bINmPmnC+fNJ+0Xf/r1XBgdWXwfEbHyR1eXR6Ot1IUfVPNuXiehwf7bLYZs998mw23j+u0vGaHe3Pc6HikMWE7UvQBQDeKPgAobIWir18K9YuiVGKVd4cNvy9KrjR2LJra7nZb227924VHyqwpxmq2mXLOseSKBV3ab9pXKsCG5d1g3Y3215/X6DGYes7rnufasZhqm7bjNHhd8u3XvWYT5pePme8XthNFHwB0o+gDgMK8ir5Y6iT53V6pCIrrTiyNiu+jvEhr1mkpj/JCLT2W5OtPM1bz+IQ5rxsjL7oG46XtyvHLbZPy8Yn7Gzfn4vGmdFuNd9oNjk3LfvNtRr4ePKe4TSz7Dmfbla/RtPOD7UrRBwDdKPoAoDCvoi8VXJOWHUvRF4uj0rBMy0qpsshqlmfF00ZjDbeZMOd1xVY257Sv4dyK0qvcNikf73+/tr98rsm6ObcVdfFttAfSXXbr9zuyTTHXA8V+41uQm+K2pejL1xuuX8wPtitFHwB0o+gDgMKJXvSNK/GiON6kYikvsDYaK9lU0Zetm/aVtivLs3H7Lx+ftL9xJj3PfLxx25RzbZYfOdz/C7uDz99r1msp+qaZH2xXij4A6EbRBwCFE7noK7fPi6W0rK3ESkbKrAljjWwzac5pn705jvuMvrRdWZ5Ns7/hMSj2t+Gcs33Fddaecxpv8jZtX6/tM1tWvmYT5lc+f9iOFH0A0I2iDwAK8yr6YqmT6xdNo0VQeXdZKqXiY7ekv7qbFX3N+AfW/wXYfNtc+mzAfNv4eNpm3Fi5jeYcl0/8q7uD7cp9jyvp0rI03rq/ujvNnLN9xTvx0l/HbdZfWSv+xm5TzrXc5+A5Ncuy16wpI8fMrxwTtiNFHwB0o+gDgMLxLvoAaKfoA4BuFH0AUFD0ASyGog8AulH0AUBB0QewGIo+AOhG0QcABUUfwGIo+gCgG0UfABQUfQCLoegDgG4UfQBQUPQBLIaiDwC6UfQBQEHRB7AYij4A6EbRBwAFRR/AYij6AKAbRR8AFBR9AIuh6AOAbhR9AFBQ9AEshqIPALpR9AFAQdEHsBiKPgDoRtEHAAVFH8BiKPoAoBtFHwAUFH0Ai6HoA4BuFH0AUFD0ASyGog8AulH0AUBB0QewGIo+AOhG0QcABUUfwGIo+gCgG0UfABQUfQCLoegDgG4UfQBQmFXRd97H9gEwJUUfAHSn6AOAwiyLPhER2Tix5ItR9AFAN4o+ACgo+kRE5pt0vlT0AUA3ij4AKCj6RETmG0UfAMyGog8ACoo+EZH5RtEHALOh6AOAgqJPRGS+UfQBwGwo+gCgoOgTEZlvFH0AMBuKPgAoKPpEROYbRR8AzIaiDwAKij4RkflG0QcAs6HoA4CCok9EZL5R9AHAbCj6AKCg6BMRmW8UfQAwG4o+ACgo+kRE5htFHwDMhqIPAAqKPhGR+UbRBwCzoegDgMKsi76dO3c2/4qISHsUfQAwG4o+ACgo+kRE5htFHwDMhqIPAAqKPhGR+UbRBwCzoegDgIKiT0RkvlH0AcBsKPoAoKDoExGZbxR9ADAbij4AKCj6RETmG0UfAMyGog8ACoo+EZH5RtEHALOh6AOAgqJPRGS+UfQBwGwo+gCgoOgTEZlvFH0AMBuKPgAoKPpEROYbRR8AzIaiDwAKij4RkflG0QcAs6HoA4CCok9EZL5R9AHAbCj6AKCg6BMRmW8UfQAwG4o+ACgo+kRE5htFHwDMhqIPAAqKPhGR+UbRBwCzoegDgIKiT0RkvlH0AcBsKPoAoDDrok9ERCZH0QcAs6HoA4CCok9EZL5R9AHAbCj6AKCg6BMRmW8UfQAwG4o+ACgo+kRE5htFHwDMhqIPAAqKPhGR+UbRBwCzoegDgIKiT0RkvlH0AcBsKPoAoKDoExGZbxR9ADAbij4AKCj6RETmG0UfAMyGog8ACoo+EZH5RtEHALOh6AOAgqJPRGS+UfQBwGwo+gCgoOgTEZlvFH0AMBuKPgAoKPpEROYbRR8AzIaiDwAKsyz6jh492vwLwGSKPgDoTtEHAIVZFX2x5BMRkemj6AOAbhR9AFCYZdEHwPQUfQDQjaIPAAqKPoDFUPQBQDeKPgAoKPoAFkPRBwDdKPoAoKDoA1gMRR8AdKPoA4CCog9gMRR9ANCNog8ACoo+gMVQ9AFAN4o+ACgo+gAWQ9EHAN0o+gCgoOgDWAxFHwB0o+gDgIKiD2AxFH0A0I2iDwAKij6AxVD0AUA3ij4AKCj6ABZD0QcA3Sj6AKCg6ANYDEUfAHSj6AOAgqIPYDEUfQDQjaIPAAqKPoDFUPQBQDeKPgAoKPoAFkPRBwDdKPoAoKDoA1gMRR8AdKPoA4CCog9gMRR9ANCNog8ACse76DtyeDUsLy2FnTt3Di0tLYfVw0da188dPrAaVlYPtC47ER1YWeo995Vw4MjGz31WjhxYaY75yoHNHe/NbHcsjuVYHMuc8m2O9VjA8aLoA4BuFH0AUJhX0be8erh1+ThHjhwIK73tllYUffMw7+O9iKKvbXmbGn/22JoUfQDQjaIPAAqLLPqGy1ZWwspyLH6Ww0pvvSNHDofV3vexoImWllfDw88Mypfl5WabpiQ6fKQZI27bX29leKdgKnhy5RzSOunxvHwaN7fhtmP2Wzq8ujxcZ6UotyaNcXh1pdl/syzuOyuqRrbL5jUsqLJjdMun1oqu4fPtPac0dnzurce7KMjGHucNjlPuWI9FUpZ2645Ry37zbTbcPq7TciwOD34eWp9/MSZshqIPALpR9AFAYSsUff0ypV+wDIu24q6q4fdFOZTGjgVN211ia9utf7vwsPgazK2t6Gud2xT7bcYfWW90/pPGGC4bPPeRZdlxiQXU4bzIajtGLUVXKq9S8TaybTrebeOmffa2S8dz0nFKx6EZ7xiPxcgY+ZyabdZe06m2Wbf9xse4GWPC/PIx8/3CNBR9ANCNog8ACvMq+mIZkuR3SaUCJa47sWwpvo/ywqlZp6V0Gd5Flm2XpPVb9z9hbtPsNyrXm3aMtO+4PBZRhwfrlOulx4bLWo7RyLjF8x0tsIrjnW23bq75dhOOU/w+OdZjkY9RPt6UbqvxTrvBa5yN0bbNyNeTjnFxLKadH2yWog8AulH0AUBhXkVfKoImLRsp2qYs+mLhUkrj5WVOWQA1yweFTev+J8xto/0mZUHU/366MQ4Uy5dX1t+Fl+8rmrboS9vm66873tm65fMY2W7CcYrfJ12ORTLyXNJrG99GeyDdZbf+dZ70/Mcd4/JYTDs/2CxFHwB0o+gDgMKJXvSNK/GiON6kQiYVP63736Dom7TfpFxvs2PEO9aav/46+Gy4trJqdP31x6it6ErPKX+O6453tl0515HtJhyn+H3S9VhEk+Y0br9tzz8/dq3HuKXom2Z+sFmKPgDoRtEHAIUTuegrt88LmbSsrfxJ8u2H46f9T5rbhP0e6/gjcy8KufhHI9pKqPLtz63HqKXoyj+jb7jPYtuR7Qb7SPtsO85prmMLt2M8FiNjZHOK66zNL403eZu2rzc6xs0YE+aXj5n2CdNS9AFAN4o+ACjMq+iLZUiuX9BMLolSmRMfuyX91d2sxGrGP9D+12nTtrlUcOXbH1gZ7KP4S7AbzW3cfkvD59D2l2YnjBH/yMbIssE8mu16c0t3oEXpD0pMW/SN+wu5I8c7264ZJ9vnyF+d3eA45Y71WCQjz+XI2l/HbdYfvI7ldm3PP60z6Rjnx6L5eRgzv3JM2AxFHwB0o+gDgMLxLvrYOlIplUo5YLEUfQDQjaIPAAqKvu1D0Qdbi6IPALpR9AFAQdEHsBiKPgDoRtEHAAVFH8BiKPoAoBtFHwAUFH0Ai6HoA4BuFH0AUFD0ASyGog8AulH0AUBB0QewGIo+AOhG0QcABUUfwGIo+gCgG0UfABQUfQCLoegDgG4UfQBQUPQBLIaiDwC6UfQBQEHRB7AYij4A6EbRBwAFRR/AYij6AKAbRR8AFBR9AIuh6AOAbhR9AFBQ9AEshqIPALpR9AFAQdEHsBiKPgDoRtEHAAVFH8BiKPoAoBtFHwAUFH0Ai6HoA4BuFH0AUJhV0SciIpuLog8AulH0AUBB0Scispgo+gCgG0UfABQUfSIii4miDwC6UfQBQEHRJyKymCj6AKAbRR8AFBR9IiKLiaIPALpR9AFAQdEnIrKYKPoAoBtFHwAUFH0iIouJog8AulH0AUBB0Scispgo+gCgG0UfABQUfSIii4miDwC6UfQBQEHRJyKymCj6AKAbRR8AFBR9IiKLiaIPALpR9AFAQdEnIrKYKPoAoBtFHwAUFH0iIouJog8AulH0AUBB0Scispgo+gCgG0UfABQUfSIii4miDwC6UfQBQEHRJyKymCj6AKAbRR8AFBR9IiKLiaIPALpR9AFAQdEnIrKYKPoAoBtFHwAUFH0iIouJog8AulH0AUBB0Scispgo+gCgG0UfABQUfSIii4miDwC6UfQBQEHRJyKymCj6AKAbRR8AFBR9IiKLiaIPALpR9AFAQdEnIrKYKPoAoBtFHwAUFH0iIouJog8AulH0AUBB0Scispgo+gCgG0UfABQUfSIii4miDwC6UfQBQEHRJyKymCj6AKAbRR8AFBR9IiKLiaIPALpR9AFAQdEnIrKYKPoAoBtFHwAUFH0iIouJog8AulH0AUBB0Scispgo+gCgG0UfABQUfSIii4miDwC6UfQBQEHRJyKymCj6AKAbRR8AFBR9IiKLiaIPALpR9AFAQdEnIrKYKPoAoBtFHwAUFH0iIouJog8AulH0AUBB0Scispgo+gCgG0UfABQUfSIii4miDwC6UfQBQEHRJyKymCj6AKAbRR8AFBR9IiKLiaIPALpR9AFAQdEnIrKYKPoAoBtFHwAUFH0iIouJog8AulH0AUBhVkXf0aNHAdgERR8AdKPoA4CCog9gMRR9ANCNog8ACoo+gMVQ9AFAN4o+ACgo+gAWQ9EHAN0o+gCgoOgDWAxFHwB0o+gDgIKiD2AxFH0A0I2iDwAKij6AxVD0AUA3ij4AKCj6tr7zPraPTXAMZ6ftWDI7ij4A6EbRBwAFRd/WFwuXtteO9caVU47h5in6jj9FHwB0o+gDgIKib+tTUk1P0Tc7ir7jT9EHAN0o+gCgoOjb+pRU01P0zY6i7/hT9AFAN4o+ACgo+rY+JdX0FH2zo+g7/hR9ANCNog8ACoq+rU9JNT1F3+wo+o4/RR8AdKPoA4CCom/rW3RJtef8U8LSKaeFPdftCact9f7dwkWCom92FH3Hn6IPALpR9AFAQdG39S2ypDp06Lpw/imnhPOvi/8uhaXT9rSut1Uo+mZH0Xf8KfoAoBtFHwAUFH1bn5Jqeoq+2VH0HX+KPgDoRtEHAAVF39Y3q5Iq3p2357RTws6dOxtL8U69Pde1rps7dN354ZSlpd7654frihKhGfP805rlzZhLp4RTTtuzbr15mUfRN+l4zNqhPac1x/W0PfM/noq+40/RBwDdKPoAoKDo2/pmUVL134LbL6f2XBdf81jQndIUc+f3vm/bJrmut14q8fJ105h5sbc27mI+y28eRd+443E8KPrqpugDgG4UfQBQUPRtfTMp+jYojA4din9oIxaBp/TvVotF3aAQ7H8232n95dln9MXC65Tzr+uvM7hTMN3lFvcXC8Bm7OvOD6f1xugvP21Yjo3bZxr/WBzvom/S8Uh3+p0Sl8V1lk4Jp/WOz4bLBq9NPJbx+z2nDY7F4Djmr9tWOJbMjqIPALpR9AFAQdG39c2ipIql3KQ70IZFUXEn3rCgOj++7TcroJrCq/91M/ag8IrrxFIqLb8k2z4+NjpG+z67OO5F35jjkS/rl52DQjA910nLpiz68n0v8lgyO4o+AOhG0QcABUXf1jeLkqospUrDoii7Qy3KC8KR0imuP7h7L46dSqpc/DzAM898+3D7+Ni6MVr22cXxLvrGHY+4LC/i4vcjRdykZVMWfWVZu6hjyewo+gCgG0UfABQUfVvfLEqqqe/oy9+Kmu48S2/HzdZpu6Mv3WXWL576y//w/Lc3ZVSpf1faiVX0TToezfI5FH35MUzmfSyZHUUfAHSj6AOAgqJv65tJSZUVRq3L24q+QTlVFkuphIrFU79kum74GX2nnDYowXr7a/5Ix4SC8YQr+jY4HvMo+rbCsWR2FH0A0I2iDwAKir6tbyYlVXY3Wv5Xd1OJ1FYUpTvI8nIwfyyNOemv7pYFV15WnWhF34bH41iLvmzZ8Ji0FH1b5VgyO4o+AOhG0QcABUXf1jeLkirK77yL4l9oPX9PvzQqi6JhMTgonIZjDMqmfL0955/WPNaMuXTKSPHXrBPv7suWp6LsRCr6pjke05Z55bL+9/3XJf4l3dPG3NHX7G8LHEtmR9EHAN0o+gCgoOjb+mZV9G0Hx6vo244Ufcefog8AulH0AUBB0bf1Kammp+ibHUXf8ZcXffFc+ulPfzp89rOfVfQBwJQUfQBQUPRtfUqq6Sn6ZkfRd/zFc+ell14arrjiipGi7/rrr1f0AcAUFH0AUNhM0RcvNuNFp6JvvpRU01P0zY6i7/hT9AFAN4o+AChspuhzR99iKKmmp+ibHUXf8afoA4BuFH0AUFD0bX1Kqukp+mZH0Xf8xXOnz+gDgGOn6AOAgqJv61NSTU/RNzuKvuMvL/r81V0A2DxFHwAUJhV9t99+e3NBGYu+eIHZVvTFi1NF3/EVCxem5xjOTtuxZHbiuXPv3r3hE5/4xEjRd+ONN4bPf/7z4aabbmrOubHoi+fgeC6ORV88Nyv6AEDRBwDrKPoAFiMv+q6++urmnNpW9MVzr6IPANZT9AFAYVzRF7UVffHOknjxGS9Er7322ubiVNEHsHnx3Llv377wyU9+Muzfv785p8Y/xJGKvvS2XUUfALRT9AFAYZqiL/+cvnjRGS8+4+dHxQ+Njxenij6AzUtF31VXXbWpP8Sh6AOAPkUfALQoy75U9MULybLoS2/fjXebxLeYxYtTRR/A5sVz5xVXXNF8BMK4t+22FX3x3JyKPiUfANuZog8AWpRFX7qrLxV9Ufn23fxz+hR9AJsXz53xbbvxIxDi23bb7ubL37abzsep6HM3HwDbnaIPAFpMKvrKz+lLb9+Nd5vEC9J4B0q8WAVg8z71qU+NvG033c0Xi75Y8qW7+VLR5227ALBG0QcALdIFYir72oq+8u278SI0XpDGC9N4J0q8UI1vP4ufNRX/gmR8O9rll1/efP7UZZddFlZXV8Oll14a9uzZEy655BKAbSGe8+K5L54D47kwnhPj+TGeJ1PJl/8RjnQ3X/pru/GcG8+9kz6fLz+Ht53jAaBWij4AaJFfJKaib9q7+lLZF+9GiW/jjRet8W1o8QI2ln7xbWnxgvbKK69sir9U/gFsB+m8F8+B8VwYz4nx/BjPk6nka/tsvmnu5lP0AbDdKfoAoEV+kRgvGlPZN+6uvnjhGS9C48VoKvviRWq8IyUVfp/5zGeai9j4V3njnX6p+EvlH0BtYpGXpMfSeS+eA+O5MJ4T4/kxnifzkm/SZ/NNuptP0QfAdqboA4AW+UViVBZ94+7qy8u+eIEaL1Tj3X2x8IsXr/EiNi/9UvEX72QBqE0s8pL0WDznpfNfKvjifxCJ58h4vkx38rW9Zbftbr6y6CvP323neAColaIPAFqUF4p50Tfprr687IsXqPFCNV6wxsIvXrzGi9h4MRvFC9tU/KXyD6Bm6XwXz32p3MsLvniu3Kjka7ubT9EHAH2KPgBoUV4oxovHYy370t19ZeGX7vLLiz+AmuXnvHgObCv44jnzWEs+RR8A252iDwDGKC8WU9GXyr54kblR2Rc/V2qjwg+gVrHMS8plkwq+9Jl8k0q+VPSl87KSDwAUfQAwVnnBmO4WSUVfKvtS0Teu7Mvv7isLvyRe7AJsB/m5Ly/4UsmXzpttJV9e9KXzcCr5FH0AoOgDgLHKC8Zos2VfeXdffodfKv1S8QewHaTzXl7upfNjXvB1LfmitnM7ANRM0QcAY7RdNEap6Gsr+1LhV5Z9bYVfKv3y4g+gdum8l58Ly4Ivyku+dH4tS75U9LWdq6O2czsA1EzRBwATtF04prtH2sq+je7ui+LFbCr9yuIPYDtI5790PszPkePu4htX8o0r+trO6QBQO0UfAEzQdvEYjSv7UuGXl3154VeWfkm62AWoXds5MJ0f84IvKu/ii6Yp+aK2czoA1E7RBwATtF08JhuVfeMKvyRd2I4r/wBqlJ/78nNifq5su4svmrbki9rO6QBQO0UfAGyg7QIySheaSV74pQvUJF60Tir9ALaj/JyYzpPl+bOt4Evazs1R27kcALYDRR8ATKHtQjIqLzrzsi8pL1qjdEGb5Be7ADUrz39t58j8HKrkA4DpKfoAYAptF5O58gI0XZhOU/oB0F7uReX5te0cnGs7hwPAdqHoA4AptV1Q5sqL0SS/YI3yi1kARou9qO1cGrWde3Nt524A2E4UfQCwSW0Xl7m2i9NceUELsN21nStzbefaXNu5GgC2I0UfAByDtgvNNm0XrABsrO2c2qbtHA0A25WiDwA6arvw3EjbRS3AdtR2jtxI27kYAFD0AcDMtV2UAnDs2s61AMB6ij4AWIC2C1mA7ajtHAkAHBtFHwAAAABUQNEHAAAAABVQ9AEAAABABRR9AAAAAFABRR8AAAAAVEDRBwAAAAAVUPQBAAAAQAUUfQAAAABQAUUfAAAAAFRA0QcAAAAAFVD0AQAAAEAFFH0AAAAAUAFFHwAAAABUQNEHAAAAABVQ9AEAAABABRR9AAAAAFABRR8AAAAAVEDRBwAAAAAVUPQBAAAAQAUUfQAAAABQAUUfAAAAAFRA0QcAAAAAFVD0AQAAAEAFFH0AAAAAUAFFHwAAAABUQNEHAAAAABVQ9AEAAABABRR9AAAAAFABRR8AAAAAVEDRBwAAAAAVUPQBAAAAQAUUfQAAAABQAUUfAAAAAFRA0QcAAAAAFVD0AQAAAEAFFH0AAAAAUAFFHwAAAABUQNEHAAAAABVQ9AEAAABABRR9AAAAAFABRR8AAAAAVEDRBwAAAAAVUPQBAAAAQAUUfQAAAABQAUUfAAAAAFRA0QcAAAAAFVD0AQAAAEAFFH0AAAAAUAFFHwAAAABUQNEHAAAAABVQ9AEAAABABRR9AAAAAFABRR8AAAAAVEDRBwAAAAAVUPQBAAAAQAUUfQAAAABQAUUfAAAAAFRA0QcAAAAAFVD0AQAAAEAFFH0AAAAAUAFFHwAAAABUQNEHAAAAABVQ9AEAAABABRR9AAAAAFABRR8AAAAAVEDRBwAAAAAVUPQBAAAAQAUUfQAAAABQAUUfAAAAAFRA0QcAAAAAFVD0AQAAAEAFFH0AAAAAUAFFHwAAAABUQNEHAAAAABVQ9AEAAABABRR9AAAAAFABRR8AAAAAVEDRBwAAAAAVUPQBAAAAQAUUfQAAAABQAUUfAAAAAFRA0QcAAAAAFVD0AQAAAEAFFH0AAAAAUAFFHwAAAABUQNEHAAAAABVQ9AEAAABABRR9AAAAAFABRR8AAAAAVEDRBwAAAAAVUPQBAAAAQAUUfQAAAABQAUUfAAAAAFRA0QcAAAAAFVD0AQAAAEAFFH0AAAAAUAFFHwAAAABUQNEHAAAAABVQ9AEAAABABRR9AAAAAFABRR8AAAAAVEDRBwAAAAAVUPQBAAAAQAUUfQAAAABQAUUfAAAAAFRA0QcAAAAAFVD0AQAAAEAFFH0AAAAAUAFFHwAAAABUQNEHAAAAABVQ9AEAAABABRR9AAAAAFABRR8AAAAAVEDRBwAAAAAVUPQBAAAAQAUUfQAAAABQAUUfAAAAAFRA0QcAAAAAFVD0AQAAAEAFFH0AAAAAUAFFHwAAAABUQNEHAAAAABVQ9AEAAABABRR9AAAAAFABRR8AAAAAVEDRBwAAAAAVUPQBAAAAQAUUfQAAAABQAUUfAAAAAFRA0QcAAAAAFVD0AQAAAEAFFH0AAAAAUAFFHwAAAABUQNEHAAAAABVQ9AEAAABABRR9AAAAAFABRR8AAAAAVEDRBwAAAAAVUPQBAAAAQAUUfQAAAABQAUUfAAAAAFRA0QcAAAAAFVD0AQAAAEAFFH0AAAAAUAFFHwAAAABUQNEHAAAAABVQ9AEAAABABRR9AAAAAFABRR8AAAAAVEDRBwAAAAAVUPQBAAAAQAUUfQAAAABQAUUfAAAAAFRA0QcAAAAAFVD0AQAAAEAFFH0AAAAAUAFFHwAAAABUQNEHAAAAABVQ9AEAAABABRR9AAAAAFABRR8AAAAAVEDRBwAAAAAVUPQBAAAAQAUUfQAAAABQAUUfAAAAAFRA0QcAAAAAFVD0AQAAAEAFFH0AAAAAUAFFHwAAAABUQNEHAAAAABVQ9AEAAABABRR9AAAAAFABRR8AAAAAVEDRBwAAAAAVUPQBAAAAQAUUfQAAAABQAUUfAAAAAFRA0QcAAAAAFVD0AQAAAEAFFH0AAAAAUAFFHwAAAABUQNEHAAAAABVQ9AEAAABABRR9AAAAAFABRR8AAAAAVEDRBwAAAAAVUPQBAAAAQAUUfQAAAABQAUUfAAAAAFRA0QcAAAAAFVD0AQAAAEAFFH0AAAAAUAFFHwAAAABUQNEHAAAAABVQ9AEAAABABRR9AAAAAFABRR8AAAAAVEDRBwAAAAAVUPQBAAAAQAUUfQAAAABQAUUfAAAAAFRA0QcAAAAAFVD0AQAAAEAFFH0AAAAAUAFFHwAAAABUQNEHAAAAABVQ9AEAAABABRR9AAAAAFABRR8AAAAAVEDRBwAAAAAVUPQBAAAAQAUUfQAAAABQAUUfAAAAAFRA0QcAAAAAFVD0AQAAAEAFFH0AAAAAUAFFHwAAAABUQNEHAAAAABVQ9AEAAABABRR9AAAAAFABRR8AAAAAVEDRBwAAAAAVUPQBAAAAQAUUfQAAAABQAUUfAAAAAFRA0QcAAAAAFVD0AQAAAEAFFH0AAAAAUAFFHwAAAABUQNEHAAAAABVQ9AEAAABABRR9AAAAAFABRR8AAAAAVEDRBwAAAAAVUPQBAAAAQAUUfQAAAABQAUUfAAAAAFRA0QcAAAAAFVD0AQAAAEAFFH0AAAAAUAFFHwAAAABUQNEHAAAAABVQ9AEAAABABRR9AAAAAFABRR8AAAAAVEDRBwAAAAAVUPQBAAAAQAUUfQAAAABQAUUfAAAAAFRA0QcAAAAAFVD0AQAAAEAFFH0AAAAAUAFFHwAAAABUQNEHAAAAABVQ9AEAAABABRR9AAAAAFABRR8AAAAAVEDRBwAAAAAVUPQBAAAAQAUUfQAAAABQAUUfAAAAAFRA0QcAAAAAFVD0AQAAAEAFFH0AAAAAUAFFHwAAAABUQNEHAAAAABVQ9AEAAABABRR9AAAAAFABRR8AAAAAVEDRBwAAAAAVUPQBAAAAQAUUfQAAAABQAUUfAAAAAFRA0QcAAAAAFVD0AQAAAEAFFH0AAAAAUAFFHwAAAABUQNEHAAAAABVQ9AEAAABABRR9AAAAAFABRR8AAAAAVEDRBwAAAAAVUPQBAAAAQAUUfQAAAABQAUUfAAAAAFRA0QcAAAAAFVD0AQAAAEAFFH0AAAAAUAFFHwAAAABUQNEHAAAAABVQ9AEAAABABRR9AAAAAFABRR8AAAAAVEDRBwAAAAAVUPQBAAAAQAUUfQAAAABQAUUfAAAAAFRA0QcAAAAAFVD0AQAAAEAFmqIPAAAAADix7TjvY/sCAAAAAHAi2xf+f9pGvlud41dTAAAAAElFTkSuQmCC" vertex="1" parent="1">
          <mxGeometry x="-8490" y="-3860" width="5939.58" height="4140" as="geometry" />
        </mxCell>
        <mxCell id="7xEv2BU8oEuweqTT3cYV-2" value="" style="html=1;shadow=0;dashed=0;align=center;verticalAlign=middle;shape=mxgraph.arrows2.arrow;dy=0.79;dx=388.48;notch=0;rotation=-60;fillColor=#FF0000;strokeColor=#b85450;" vertex="1" parent="1">
          <mxGeometry x="-7858.75" y="-582.9" width="2078.95" height="530" as="geometry" />
        </mxCell>
        <mxCell id="7xEv2BU8oEuweqTT3cYV-3" value="" style="rounded=0;whiteSpace=wrap;html=1;" vertex="1" parent="1">
          <mxGeometry x="-7950" y="630" width="1230" height="560" as="geometry" />
        </mxCell>
        <mxCell id="7xEv2BU8oEuweqTT3cYV-4" value="&lt;font style=&quot;font-size: 80px;&quot;&gt;Ouverture de la page Création d&#39;une liste que vous devez completé avec le nom de la liste et sa déscription&lt;/font&gt;" style="text;html=1;strokeColor=none;fillColor=none;align=center;verticalAlign=middle;whiteSpace=wrap;rounded=0;" vertex="1" parent="1">
          <mxGeometry x="-7830" y="810" width="970" height="220" as="geometry" />
        </mxCell>
      </root>
    </mxGraphModel>
  </diagram>
  <diagram id="-9xfFSZiVlEVrFo4Upvk" name="Page_Liste_Ajouter_Tableau">
    <mxGraphModel grid="1" page="1" gridSize="10" guides="1" tooltips="1" connect="1" arrows="1" fold="1" pageScale="1" pageWidth="1100" pageHeight="850" math="0" shadow="0">
      <root>
        <mxCell id="0" />
        <mxCell id="1" parent="0" />
        <mxCell id="7_nU6j9wuaKEhVQqq_YW-1" value="" style="shape=image;verticalLabelPosition=bottom;verticalAlign=top;imageAspect=0;aspect=fixed;image=data:image/png,iVBORw0KGgoAAAANSUhEUgAABQMAAANyCAYAAADW6d0EAAAAAXNSR0IArs4c6QAAAARnQU1BAACxjwv8YQUAAAAJcEhZcwAADsMAAA7DAcdvqGQAADoASURBVHhe7d1/kNz1fd9x/dNp/8i/6VgzTTpN2mnGmUm8oxnPlA5J2vEkzkyuUWNO4PgHju0TsYFYTYQkXLXOj4bEIT8AnySwk7iFBFcxbgkoEoHEgtjYsflRRCDETex6nLoYg8DCgI0J+XS/393v3nf3dvf2xAlW93q8Zx7ju/1+9/trd8nuM3uwpRhjjDHGGGOMMcYYYzb9vPu7/0URA40xxhhjjDHGGGOMCZipMfBTn/pU+egff7rcef/flOP3/u8ht//5w+UTD3yhHL9v+PZq3T84dne58SMf6W/FGGOMMcYYY4wxxhgzDzM1Bt549JPl6aefL9987sWuv6s9/40Xy6mvPVf27d1X/uyuu8vfv1iGlleefeZb5eP3/01/K8YYY4wxxhhjjDHGmHmYXbt2TY6Bt3364fLcMy+Up089P/Dss39XPvdX/6e89rWvLT/6+h8tt/zh0fKN5/6+joaDdbr3OXb3Q/2tGGOMMcYYY4wxxhhj5mG2b98+OQbecuf/Kl9/+vnytae+0fdcHf5u+ujN5Tu/67vKtn/9r8sP/fAPl2PH/rQ8++yL5anu8mq96j7VfY0xxhhjjDHGGGOMeTnm3nvvncm8zZYtW6YeV7WsWmej5tJLL50cA2+647P1nwQ/cfKZcrLrySefLU89+Vx504VvL6//599djrzudeWKf/tvysKPby9f+MKX6xhYrVfdp7rvuDm6c0t9AqPOueqv+2u052jZueWcMnbR1GXGGGOMMcYYY4wxJmlmCX3zGAOrY/oH//AfjT22actOd6bGwBuP3l1OPvH18sQTz5SnnvpmOXXqW+XWI3eUf/od31Fu+b7vK2VhoZQf+7Hylu/5nnLl1QfL093ljz/eXffJ58rvd+87fWaJeWKgMcYYY4wxxhhjjFl7ZglmGxnVNnLGRb9xt23ETP0z4Q/ffLwOe/fd+xflyl/7jXLR0kXlone9u1zwEz9R3vWqV5U/+f7vL3e/+tXlw+94Rzly+5+URx75Yjl27OPl43/6iXLDrZ/ob2XSiIHGGGOMMcYYY4wxZmNmlmi20WFtI6cd/9o/b/RM/Q+IfOimPyk3XH9j+bn3f7i89/c+U/ZffUO54YYbygc/9KHyT77t28oPdv1Q19133FFOff3p8qu/+uvlqqsOlGuuOVj+6x/e1d/KpBmOeUN/PrzzaO/GZp2jV5VzVv058UgM/OuVdbZs2dld2pup2x2ERGHRGGOMMcYYY4wx5myeWcLZmYhrGzlNBDxTIbCaXee9dXIMvOLQR8rrf+RHyhsv/o/lD++6vywf+lA5/JEbyzUf+EB5TadT/vG3f3t564UXlm8+/3y9/q5d/6G87nU/XPbtfW+5+vpb6tsmz6QA1769+nlL2XLOVaX+tQ5+7WXjfq5+3Tnm30E4Zf1VvxtjjDHGGGOMMcbkzuCLVWuYpxEDZ5upMXD3rxwsP3TuOeVfff93lX/2nVvLxW9/Q/mfH7upfOxjHyvvf//7y5VXXlk+//nP99cu5frrf7+86lWvKjsWzy+/+sE/6N86aVYHvJUn06RoV622pfS+4NdaNvStwL7mW4AzbVcMNMYYY4wxxhhjjDmb52yPgU0IrP63/fNGz9QY+EsHbyxvefOFZXFxR/mlK36j/MIvXlE++tGPljvuuKN84hOfKJ/73OfKCy+80F+7lD/6o9vKb/7mgfJ7N/xBueK6dcTAOuY1f9r71+WqcyZFu2rZpBi48qfBg5l5u2KgMcYYY4wxxhhjzNk8s4SzMxHXNmLGxb9xt23ETI2B77vmhvLZz/5F+fRnHiyP/NWXyjUfOFSuu+7actNNN9VB8MSJB8pXvvKV8nz/z4RvueVI+ew9D5fPf/7Rsv+q/1bfNnlaAa769t7EPwVu/XsCh+JeO+CNrNfMxO22o2J36m8PioHGGGOMMcYYY4wxZ+vMEs02OqxtxEyLftOWne5MjYF7fu1D5c67PlN+53dvLFf8ym+Viy/5mbJ3757ynve8p/7fK664onz4wx8un/zkJ8vjjz9ePn78znL3p06Uhx/+Ytl75W/3tzJp2jGvF+fqP+U9Z2fZOfINvp07zxn8qe8g4A3dvzt17Gv+HLirXnHSdrvT/vPhnd1lYqAxxhhjjDHGGGPMWTtVMJvFvE3VpqYdV7WsWmejZmoMfPf7fqtce+3vlp/b/d6yuONN5dxzf6Ccd94byrZt28qrX/3q8prXdMprX/vacskll5Tjxz9ePvLfP1qO33VPefDBz5fd7/9gfyvGGGOMMcYYY4wxxph5mKkx8I3veV85fte95VOfPlHu+rN7ywc/eH25bPd7y8/+7N7yy7/86+Wqqw6Vn3zjW8oP/MAPlp1LO8tv/84N5ZN3P1Du/vMHywWX/qf+VowxxhhjjDHGGGOMMfMwU2Pg9TfcUC7+xeVy8c9/oOuacukvHSg/818O1v/beNf7ri5vfM/Pl8WL95ef/s9XlUt+4QPl/He/t1z5m1f3t2KMMcYYY4wxxhhjjJmHmRoDjTHGGGOMMcYYY4wxm2fEQGOMMcYYY4wxxhhjQkYMNMYYY4wxxhhjjDEmZMRAY4wxxhhjjDHGGGNCRgw0xhhjjDHGGGOMMSZkxEBjjDHGGGOMMcYYY0JGDDTGGGOMMcYYY4wxJmTEQGOMMcYYY4wxxhhjQmbXrl1ioDHGGGOMMcYYY4wxCbN9+/ay5cUXXywAAAAAwOZ26aWXli0vvPBCAQAAAAA2tzoGfutb3yoAAAAAwOZW/5nwN7/5zQIAAAAAbG71NwO/8Y1vFAAAAABgc6tj4LPPPlsazzzzSLnu/E7Ztm3bKp3zryuPPPPMYN1Rz9x+eb3e+dc9MnHZ5bdPvv88eeaR68r5nc7QOT9y3fml0zm/XPfIyjmMW2+ta/iXD19b36d9nWbd9qTbx91/Vs1j0/ZyPU5n4nnRXP9O5/Jye/OY9K9Ze1/PPHN7uXzM9Z1Fs71xz/V5NO6a9G5fuQZ/+cf7Znos2o/ZrK/5ST9X6z1y+3Xl8utuX3X/l2p0P+v1ch1npdlXZfSfC83tp3se4zT7m8fnb/u12qj+2Xb5y3Cst1+++jVSebkfHwAAgDOpjoFf//rXyzhP39aLA/tue3rs8lHN+juufXjislm39Up7+uFry47+B9LmmB++dkf3g+KOcu3DK+dQ3VatM3p7Y9x5N9tuX6f1bHvWY5vV2fbYzGL0ejTXstJc93GPw6xeyn1fKc01GHouTnnNzmLW+096jj399G1lX/c6dvbdNnT7RtjI5/WZPM5Kc6yVzo5ry8NP9475tn0rUWwjX58v9XE/k8a9tm7bd/r/fFuP6np3OvvKbf3r33i5Hx8AAIAzqY6BT3c/2Ixz6lj/w/SxU0O3P3Ro3yBGVR/Q9h16aGj9HftWlu8YWdZs69RDh8q+Hf1t7NhXDj20so81t9///Vj/g9uxU6fq7VX36ew71lq2Y2i769Fsr3d8h8pD3X08dKj3gbTZ5qlTD5VD3XPodM+3Fwp6+x7azphr2Gy7OY/KerY9y7Gtx6THuTLusRgcW3/fp04dGzrGSY/tYL0dO3qPVfexO3r93qF9r9rfmGOaRfucBsfb3d6O9nHP+Jwce9x3DD+Go8+3SecxeA6PeY2MvV9r2dDxTVs28npqr1Mff+u51H7ejF6Ptc6hvrZTzmfceu2f9x79i/pxqX6uDB6XGc5lFkP77J97dZzVtpvrN+25/HIdZ6XZ147uc2zwz7T+sVS3VcsG13/Cfgfb6J9j7+dD5Vj/cWw/Z9rrjj5uU/cx5rVwrLtso163lcFj1T6e1mPZrDPp2k96DU0+9v7/06W7nX2t/5vSbK++70Y8Ps15jTwHh7bf/739f9uq3wEAADZSHQO/9rWvlXGeOtoLNXuPPrVy24PVB5od5dCDvduO7q0+tOwtR596arB+9WH5we7vD/Y/ZFX3b2+rt43qw96D5amnHhzexgzbr+43umzl9+59D/WPY+/R+vbTMTjG/ge96rir86m33z+29nmMHstgOxOvYe9+zW3r2fYsx7Ye446xvr3ez/jHov1zczz1Y/vU0bK3+3N17ZvnQHNcg2Xtcxn3vOg/bpOu6Sza16/5uTqm1ecwcmyzHndr+9W67es37Tya8x37GqnvN/56rzq+cdetOteR11O1nUa1rBdFm232f+8fy6yPxdB6085nzHqrfm6dV32MM57LLIb2099u7ziHr8PQufXXezmPs9Lsa8fevUP7r5+D/X+etc9j3H6bbYw+Fs1zZpZ119zHtNfCmOdK+xxn1d5/c9vYY+ifV3Xsg9dqfd81XkPjjr0+19XLGxvy+PSXjXsODrbfP+eXeg0BAACmqWPgk08+WcY5eWRP/QFlz5GTw7efPFGOHDxY9iwu1ss7ncVy8MTJwfqLB0/01jtxsCx2P/xUv7e3deLg4uA+4/Yz6/aP7Kk+MO0pR0429ztS9nT317vPyu2nY+XYj5SDi939LB7sHtPwcbfPY+K1GnN7s+3q9rZZtz3Lsa1Hs/3BcXS3d2JwTac/FiuPZ+96r3ps28+B/uPT2XNk1b6r7TTrVvdf7K5z4jTOpTHYV3Uu7X10f+4d34nBtavOdd3HPfIYVsc7umzceTTnO+41Uv8+w/VuttVYdexrrNssW7Xv9nWa4Rya61n9PO58xq236ueRa7uec1nL0H5GzrX9z472er39r779TB5npbn/4DVdXfPmWFYd3/j9rmxj9eNZ/d6+76p1W9dn6j6mvBaq+7zU122l2V61z7Z622u8VuvfJ72Gxhz76LZG/29KY+V6vYTHZ4bn4LhlzTEAAABslDoGnqw+jIzxxOCDzBMrtz1woPfBb3FPOXDkgf6HlsVy4IEnVq3/xBMrH77ayx440PuQNmrxwAMzbb9ar9r+4APTEyvHV91Wr9PdZ3Pb6WiOoz6mZr/dD5eDY3nigXKgjkkHygPd/bfPdWg7U65hcx6V6prMuu21jq3Z5qzGHWN9+7THonVM9e39Y2ufR72N9nNgzDUa3feRkefG4p7eNWjWX4/m+bGnfdzNtduzp3dup3vc/e00x7nqeTjhPEbPd2g/U65385oZfYwq015Po+u2nzurznnGx6K93tTzmbDe0M8j13Y957KWof20zrta1jw3qsesfQzt5/LLdZyVZl/V/etj6D4H9vSjU/s4pu23vY32Nqv7Vb+3H+/RZe3zm7qPkevQ2MjX7ehjVXmgdW7t86jXbx3TtNfQuGMf3Vbv9+HXcmVDHp9pz8HW9keXtY8DAABgI9Qx8PHHHy/jfPXWy+oPKJfd+tXBbfcv9z48Ld/fu+3Wy6oPLZeVW7/61cH6i8v39+5//3Lvw0/39/a2RrfRtp7tt5dVvzf7q9aZtP1ZDR37V+8vy90Pfu3ttvfV1j6eejtjrmF7281t7fNea9trHVuzzVmNO8bKtMdi5ffFstjdf3Pf0fsMH+ut5bLuz53Lbq2X1cvHXZ/uOd1/63K5rH9eo8c1q+pYqvvX12ZxudxfXbvW9Wpve93H3V9eb3fkeTlYZ8x5jD6H2/uZdr0nPUaV0ftN05x/Z/Gy+ria61Ivm/GxaK837XzGrbfq55Fru55zWcvQflrHVS2b5bn8ch1npdlX+7qN/l4dx7T9trfR/r05n/Z9V6075XnYNu61sLJsY163o49VfVtrv6PHN/NraMyxT1u/WafSvl7Nz6O/r/n4THkOjj4ek44DAABgI9Qx8Kv1B6XVHrul/yHnlscGt93X/bDT3PbYfbf0PlxVH37u6/7eX78KDPc99li97uiy3v2aD0X3DbbZrDd1+637PfZYs+yyckt3X489dl8vclS/99drjqM59vUYPcbBuY05zuY+424bdw1Ht12ZdA3ay5vb1jq25j6zGneMleF9Dj8W7fs1j0F9W3PtL7tl9XOgecy6y5p9tPfd/LzyvBh/XLNqttfeZuWW7gft6rahc1nvcY88BtU2B8/FKecxuGZjXiPTrnf7GKr7tfc/eiztbTbH29bsp32MlVkfi3Hrrfman/TzyLVd77lMM7SfKY9Xe91xt53p46w0+6q212x77HWcst/2NtrbrO43ad2xj9u0fUx5Da+sP7zf9Rrdf+W+1j4G16f/WmgfX/Vzs+9pr6Fx+xosbz0HBuuN2//ItVzz8RlZNvTPjBmPAwAAYCPUMfArX/lKGefRm3fXH3J23/zoym2P3lOuOa+JKeeV3bvPG6zTrH/e7t3lvO6Hmfrna+4Zu63q92adejvN7VO2Xy2/uf9757zd3WXVB6bd5eZHHy33XDO8XvN7s//1evSea+rjGxx//7iqY7r6s83PvX2P3qez++aV28Zdw5FtV6rjnXXb047tmntW7jOrccdY377GY/HoozeX3SPnW9/ePb7dzf26j1NzTOPWH933PaPPi9N8/CqD/Y1cl2afnfOuKfeMXOOZj3v0MRj5fdJ5NPuuXiPVvoaWrXW9W8fX28bwdRza38hj2dYc66TrstZj0V6vfT7NuoNrMma90Z/r/fRfq81zvlo+67lMM7TPkcfn5tY/O+p1Z3lunqHjrDT7qo5v5fW8sp/2cUzab3sb7d/bx9885oN1xzxuU/cx4TW/oa/b/mNVbauter43r9f2a2H4tTr5NTTx2JvHdeT/prTXaV/b03581ngOTvq/bdUyAACAjVTHwEerDzTAGff/bv65VlQYvw4AAADAmVLHwC9/+csFOPP+7//ox8CrPzN2OQAAAMCZVMfAv/3bvy0AAAAAwOZWx8AvfelLBQAAAADY3OoY+MUvfrEAAAAAAJtbHQO/8IUvFAAAAABgc6tj4JNPPlkAAAAAgM2tjoH33ntvAQAAAAA2t+3bt5ct7/216woAADm2bNkCAECg+puBd955ZwEAIEMTA8f92QgAAJuXGAgAEEgMBADIJAYCAAQSAwEAMomBAACBxEAAgExiIABAIDEQACCTGAgAEEgMBADIJAYCAAQSAwEAMomBAACBxEAAgExiIABAIDEQACCTGAgAEEgMBADIJAYCAAQSAwEAMomBAACBxEAAgExiIABAIDEQACCTGAgAEEgMBADIJAYCAAQSAwEAMomBAACBxEAAgExiIABAIDEQACCTGAgAEEgMBADIJAYCAAQSAwEAMomBAACBxEAAgExiIABAIDEQACCTGAgAEEgMBADIVL0HfMc73ykGAgAkEQMBADJV7wHf/LYlMRAAIIkYCACQSQwEAAgkBgIAZBIDAQACiYEAAJnEQACAQGIgAEAmMRAAIJAYCACQqXoPeO6554qBAABJxEAAgEzVe8Dv/d7vFQMBAJKIgQAAmar3gLt27RIDAQCSiIEAAJmq94ALO94mBgIAJBEDAQAyiYEAAIHEQACATHUMPF8MBACIIgYCAGSq3gP+u/N/SgwEAEgiBgIAZBIDAQACiYEAAJmq94A/foEYCAAQRQwEAMgkBgIABBIDAQAy9WLg28VAAIAkYiAAQCYxEAAgkBgIAJCpeg+4/Y1iIABAFDEQ2KyOHFws27ZtK53OYjlw7EBZ7HTK4sETL3ldgM2iFwPfIQYCACQRA4HN6OTJI2VPp1M6iwfLiZMny8kTBycGvvWsC7CZiIEAAIHEQGCzOXnyRDm42Km/6df7tt+ecusD/W/7Le6p/7f6BuCegyfWte64fQGczar3gP/+J8VAAIAoYiCwGU36tl/v914ArMLfkWrZOtYdty+As5UYCAAQSAwENqO1/vT3yJ61Y+C4ddv7ADjbVe8Bf+JN7xQDAQCSiIHAZiQGAqxNDAQACCQGApuRGAiwtuo94BveLAYCAEQRA4HNSAwEWFsvBi6JgQAAScRAYDMSAwHWVr0HPE8MBADIIgYCAGSqY+BbdoqBAABJxEAAgEzVe8BFMRAAIIsYCACQqY6Bb71IDAQASCIGAgBkqt4D7hADAQCyiIEAAJnqGHihGAgAEEUMBADIJAYCAAQSAwEAMlXvAc+/8KfFQACAJGIgAECmOga+TQwEAIgiBgIAZKreA17wtneJgQAAScRAAIBMYiAAQCAxEAAgU/UecPv27WIgAEASMRAAIFP1HvDcc88VAwEAkoiBAACZqveAF198sRgIAJBEDAQAyCQGAgAEEgMBADKJgQAAgcRAAIBMYiAAQCAxEAAgkxgIABBIDAQAyCQGAgAEEgMBADKJgQAAgcRAAIBMYiAAQCAxEAAgkxgIABBIDAQAyCQGAgAEEgMBADKJgQAAgcRAAIBMYiAAQCAxEAAgkxgIABBIDAQAyCQGAgAEEgMBADKJgQAAgcRAAIBMYiAAQCAxEAAgkxgIABBIDAQAyCQGAgAEEgMBADKJgQAAgcRAAIBMYiAAQCAxEAAgkxgIABBIDAQAyCQGAgAEEgMBADKJgQAAgcRAAIBMYiAAQCAxEAAgkxgIABBIDAQAyCQGAgAEEgMBADKJgQAAgcRAAIBMYiAAQCAxEAAgkxgIABBIDAQAyCQGAgAEEgMBADKJgQAAgcRAAIBMYiAAQCAxEAAgkxgIABBIDAQAyCQGAgAEEgMBADKJgQAAgcRAAIBMYiAAQCAxEAAgkxgIABBIDAQAyCQGAgAEEgMBADKJgQAAgcRAAIBMYiAAQCAxEAAgkxgIABBIDAQAyCQGAgAEEgMBADKJgQAAgcRAAIBMYiAAQCAxEAAgkxgIABBIDAQAyCQGAgAEEgMBADKJgQAAgcRAAIBMYiAAQCAxEAAgkxgIABBIDAQAyCQGAgAEEgMBADKJgQAAgcRAAIBMYiAAQCAxEAAgkxgIABBIDAQAyCQGAgAEEgMBADKJgQAAgcRAAIBMYiAAQCAxEAAgkxgIABBIDAQAyCQGAgAEEgMBADKJgQAAgcRAAIBMYiAAQCAxEAAgkxgIABBIDAQAyCQGAgAEEgOBzerIwcWybdu20ukslgPHDpTFTqcsHjzxktcF2CzEQACAQGIgsBmdPHmk7Ol0SmfxYDlx8mQ5eeLgxMC3nnUBNhMxEAAgkBgIbDYnT54oBxc79Tf9et/221NufaD/bb/FPfX/Vt8A3HPwxLrWHbcvgLOZGAgAEEgMBDajSd/26/3eC4BV+DtSLVvHuuP2BXC2EgMBAAKJgcBmtNaf/h7Zs3YMHLduex8AZzsxEAAgkBgIbEZiIMDaxEAAgEBiILAZiYEAaxMDAQACiYHAZiQGAqxNDAQACCQGApuRGAiwNjEQACCQGAgAkEkMBAAIJAYCAGQSAwEAAomBAACZxEAAgEBiIABAJjEQACCQGAgAkEkMBAAIJAYCAGQSAwEAAomBAACZxEAAgEBiIABAJjEQACCQGAgAkEkMBAAIJAYCAGQSAwEAAomBAACZxEAAgEBiIABAJjEQACCQGAgAkEkMBAAIJAYCAGQSAwEAAomBAACZxEAAgEBiIABAJjEQACCQGAgAkEkMBAAIJAYCAGQSAwEAAomBAACZxEAAgEBiIABAJjEQACCQGAgAkEkMBAAIJAYCAGQSAwEAAomBAACZxEAAgEBiIABAJjEQACCQGAgAkEkMBAAIJAYCAGQSAwEAAomBAACZxEAAgEBiIABAJjEQACCQGAgAkEkMBAAIJAYCAGQSAwEAAomBAACZxEAAgEBiIABAJjEQACCQGAgAkEkMBAAIJAYCAGQSAwEAAomBAACZxEAAgEBiIABAJjEQACCQGAgAkEkMBAAI1MTA6n8BAMghBgIABGreCFb/O245AACbjxgIABBKDAQAyCMGAgCEEgMBAPKIgQAAocRAAIA8YiAAQCgxEAAgjxgIABBKDAQAyCMGAgCEEgMBAPKIgQAAocRAAIA8YiAAQCgxEAAgjxgIABBKDAQAyCMGAgCEEgMBAPKIgQAAocRAAIA8YiAAQCgxEAAgT/MecOvWrWIgAEASMRAAIE/zHtA3AwEAwoiBAAB5xEAAgFBiIABAHjEQACCUGAgAkEcMBAAIJQYCAOQRAwEAQomBAAB5xEAAgFBiIABAHjEQACCUGAgAkEcMBAAIJQYCAOQRAwEAQomBAAB5xEAAgFBiIABAHjEQACCUGAgAkEcMBAAIJQYCAOQRAwEAQomBAAB5xEAAgFBiIABAHjEQACCUGAgAkEcMBAAIJQYCAOQRAwEAQomBAAB5xEAAgFBiIABAHjEQACCUGAgAkEcMBAAIJQYCAOQRAwEAQomBAAB5xEAAgFBiIABAHjEQACCUGAjMq+OH95eFTqd0FvaXw8ePj12nsrzUXaezVJbHrDNt2fHjh7vLF8q2bdtqnYWFsn/58Kr1ZnV4eX9Z2r88dhnAvBEDAQBCiYHAvDq8vxfqOp2Fsv/wxsbAKgTuX+iFxuXutusw2N3fWvua5Pjx5bJUhcslMRA4O4iBAAChxEBgHg1i3dLS2Mg2CIUL3eUjwW/assbx5aV6naXlyeHv8P6l+puJTZBc2t/71uAg/C0s1Mtf85o3laXX99br7bf3Tcbqm41L3XNojuV0IiPAmSIGAgCEEgOBedT8ifDC/upPeYeDXnvZIMz1l09b1t5+FQynfQuwt52V5e1jGLfd0W8GDh/H6nMAeKWJgQAAocRAYB61Y93ot/hGQ147tE1b1mx72u1tvT8drr7dN/znyqPhr7fu8G2jxzHLNxEBXk5iIABAKDEQmDftf59f/ee2a4S23u/jY2B7WbP9cdsY1Xyzr/7z3uXmm33ri4FV/BtVfVOwuQ/AK0kMBAAIJQYC86YJcaMhbZZv/01bNrSPNb6pN207p/PNQIB5IwYCAIQSA4F503yrrh3q2rdN+/cCTlvW3kf724ft/5pws4/h/TXbmf2bge3jqH4XB4F5IwYCAIQSA4F5Moh0IwFv8Ge7I3+Ge7r/NeFKva+l3rq99RfqPwkeLGv+S8Cdhe52WnFwTAysDPbbhMnlkf8acStuArzSxEAAgFBiIABAHjEQACCUGAgAkEcMBAAIJQYCAOQRAwEAQomBAAB5xEAAgFBiIABAHjEQACCUGAgAkEcMBAAIJQYCAOQRAwEAQomBAAB5xEAAgFBiIABAHjEQACCUGAgAkEcMBAAIJQYCAOQRAwEAQomBAAB5xEAAgFBiIABAHjEQACCUGAgAkEcMBAAIJQYCAOQRAwEAQomBAAB5xEAAgFBiIABAHjEQACCUGAgAkEcMBAAIJQYCAOQRAwEAQomBAAB5xEAAgFBiIABAHjEQACCUGAgAkEcMBAAIJQYCAOQRAwEAQomBAAB5xEAAgFBiIABAHjEQACCUGAgAkEcMBAAIJQYCAOQRAwEAQomBAAB5xEAAgFBiIABAHjEQACCUGAgAkEcMBAAIJQYCAOQRAwEAQomBAAB5xEAAgFBiIABAHjEQACCUGAgAkEcMBAAIJQYCAOQRAwEAQomBAAB5xEAAgFDtGAgAQA4xEAAgUPNG8MknnwQAIIgYCAAQSAwEAMgkBgIABBIDAQAyiYEAAIHEQACATGIgAEAgMRAAIJMYCAAQSAwEAMgkBgIABBIDAQAyiYEAAIHEQACATGIgAEAgMRAAIJMYCAAQSAwEAMgkBgIABBIDAQAyiYEAAIHEQACATGIgAEAgMRAAIJMYCAAQSAwEAMgkBgIABBIDAQAyiYEAAIHEQACATGIgAEAgMRAAIJMYCAAQSAwEAMgkBgIABBIDAQAyiYEAAIHEQACATGIgAEAgMRAAIJMYCAAQSAwEAMhUvQfcunWrGAgAkEQMBADI5JuBAACBxEAAgExiIABAIDEQACCTGAgAEEgMBADIJAYCAAQSAwEAMomBAACBxEAAgExiIABAIDEQACCTGAgAEEgMBADIJAYCAAQSAwEAMomBAACBxEAAgExiIABAIDEQACCTGAgAEEgMBADIJAYCAAQSAwEAMomBAACBxEAAgExiIABAIDEQACCTGAgAEEgMBADIJAYCAAQSAwEAMomBAACBxEAAgExiIABAIDEQACCTGAgAEEgMBADIJAYCAAQSAwEAMomBAACBxEAAgExiIABAIDEQACCTGAgAEEgMBADIJAYCAAQSAwEAMomBAACBxEAAgExiIABAIDEQACCTGAgAEEgMBADIJAYCAAQSAwEAMomBAACBxEAAgExiIABAIDEQACCTGAgAEEgMBADIJAYCAAQSAwEAMomBAACBxEAAgExiIABAIDEQACCTGAgAEEgMBADIJAYCAAQSAwEAMomBAACBxEAAgExiIABAIDEQACCTGAgAEEgMBADIJAYCAAQSAwEAMomBAACBxEAAgExiIABAIDEQACCTGAgAEEgMBADIJAYCAAQSAwEAMomBAACBxEAAgExiIABAIDEQACCTGAgAEEgMBADIJAYCAAQSAwEAMomBAACBxEAAgExiIABAIDEQACCTGAgAEEgMBADIJAYCAAQSAwEAMomBAACBxEAAgExiIABAIDEQACCTGAgAEEgMBADIJAYCAAQSAwEAMomBAACBxEAAgExiIABAIDEQACCTGAgAEEgMBADIJAYCAAQSAwEAMomBAACBxEAAgExiIABAIDEQACCTGAgAEEgMBADIJAYCAAQSAwEAMomBAACBxEAAgExiIABAIDEQACCTGAgAEEgMBADIJAYCAAQSAwEAMomBAACBxEAAgExiIABAIDEQACCTGAgAEEgMBADIJAYCAAQSAwEAMomBAACBxEAAgExiIABAIDEQACCTGAgAEEgMBADIJAYCAAQSAwEAMomBAACBxEAAgExiIABAIDEQACCTGAgAEEgMBADIJAYCAAQSAwEAMomBAACBxEAAgExiIABAIDEQACCTGAgAEEgMBADIJAYCAAQSAwEAMomBAACBxEAAgExiIABAIDEQACCTGAgAEEgMBADIJAYCAAQSAwEAMomBAACBxEAAgExiIABAIDEQACCTGAgAEEgMBADIJAYCAAQSAwEAMomBAACBxEAAgExiIABAIDEQACCTGAgAEEgMBADIJAYCAAQSAwEAMomBAACBxEAAgExiIABAIDEQACCTGAgAEEgMBADIJAYCAAQSAwEAMomBAACBxEAAgExiIABAIDEQACCTGAgAEEgMBADIJAYCAAQSAwEAMomBAACBxEAAgExiIABAIDEQACCTGAgAEEgMBADIJAYCAAQSAwEAMomBAACBxEAAgExiIABAIDEQACCTGAgAEEgMBADIJAYCAAQSAwEAMomBAACBxEAAgExiIABAIDEQACCTGAgAEEgMBADIJAYCAAQSAwEAMomBAACBxEAAgExiIABAIDEQACCTGAgAEEgMBADIJAYCAAQSAwEAMomBAACBxEAAgExiIABAIDEQACCTGAgAEEgMBADIJAYCAAQSAwEAMomBAACBxEAAgExiIABAIDEQACCTGAgAEEgMBADIJAYCAAQSAwEAMlXvAbdu3SoGAgAkEQMBADL5ZiAAQCAxEAAgkxgIABBIDAQAyCQGAgAEEgMBADKJgQAAgcRAAIBMYiAAQCAxEAAgkxgIzJ0bbrt3Uxp3rgCvFDEQACCTGAjMnc0YzsRAYN6IgQAAmcRAYO6IgQBnnhgIAJBJDATmjhgIcOaJgQAAmcRAYO6IgQBnnhgIAJBJDATmTjucHT+8vyx0OqWzsL8cPn58aL225aXuOp2lsjxmnWnLZnF8eals27atLC0fH/p53Lpth5f3l6X9y/XPYiAwb8RAAIBMYiAwd9rh7PD+hTq+dToLZf/hVz4Gjls+zvHjy2WpiphLYiAwn8RAAIBMYiAwd5pwdvz44bJ/oQpqS0NhrTEIhQvd5SPBb9qy4W0s1d88bILj0v7Dq9aZ9s3AVfev1ukfd3VbffvCfjEQmDtiIABAJjEQmDuDGNj/E+GF/YdXfbuvvWzwLbz+8mnL2vvprbfyjcNJ3yCcFAMH++lHyvb9fTMQmHdiIABAJjEQmDtNOKu+3df8efDqb+StLKt+b4e4acuq39uqb/Et799flhYm/znyWjGwuk8VBA+37icGAvNODAQAyCQGAnOnCmeDPxHu/4dDRuPaaPDr/T4+BraXNfuoDGLewlLZv9x8+3D2GFgtW+5uu/q9sbA0/njFQGDeiIEAAJnEQGDu1DGwH+raoa0yy7f/pi1r72fW9abFwHr58cO9/3Jw/98TWK8nBgJzTgwEAMgkBgJzpwpnVagbjW7t2wb/vr6X8O8MHN5es97s3wxsfq7209tea5kYCMw5MRAAIJMYCMydKpzVfyI8EvAGf9bb+lPhKr6d7n9NuP1f/a0i4NLS6gBZrzflm4GHu78332Cst9EPg/Wy5hi6+xYDgXkjBgIAZBIDgbmzGcOZGAjMGzEQACCTGAjMHTEQ4MwTAwEAMomBwNwRAwHOPDEQACCTGAjMnSqcbUbjzhXglSIGAgBkEgMBAAKJgQAAmcRAAIBAYiAAQCYxEAAgkBgIAJBJDAQACCQGAgBkEgMBAAKJgQAAmcRAAIBAYiAAQCYxEAAgkBgIAJBJDAQACCQGAgBkEgMBAAKJgQAAmcRAAIBAYiAAQCYxEAAgkBgIAJBJDAQACCQGAgBkEgMBAAKJgQAAmcRAAIBAYiAAQCYxEAAgkBgIAJBJDAQACCQGAgBkEgMBAAKJgQAAmcRAAIBAYiAAQCYxEAAgkBgIAJBJDAQACCQGAgBkEgMBAAKJgQAAmcRAAIBAYiAAQCYxEAAgkBgIAJBJDAQACCQGAgBkqt4Dbt26VQwEAEgiBgIAZPLNQACAQGIgAEAmMRAAIJAYCACQSQwEAAgkBgIAZBIDAQACiYEAAJnEQACAQGIgAEAmMRAAIJAYCACQSQwEAAgkBgIAZBIDAQACiYEAAJnEQACAQGIgAEAmMRAAIJAYCACQSQwEAAgkBgIAZBIDAQACiYEAAJnEQACAQGIgAEAmMRAAIJAYCACQSQwEAAgkBgIAZBIDAQACiYEAAJnEQACAQGIgAEAmMRAAIJAYCACQSQwEAAgkBgIAZBIDAQACiYEAAJnEQACAQGIgAEAmMRAAIJAYCACQSQwEAAgkBgIAZBIDAQACiYEAAJnEQACAQGIgAECm6j3g1q1bxUAAgCRiIABAJt8MBAAIJAYCAGQSAwEAAomBAACZxEAAgEBiIABAJjEQACCQGAgAkEkMBAAIJAYCAGQSAwEAAomBAACZxEAAgEBiIABAJjEQACCQGAgAkEkMBAAIJAYCAGQSAwEAAomBAACZxEAAgEBiIABAJjEQACCQGAgAkEkMBAAIJAYCAGQSAwEAAomBAACZxEAAgEBiIABAJjEQACCQGAgAkEkMBAAIJAYCAGQSAwEAAomBAACZxEAAgEBiIABAJjEQACCQGAgAkEkMBAAIJAYCAGQSAwEAAomBAACZxEAAgEBiIABAJjEQACCQGAgAkEkMBAAIJAYCAGQSAwEAAomBAACZxEAAgEBiIABAJjEQACCQGAgAkEkMBAAIJAYCAGQSAwEAAomBAACZxEAAgEBiIABAJjEQACCQGAgAkEkMBAAIJAYCAGQSAwEAAomBAACZxEAAgEBiIABAJjEQACCQGAgAkEkMBAAIJAYCAGQSAwEAAomBAACZxEAAgEBiIABAJjEQACCQGAgAkEkMBAAIJAYCAGQSAwEAAomBAACZxEAAgEBiIABAJjEQACCQGAgAkEkMBAAIJAYCAGQSAwEAAomBAACZxEAAgEBiIABAJjEQACCQGAgAkEkMBAAIJAYCAGQSAwEAAomBAACZxEAAgEBiIABAJjEQACCQGAgAkEkMBAAIJAYCAGQSAwEAAomBAACZxEAAgEBiIABAJjEQACCQGAgAkEkMBAAIJAYCAGQSAwEAAomBAACZxEAAgEBiIABAJjEQACCQGAgAkEkMBAAIJAYCAGQSAwEAAomBAACZxEAAgEBiIABAJjEQACCQGAgAkEkMBAAIJAYCAGQSAwEAAomBAACZxEAAgEBiIABAJjEQACCQGAgAkEkMBAAIJAYCAGQSAwEAAomBAACZxEAAgEBiIABAJjEQACCQGAgAkEkMBAAIJAYCAGQSAwEAAomBAACZxEAAgEBiIABAJjEQACCQGAgAkEkMBAAIJAYCAGQSAwEAAomBAACZxEAAgEBiIABAJjEQACCQGAgAkEkMBAAIJAYCAGQSAwEAAomBAACZxEAAgEBiIABAJjEQACCQGAgAkEkMBAAIJAYCAGQSAwEAAomBAACZxEAAgEBiIABAJjEQACCQGAgAkEkMBAAIJAYCAGQSAwEAAomBAACZxEAAgEBiIABAJjEQACCQGAgAkEkMBAAIJAYCAGQSAwEAAomBAACZxEAAgEBiIABAJjEQACCQGAgAkEkMBAAIJAYCAGQSAwEAAomBAACZxEAAgEBiIABAJjEQACCQGAgAkEkMBAAIJAYCAGQSAwEAAomBAACZxEAAgEBiIABAJjEQACCQGAgAkEkMBAAIJAYCAGQSAwEAAomBAACZxEAAgEBiIABAJjEQACCQGAgAkEkMBAAIJAYCAGQSAwEAAomBAACZxEAAgEBiIABAJjEQACCQGAgAkEkMBAAIJAYCAGQSAwEAAomBAACZxEAAgEBiIABAJjEQACCQGAgAkEkMBAAIJAYCAGQSAwEAAomBAACZxEAAgEBiIABAJjEQACCQGAgAkEkMBAAIJAYCAGQSAwEAAomBAACZxEAAgEBiIABAJjEQACCQGAgAkEkMBAAIJAYCAGQSAwEAAomBAACZxEAAgEBiIABAJjEQACCQGAgAkEkMBAAIJAYCAGQSAwEAAomBAACZxEAAgEBiIABAJjEQACCQGAgAkEkMBAAIJAYCAGQSAwEAAomBAACZxEAAgEBiIABAJjEQACCQGAgAkKl6D7hr1y4xEAAgiRgIAJDJNwMBAAKJgQAAmcRAAIBAYiAAQCYxEAAgkBgIAJBJDAQACCQGAgBkEgMBAAKJgQAAmcRAAIBAYiAAQCYxEAAgkBgIAJBJDAQACCQGAgBkEgMBAAKJgQAAmcRAAIBAYiAAQCYxEAAgkBgIAJBJDAQACCQGAgBkEgMBAAKJgQAAmcRAAIBAYiAAQCYxEAAgkBgIAJBJDAQACCQGAgBkqt4D7ty5UwwEAEgiBgIAZKreA+7atUsMBABIIgYCAGSq3gNe8LZ3iYEAAEnEQACATGIgAEAgMRAAIJMYCAAQSAwEAMgkBgIABBIDAQAyiYEAAIHEQACATGIgAEAgMRAAIFP1HvBfvu0iMRAAIIkYCACQqXoPuHXrVjEQACCJGAgAkKl6D/iGN7xBDAQASCIGAgBkEgMBAAKJgQAAmcRAAIBAYiAAQCYxEAAgkBgIAJCpjoEXvFUMBABIIgYCAGSq3gMuvvFCMRAAIIkYCACQqXoPuONNPyUGAgAkEQMBADJV7wEvePPbxUAAgCRiIABApuo94E++9R1iIABAEjEQACBT9R7wzRcuiYEAAEnEQACATNV7wLf81E4xEAAgiRgIAJCpeg944dsvEgMBAJKIgQAAmar3gG9fercYCACQRAwEAMgkBgIABBIDAQAyiYEAAIHEQACATGIgAEAgMRAAIJMYCAAQSAwEAMgkBgIABBIDAQAyiYEAAIHEQACATGIgAEAgMRAAIJMYCAAQSAwEAMgkBgIABBIDAQAyiYEAAIHEQACATGIgAEAgMRAAIJMYCAAQSAwEAMgkBgIABBIDAQAyiYEAAIHEQACATGIgAEAgMRAAIJMYCAAQSAwEAMgkBgIABBIDAQAyiYEAAIHEQACATGIgAEAgMRAAIJMYCAAQSAwEAMgkBgIABBIDAQAyiYEAAIHEQACATGIgAEAgMRAAIJMYCAAQSAwEAMgkBgIABBIDAQAyiYEAAIHEQACATGIgAEAgMRAAIJMYCAAQSAwEAMgkBgIABBIDAQAyiYEAAIHEQACATGIgAEAgMRAAIJMYCAAQSAwEAMgkBgIABBIDAQAyiYEAAIHEQACATHUM3CkGAgBEEQMBADKJgQAAgcRAAIBMYiAAQCAxEAAgkxgIABBIDAQAyCQGAgAEEgMBADKJgQAAgcRAAIBMYiAAQCAxEAAgkxgIABBIDAQAyFS9B3yHGAgAkEUMBADIJAYCAAQSAwEAMomBAACBxEAAgExiIABAIDEQACCTGAgAEEgMBADIJAYCAAQSAwEAMomBAACBxEAAgEy9GHixGAgAkEQMBADIJAYCAAQSAwEAMomBAACBxEAAgExiIABAIDEQACCTGAgAEEgMBADIJAYCAAQSAwEAMomBAACBxEAAgExiIABAIDEQACCTGAgAEEgMBADIJAYCAAQSAwEAMomBAACBxEAAgExiIABAIDEQACCTGAgAEEgMBADIJAYCAAQSAwEAMomBAACBxEAAgExiIABAIDEQACCTGAgAEEgMBADIJAYCAAQSAwEAMomBAACBxEAAgExiIABAIDEQACCTGAgAEEgMBADIJAYCAAQSAwEAMomBAACBxEAAgExiIABAIDEQACCTGAgAEEgMBADIJAYCAAQSAwEAMomBAACBxEAAgExiIABAIDEQACCTGAgAEEgMBADIJAYCAAQSAwEAMomBAACBxEAAgExiIABAIDEQACCTGAgAEEgMBADIJAYCAAQSAwEAMomBAACBxEAAgExiIABAIDEQACCTGAgAEEgMBADIJAYCAAQSAwEAMomBAACBxEAAgExiIABAIDEQACCTGAgAEEgMBADIJAYCAAQSAwEAMomBAACBxEAAgExiIABAIDEQACCTGAgAEEgMBADIJAYCAAQSAwEAMomBAACBxEAAgExiIABAIDEQACCTGAgAEEgMBADIJAYCAAQSAwEAMomBAACBxEAAgExiIABAIDEQACCTGAgAEEgMBADIJAYCAAQSAwEAMomBAACBxEAAgExiIABAIDEQACCTGAgAEEgMBADIJAYCAAQSAwEAMomBAACBxEAAgExiIABAIDEQACCTGAgAEEgMBADIJAYCAAQSAwEAMomBAACBxEAAgExiIABAIDEQACCTGAgAEEgMBADIJAYCAAQSAwEAMomBAACBxEAAgExiIABAIDEQACCTGAgAEEgMBADIJAYCAAQSAwEAMomBAACBxEAAgExiIABAIDEQACCTGAgAEEgMBADIJAYCAAQSAwEAMomBAACBxEAAgExiIABAIDEQACCTGAgAEEgMBADIJAYCAAQSAwEAMomBAACBxEAAgExiIABAIDEQACCTGAgAEEgMBADIJAYCAAQSAwEAMomBAACBxEAAgExiIABAIDEQACCTGAgAEEgMBADIJAYCAAQSAwEAMomBAACBxEAAgExiIABAIDEQACCTGAgAEEgMBADIJAYCAAQSAwEAMomBAACBxEAAgExiIABAIDEQACCTGAgAEEgMBADIJAYCAAQSAwEAMomBAACBxEAAgExiIABAIDEQACBTHQMvEgMBAKKIgQAAmcRAAIBAYiAAQCYxEAAgkBgIAJCpeg/4TjEQACCLGAgAkEkMBAAIJAYCAGQSAwEAAomBAACZxEAAgEBiIABAJjEQACCQGAgAkEkMBAAIJAYCAGQSAwEAAomBAACZxEAAgEBiIABAJjEQACCQGAgAkEkMBAAIJAYCAGQSAwEAAomBAACZxEAAgEBiIABAJjEQACCQGAgAkEkMBAAIJAYCAGQSAwEAAomBAACZxEAAgEBiIABAJjEQACCQGAgAkEkMBAAIJAYCAGQSAwEAAomBAACZxEAAgEBiIABAJjEQACCQGAgAkEkMBAAIJAYCAGQSAwEAAomBAACZxEAAgEBiIABAJjEQACCQGAgAkEkMBAAIJAYCAGQSAwEAAomBAACZxEAAgEBiIABApl4MvEQMBABIIgYCAGQSAwEAAomBAACZejHwkvL/AXlcjdGf3gz6AAAAAElFTkSuQmCC" vertex="1" parent="1">
          <mxGeometry x="-7320" y="-2280" width="4014.81" height="2760" as="geometry" />
        </mxCell>
        <mxCell id="MP_hsQ9C_h5D58ExtyMy-1" value="" style="html=1;shadow=0;dashed=0;align=center;verticalAlign=middle;shape=mxgraph.arrows2.arrow;dy=0.79;dx=388.48;notch=0;rotation=-75;fillColor=#FF0000;strokeColor=#b85450;" vertex="1" parent="1">
          <mxGeometry x="-5820" y="-660" width="2078.95" height="530" as="geometry" />
        </mxCell>
        <mxCell id="MP_hsQ9C_h5D58ExtyMy-2" value="" style="rounded=0;whiteSpace=wrap;html=1;" vertex="1" parent="1">
          <mxGeometry x="-5872.6" y="640" width="1262.6" height="530" as="geometry" />
        </mxCell>
        <mxCell id="MP_hsQ9C_h5D58ExtyMy-3" value="&lt;h1 style=&quot;font-size: 70px;&quot;&gt;&lt;font style=&quot;font-size: 70px;&quot;&gt;Cliquez sur le bouton &quot;Add Carte&quot; pour ouvrir la vue créer carte pour créer une carte qui sera ajouter une carte à la liste actuelle&lt;/font&gt;&lt;span style=&quot;&quot;&gt;&amp;nbsp;&lt;/span&gt;&lt;/h1&gt;" style="text;html=1;strokeColor=none;fillColor=none;spacing=5;spacingTop=-20;whiteSpace=wrap;overflow=hidden;rounded=0;align=center;" vertex="1" parent="1">
          <mxGeometry x="-5796.3" y="680" width="1110" height="490" as="geometry" />
        </mxCell>
      </root>
    </mxGraphModel>
  </diagram>
  <diagram id="WgB7xY0gyepSuxhaIQhI" name="Page_Creer/Add_Carte_liste">
    <mxGraphModel grid="1" page="1" gridSize="10" guides="1" tooltips="1" connect="1" arrows="1" fold="1" pageScale="1" pageWidth="1100" pageHeight="850" math="0" shadow="0">
      <root>
        <mxCell id="0" />
        <mxCell id="1" parent="0" />
        <mxCell id="dxZmDLnHU9Vv1hDMK67f-1" value="" style="shape=image;verticalLabelPosition=bottom;verticalAlign=top;imageAspect=0;aspect=fixed;image=data:image/png,iVBORw0KGgoAAAANSUhEUgAABP8AAAN0CAYAAADLTo3OAAAAAXNSR0IArs4c6QAAAARnQU1BAACxjwv8YQUAAAAJcEhZcwAADsMAAA7DAcdvqGQAAGqgSURBVHhe7d1rjGR3feD9efPoeV7kbVYgbbLa7L6IeJG4NRLSEuWyG5QQKaONEtqEZbPoSZ4xCyaQgN2+ZDaEmwETgm3GbQ+QADbYDLYT29OxiXEYDLYB35g2GHM1BEIM2GPHxtxCyP+p/6n6V586/a/T1TX/7tPd5/OTPvJ01alzq+5O6suprn3BGGOMMcYYY4wxxhizJ0f8M8YYY4wxxhhjjDFmj474Z4wxxhhjjDHGGGPMHh3xzxhjjDHGGGOMMcaYPTrinzHGGGOMMcYYY4wxe3Ra49+dd94Zrvm7j4eP3PelcPyeL0y45RMPhI+deCgcv3fy9rjsB26+I1x19dWjtRhjjDHGGGOMMcYYY7qY1vh31U23hyef/GH4wfd+PPCvlR9+/8fhiX/+Xjj3nHPDR2+7I/zbj8PE/dF3n/qX8OH7vjRaizHGGGOMMcYYY4wxpotpjX8f/PgD4XtP/Sg8+cQPx7773X8Nn//cV8Izn/nM8BvP+Y1w4w03he9/79+qSDheZvCYm+/4zGgtxhhjjDHGGGOMMcaYLqY1/t34kU+F7zz5w/DPj39/5HtV6Lv2muvDT//Mz4T9v/AL4Vd+7dfCzTf/ffjud38cHh/cH5eLj4mPNcYYY4wxxhhjjDFmO+aRRx6ZyU6bI0eOtO5XvC8uM++0xr9rP3RX9RbfR08+FU4OPPbYd8Pjj30vvOCFvx+e85//U1h59rPDBf/tv4YD//23wkMPfaOKf3G5+Jj42Nw8dOuRaoebrrnvsdES9Xko3HrkmpC9q/U+Y4wxxhhjjDHGGNOnmSXs7cT4F/fpHe98Z3bf2u6bdTb4m393hJOPfic8+uhT4fHHfxCeeOJfwrGVD4X/8FM/FW78uZ8L4cCBEH7zN8Pv/ezPhjdfvByeHNz/yCODZR/7Xnjf4LHtM0u8E/+MMcYYY4wxxhhjzMYzSyA7lYi2lZOLfLnb5pnW+Peu649XIe/eez4d3nzhW8KLDr4ovOjFLwm/+9u/HV78tKeFW3/+58Mdz3hGeNcf/EFYueXW8OCDXw033/zh8OG//1i48tjHRmuZNuKfMcYYY4wxxhhjjCkzs0SyUw1pWzn12Ff/96lOa/x7x7W3hiuvuCq88k3vCue/95Ph0MVXhiuvvDK8/R3vCP/+J34i/PLArwzc8aEPhSe+82R44xv/PFx00aXhkkuWw7tvuG20lmkzGe8m3g5860PDG9MyD90Xrln39uBG/HtsbZkjR24d3Duc1vWOw6GQaIwxxhhjjDHGGLObZ5ZQViKmbeWk6Fcq/MVpjX8XXHZ1eM6v/3p4/pl/Em647b5w+LJ3hKNXXxUuedvbwmkLC+Hf/eRPhv/1wheGH/zwh9Xyf/RHfxye/exfC+eec364+Iobq9umz7TgVr89/vtIOHLNfaH6sgp89fty/45f3pr5G4Ity6/72hhjjDHGGGOMMaa/M76QagM7acS//LTGv7PesBx+5RefFf7Lz/9M+I8//fRw5u//Tvib664N1113XXjTm94U3vzmN4cvf/nLo6VDuOKK94WnPe1p4fTF54U3vv0Do1unzfpgt/bNMy3SxcWOhOEFfLX7Jq76G0lX+c20XvHPGGOMMcYYY4wxZjfPbo9/KfzF/9b/farTGv9eu3xV+L3/+cKwuHh6eO0Fbwmvfs0F4Zprrgkf+tCHwsc+9rHw+c9/PvzoRz8aLR3C3/7tB8Nf/MWl4b1XfiBccGQT8a+Kd+mtuo+F+wbbyEe6eN+0+Lf2Vt/xzLxe8c8YY4wxxhhjjDFmN88soaxETNuKycW+3G3zTGv8e9UlV4a77vp0+Pgn7w8Pfu5r4ZK3XRaOHLk8XHvttVUAXF09Eb75zW+GH47e9nvjjSvhrrsfCF/+8sPh0EXvqW6bPrXgFq/Om/rW3trf+ZuIefVg11guzdT11iPiYKqrA8U/Y4wxxhhjjDHGmN06s0SyUw1pWzFtka/tvlmnNf4tXfiO8JHbPhn+8q+uChe84a3hzJe+LJxzzlJ4+ctfXv33ggsuCO9617vC7bffXu3Eh49/JNxx52p44IGvhnPe/M7RWqZNPd4NY1z11txrbg23Nq7Qu/XWa0Zv260Fu4nHD6aKe+ntvQPVgtPWO5j624FvHdwn/hljjDHGGGOMMcbs2oltahY7bWKbatuveF9cZt5pjX8vedVbw+WX/1V45Vnnh8XTXxB+8Rd/KTz3ub8T9u/fH57xjGeE005bCM985jPDS1/60nD8+IfD1e+/Jhy/7e5w//1fDme96e2jtRhjjDHGGGOMMcYYY7qY1vj3/Je/Khy/7Z5w58dXw20fvSe8/e1XhLPPOj+84hXnhNe//s/DRRddFv7H838v/NIv/XI44+AZ4Z1/eWW4/Y4T4Y5P3B9+9w//z2gtxhhjjDHGGGOMMcaYLqY1/l1x5ZXhzNccDmf+2dsGLgl/+NpLw8tet1z9N3nxqy4Oz3/5n4XFMw+F//2nF4WXvvpt4XkvOT+8+S8uHq3FGGOMMcYYY4wxxhjTxbTGP2OMMcYYY4wxxhhjzO4d8c8YY4wxxhhjjDHGmD064p8xxhhjjDHGGGOMMXt0xD9jjDHGGGOMMcYYY/boiH/GGGOMMcYYY4wxxuzREf+MMcYYY4wxxhhjjNmjI/4ZY4wxxhhjjDHGGLNHR/wzxhhjjDHGGGOMMWaPjvhnjDHGGGOMMcYYY8wenX0//vGPAwAAAACw9+z70Y9+FAAAAACAvWffv/zLvwQAAAAAYO/Z94Mf/CAAAAAAAHvPvu9///sBAAAAANh79n33u98NdU899WA48ryFsH///nUWnnckPPjUUxPL1z11y3nVcs878uDU+867Zfrjd5KnHjwSnrewMHHMDx55XlhYeF448uDaMeSW2+gcfvaBy6vH1M/TrOuednvu8bNKz03ddj1PW/F9kc7/wsJ54Zb0nIzOWX1bTz11Szgvc35nkdaX+17fiXLnZHj72jn47N+dO9NzUX/OZv2Zn/bvuNyDtxwJ5x25Zd3jT1VzO5u1XfsZpW1Fzd8L6fZ5jyMnbW8nfv/Wf1aT+LvtvG3Y11vOW/8zEm338wMAAFDSvu985zthmic/OIwB537wyez9TWn50y9/YOp9s66ra08+cHk4ffQCNO3zA5efPnhheHq4/IG1Y4i3xWWatye5407rrp+nzax71n2b1W57bmbRPB/pXEbpvOeeh1mdymO7ks7BxPdiy8/sLGZ9/LTvsSef/GA4d3AeF8794MTtJZT8vt7K/YzSvkYLp18eHnhyuM8fPHctgpX8+TzV530r5X62Pnju/L/fNiOe74WFc8MHR+c/2e7nBwAAoKR9Tw5exEzzxM2jF883PzFx+2cuO3ccn+ILsnMv+8zE8qefu3b/6Y370rqe+Mxl4dzTR+s4/dxw2WfWtrHh+kdf3zx6oXbzE09U64uPWTj35tp9p0+sdzPS+ob7d1n4zGAbn7ls+AI0rfOJJz4TLhscw8LgeIdhYLjtifVkzmFadzqOaDPrnmXfNmPa8xzlnovxvo22/cQTN0/s47Tndrzc6acPn6vBc3fTFedMbHvd9jL7NIv6MY33d7C+0+v7PeP3ZHa/PzT5HDa/36Ydx/h7OPMzkn1c7b6J/Wu7r/HzVF+m2v/a91L9+6Z5PjY6hurcthxPbrn6v8+56dPV8xL/HY2flxmOZRYT2xwde9zPuO50/tq+l7drP6O0rdMH32Pj32mjfYm3xfvG53/KdsfrGB3j8N+XhZtHz2P9e6a+bPN5a91G5mfh5sF9pX5uo/FzVd+f2nOZlpl27qf9DE3f99H/yDJYz7m1/5uS1lc9tsTzk46r8T04sf7R1/X/2xa/BgAAOBX7/vmf/zlM8/hNwzBzzk2Pr912f3wBc3q47P7hbTedE1+knBNuevzx8fLxxfH9g6/vH72oio+vr2u4jvji7v7w+OP3T65jhvXHxzXvW/t68NjLRvtxzk3V7fMY7+PohV3c73g81fpH+1Y/jua+jNcz9RwOH5du28y6Z9m3zcjtY3V7tZ38c1H/d9qf6rl9/KZwzuDf8dyn74G0X+P76seS+74YPW/Tzuks6ucv/Tvu0/pjaOzbrPtdW39ctn7+2o4jHW/2Z6R6XP58r9u/3HmLx9r4eYrrSeJ9wwia1jn6erQvsz4XE8u1HU9muXX/rh1XtY8zHsssJrYzWu9wPyfPw8SxjZbbzv2M0rZOP+ecie1X34Oj32f148htN62j+Vyk75lZlt1wG20/C5nvlfoxzqq+/XRbdh9GxxX3ffyzWj12g5+h3L5Xx7r+/qTI8zO6L/c9OF7/6JhP9RwCAADU7XvsscfCNCdXlqoXJEsrJydvP7kaVpaXw9LiYnX/wsJiWF49OV5+cXl1uNzqclgcvNiJX9fXtbq8OH5Mbjuzrn9lKb5AWgorJ9PjVsLSYHvDx6zdPo+1fV8Jy4uD7SwuD/Zpcr/rxzH1XGVuT+uOt9fNuu5Z9m0z0vrH+zFY3+r4nLY/F2vP5/B8r3tu698Do+dnYWll3bbjetKy8fGLg2VW5ziWZLyteCz1bQz+Pdy/1fG5i8e66f1uPIdxf5v35Y4jHW/uZ6T6eobzndaVrNv3DZZN963bdv08zXAM6XzGf+eOJ7fcun83zu1mjmUjE9tpHGv9d0d9ueH219++lfsZpcePf6bjOU/7sm7/8ttdW8f65zN+XX/sumVr56d1Gy0/C/Exp/pzG6X1xW3WVeve4Ge1+nraz1Bm35vrav7flGTtfJ3C8zPD92DuvrQPAAAA89p3Mr7wmOLR8QuXR9duO3Hp8IXe4lK4dOXE6EXKYrj0xKPrln/00bUXW/X7Tlw6fFHWtHjpiZnWH5eL6x+/QHp0bf/ibdUyg22m2+aR9qPap7TdwYvJ8b48eiJcWsWjS8OJwfbrxzqxnpZzmI4jiudk1nVvtG9pnbPK7WN1e9tzUdun6vbRvtWPo1pH/Xsgc46a215pfG8sLg3PQVp+M9L3x1J9v9O5W1oaHtu8+z1aT9rPdd+HU46jebwT22k53+lnpvkcRW0/T81l69876455xueivlzr8UxZbuLfjXO7mWPZyMR2ascd70vfG/E5q+9D/Xt5u/YzStuKj6/2YfA9sDSKTPX9aNtufR31dcbHxa/rz3fzvvrxtW6jcR6Skj+3zecqOlE7tvpxVMvX9qntZyi37811Db+e/FmOijw/bd+DtfU376vvBwAAwDz2PfLII2Gabx87u3pBcvaxb49vu+/w8MXS4fuGtx07O75IOTsc+/a3x8svHr5v+Pj7Dg9f7Ay+rq+ruY66zay/fl/8Om0vLjNt/bOa2Pdv3xcOD17o1ddb31ZdfX+q9WTOYX3d6bb6cW+07o32La1zVrl9jNqei7WvF8PiYPvpsc3HTO7rsXD24N8LZx+r7qvuz52fwTHdd+xwOHt0XM39mlXcl/j46twsHg73xXNXO1/1dW96v0f3V+ttfF+Ol8kcR/N7uL6dtvM97TmKmo9rk45/YfHsar/Seanum/G5qC/Xdjy55db9u3FuN3MsG5nYTm2/4n2zfC9v135GaVv189b8Ou5H23br66h/nY6n/th1y7Z8H9blfhbW7ivzc9t8rqrbattt7t/MP0OZfW9bPi0T1c9X+nfz6w2fn5bvwebzMW0/AAAA5rHv29WLorxv3Th6UXPjt8a33Tt4cZNu+9a9Nw5fTMUXO/cOvh4tH4PCvd/6VrVs877h49KLoHvH60zLta6/9rhvfSvdd3a4cbCtb33r3mHUiF+Plkv7kfZ9M5r7OD62zH6mx+Ruy53D5rqjaeegfn+6baN9S4+ZVW4fo8ltTj4X9cel56C6LZ37s29c/z2QnrPBfWkb9W2nf699X+T3a1ZpffV1RjcOXljH2yaOZbP73XgO4jrH34stxzE+Z5mfkbbzXd+H+Lj69pv7Ul9n2t+6tJ36PkazPhe55Tb8mZ/278a53eyxtJnYTsvzVV82d9tW72eUthXXl9adPY8t262vo77O+Lhpy2aft7ZttPwMry0/ud3Nam4/ure2jfH5Gf0s1Pcv/jttu+1nKLet8f2174HxcrntN87lhs9P476J3xkz7gcAAMA89n3zm98M0zx8/VnVi5qzrn947baH7w6XPDfFk+eGs8567niZtPxzzzorPHfw4qX69yV3Z9cVv07LVOtJt7esP95//ejrheeeNbgvvkA6K1z/8MPh7ksml0tfp+1v1sN3X1Lt33j/R/sV9+niu9K/h9tuPmbhrOvXbsudw8a6o7i/s667bd8uuXvtMbPK7WN1+wbPxcMPXx/Oahxvdftg/85Kjxs8T2mfcss3t3138/tizucvGm+vcV7SNheee0m4u3GOZ97v5nPQ+HracaRtx5+RuK2J+zY637X9G65j8jxObK/xXNalfZ12XjZ6LurL1Y8nLTs+J5nlmv+utjP6WU3f8/H+WY+lzcQ2G8/P9bXfHdWys3xvbtF+Rmlbcf/Wfp7XtlPfj2nbra+j/nV9/9NzPl4287y1bmPKz3zRn9vRcxXXVRe/39PPa/1nYfJndfrP0NR9T89r4/+m1Jepn9u5n58Nvgen/d+2eB8AAMCp2PdwfPECbIt/uv6VtYiQXwYAAACglH3f+MY3ArA9/vGvR/Hv4k9m7wcAAAAoad/Xv/71AAAAAADsPfu+9rWvBQAAAABg79n31a9+NQAAAAAAe8++hx56KAAAAAAAe8++xx57LAAAAAAAe8++e+65JwAAAAAAe8++8y88EgAA6Jd9+/YBANAHH/nIRwIAAP2R4l/ubSEAAOwt4h8AQM+IfwAA/SH+AQD0jPgHANAf4h8AQM+IfwAA/SH+AQD0jPgHANAf4h8AQM+IfwAA/SH+AQD0jPgHANAf4h8AQM+IfwAA/SH+AQD0jPgHANAf4h8AQM+IfwAA/SH+AQD0jPgHANAf4h8AQM+IfwAA/SH+AQD0jPgHANAf4h8AQM+IfwAA/SH+AQD0jPgHANAf4h8AQM+IfwAA/SH+AQD0jPgHANAf4h8AQM+IfwAA/SH+AQD0jPgHANAf4h8AQM+IfwAA/SH+AQD0jPgHANAf4h8AQM+IfwAA/SH+AQD0jPgHANAf4h8AQM+IfwAA/SH+AQD0jPgHANAf4h8AQM+IfwAA/SH+AQD0jPgHANAf4h8AQM+IfwAA/SH+AQD0jPgHANAf4h8AQM+IfwAA/SH+AQD0jPgHANAf4h8AQM+IfwAA/SH+AQD0jPgHANAf4h8AQM+IfwAA/SH+AQD0jPgHANAf4h8AQM+IfwAA/SH+AQD0jPgHANAf4h8AQM+IfwAA/SH+AQD0jPgHANAf4h8AQM+IfwAA/SH+AQD0jPgH7FUry4th//79YWFhMVx686VhcWEhLC6vnvKyALuZ+AcA0DPiH7AXnTy5EpYWFsLC4nJYPXkynFxdnhr0NrMswG4n/gEA9Iz4B+w1J0+uhuXFhepKvuHVfEvh2InR1XyLS9V/4xV+S8urm1o2ty2A3Ub8AwDoGfEP2IumXc03/HoY/GLoW4n3bWLZ3LYAdhPxDwCgZ8Q/YC/a6K28K0sbx7/csvVtAOxG4h8AQM+If8BeJP4B5Il/AAA9I/4Be5H4B5An/gEA9Iz4B+xF4h9AnvgHANAz4h+wF4l/AHniHwBAz4h/AAD9If4BAPSM+AcA0B/iHwBAz4h/AAD9If4BAPSM+AcA0B/iHwBAz4h/AAD9If4BQEeOHz8OnTj/TZdX8e9k9YmX0L3cCxUAoAzxDwC2QC64wE5xnvjHLpR7MQMAbEz8A4ACcoFlIx/+8IehEyn+Pfroo7Cj5KLfNLkXNwDAeuIfAMwpF/Q2IxdlYDuc98bLqvj3yCOPwI6QC4FJLvw15V7oAABD4h8AzCEX86bJxZfo7//+76ET547i37e//W3YEXJBMNpMCMy92AEAxD8A2JRc3MvZKPTdeuut0Jlz37Bcxb9vfetbsCPMEgRnDYG5Fz0A0GfiHwDMKBf5mqYFv1yAST70oQ/Btjrngkur+PfNb34TOpULgcm0ECgAAsDmiH8AMKNc7KtrRr+NQt8tt9wy4e/+7u9gWyy9/nAV//7pn/4JOvHwww9P2CgINiNgPQDmImDuhQ8A9JX4BwAzyMW+JHe1Xy74bRT7PvjBD8K2OPt1b6vi3z/+4z9CJ77xjW+M5aJgMwTOcxVg7sUPAPSR+AcAG8gFv2Qz0S8X+m6++WbYdme99uIq/n3ta1+DTnz9618fawbBegisR8Bc/BMAAWBj4h8AbCAX/aKNwl8z+uVi30033TT2t3/7t7AtXvmai6r49w//8A/QuWYQTCGwGQGnvQW4HgDFPwBYT/wDgA1sJvzVr/bLRb9m6FtZWYFt94pXv7WKf1/5yldgWzz00EPrbvvqV79aaUbAFALrEXCjqwCnXf2XewEEAH0j/gHABqbFvxT+UvxrXu2Xol8u9h07dizceOONYzfccANsmz961Vuq+PfFL34ROvGlL32p8uUvf7mS4mA9BtavBEwBsH4VoAAIALMR/wCgxbTw17zqr3m1X4p+KfbVI9/1118f/uZv/qby13/91+G6666DbfWyQxdW8e+zn/0sdOLBBx+sfO5znwuf//znKykKphCYrgacdhVgMwCKfwCQJ/4BQIvNhL8oXe0Xr/KLV/fVY18KL9dee2245pprwgc+8IFw9OjRsfe///2wLc4874Iq/p04cQI6sbq6Wrn//vvDpz/96fCZz3xmHAVjCEwRMF4JOEsAbF79J/4BwBrxDwBa5OJfM/yl+FcPf/Eqvxj8UuhLce/qq68OV111VeV973tfeO973xuuvPJK2FYvOvs1Vfz75Cc/CZ246667KnfffXe45557wn333Rc+9alPVUEwhsB4RWC8EnBaAMy9BbgeAMU/AFgj/gHAFLnwl+JfDH/Nt/vG+Bff6huv+Ivh7wUveAHsSL/6nAPh6U9/enjJS14CO1K8GjBeBVgPgOnvANb/BmCMfwIgALQT/wBgilz8awt/8aq/+Pf94tt84xV/MbIYY4zZ3MT4F68CjFcAprcA1z8MZJYAKP4BwBrxDwCm2Ez8Sx/wka76i3/PT/wzxpjNT4x/8a3A8e8Bxqv/vvCFL1SfCJwCYHoLcPr7f9PiXz0A5l4IAUBfiH8AMEU9+jXf8pu76i/9rb/4Cb7xb/yJf8YYs/mJ8S/+XcB09V/8+3/1DwBJnwJcv/ovanvrb+6FEAD0hfgHAFM0499GV/3Ft/zGT/eNn+gbP9hD/DPGmM1PjH933nlnuPfee6u//Rc/BThe/Zd7+2/bp/+KfwAwJP4BwBRt8a951V+Kf/Hv/cVP942f5iv+GWPM5ifGv9tvv736JOD46b8PPPDA+NN/09t/c1f/iX8AkCf+AcAU0+Jf7qq/+Jbf9Pf+xD9jjJl/Yvz76Ec/uu6tv82r/+p/+y/31l/xDwCGxD8AmKIt/sXw13zLb/3v/b33ve+dKf7Ft7Zd83cfDx+570vh+D1fmHDLJx4IHzvxUDh+7+TtcdkP3HxHuOrqq0drMcaYvTMx/t12223hE5/4RLjvvvvGb/1NV//Fv/2Xrv7LvfU396EfuRdCANAX4h8ATNGMf+ktvyn+1T/oo/73/mL8u/LKK2eKf1fddHt48skfhh9878cD/1r54fd/HJ745++Fc885N3z0tjvCv/04TNwfffepfwkfvu9Lo7UYY8zemRj/4u/g+D+OxE/9TW/9rX/yb/rwj2lv/RX/AGCN+AcAGdOu+otyn/Ib3/Kb4t/73//+mePfBz/+QPjeUz8KTz7xw7Hvfvdfw+c/95XwzGc+M/zGc34j3HjDTeH73/u3KhKOlxk85uY7PjNaizHG7J2J8S/+3r3jjjuqv/t34sSJ6q2/Mf59/vOfn/jkX3/3DwA2Jv4BQMYs8a/+lt8Y/+KHfVx77bXVJ/1eccUVM8W/Gz/yqfCdJ38Y/vnx7498rwp9115zffjpn/mZsP8XfiH8yq/92mBbfx+++90fh8cH98fl4mPiY40xu2fiVWyz2Gmzb9++1v2K98VlSk2Mf/F3bvzQj7vuuqv6u3/Nt/7WP/ij/tZf8Q8A1hP/ACBjWvzLfdhH+nt/9Q/7eM973jNT/Lv2Q3dVb/F99ORTgxenTw3+j/N3w+OPfS+84IW/H57zn/9TWHn2s8MF/+2/hgP//bfCQw99o4p/cbn4mPjY9vliuOhZ+6oX5ZVnXTS4ZQvmixeFZ+17VrhoS1Ye56Zwxnj9g39v1XEYs8UzS9jbifEv7tP/9X//P9l9a7tv3onxL/6u/djHPlZ96Ef8u3/333//urf+Tvu7f+IfAEwS/wAgY7vi31U33RFOPvqdwQvUp8Ljj/8gPPHEv4RjKx8K/+Gnfirc+HM/F8KBAyH85m+G3/vZnw1vvng5PDm4/5FHBss+9r3wvsFjp04V5PaFM24afR1ncNtF9a/nnnqM247ZjfFvu8+R2Q0zSyArGdFKTi7y5W4rMSn+xU/8jR/6ce+99079u3/iHwBsTPwDgIy2+Jf7sI9m/Hv3u989U/x71/XHq5B37z2fDm++8C3hRQdfFF704peE3/3t3w4vftrTwq0///Phjmc8I7zrD/4grNxy6+CF71cH2x3s099/LFx57GOjtTRneMXfRPgrOuLfxiP+mfUzSyQrHdJKTj321f9demL8i/8jS/zE349//OPj+Bf/7l986+9Gf/dP/AOASeIfAGRsV/x7x7W3hiuvuCq88k3vCue/95Ph0MVXVh8W8vZ3vCP8+5/4ifDLA78ycMdgu09858nwxjf+ebjookvDJZcsh3ffcNtoLY2prvo7I0xvf8MwdcYZzwr70nKjKwWHbxFee+xNZ9TeNlzVxPjY3G210DWxrnqEHC130Rnj+541rY7V1vGsiy6aEtKaga3+9QbbmnK8kzP5tul0HOvPSXVrtb3hOa3dX19mpm2avTyzhLKtiGklJ0W/rQp/ccQ/AChL/AOAjO2KfxdcdnV4zq//enj+mX8SbrjtvnD4sneEo1dfFS5529vCaQsL4d/95E+G//XCF4Yf/PCH1fJ/9Ed/HJ797F8L555zfrj4ihur29ZNjEytV8fFUFWPYY2IdtMZmSiXCWvjRZr31YJfFbwm7xvHsMF28hFsch1fvCgGtfr20my8H/ltNR6XPd5h+JsaJ6tZv72p53SmbZrNzLrIOsVOGvFvthH/AKAs8Q8AMrYr/p31huXwK7/4rPBffv5nwn/86aeHM3//d8LfXHdtuO6668Kb3vSm8OY3v7n621ZprrjifeFpT3taOH3xeeGNb//A6NbGVMGt7cqyRoiauCJtZCKapdvroWtK2MpsO14pN1zdBkEszbp4OWW51vW13Nd2vGnazuFmz0mcWbZp9vzs9viXwl/8b/3fpUf8A4CyxD8AyNiu+Pfa5avC7/3PF4bFxdPDay94S3j1ay6o1hG3Ez/pMr7I/dGPfjRaOgy298HwF39xaXjvlR8IFxyZEv9GV61Nb0u5MJUJXRO3x3XOELoy69qZ8W9K2EtT8pzEmWWbZs/PLKFsK2JaicnFvtxtJUb8A4CyxD8AyNiu+PeqS64Md9316fDxT94fHvzc18Ilb7ssHDlyebj22murba2ungjf/OY3ww9Hb/u98caVcNfdD4Qvf/nhcOii91S3ZWd0ddpEAPxi+rTfXKjKvMU1riNFuCpezRK6husab3cierU9rj6T6/ji1Lf9NiJndcz1/Zi2reH62992O+Vtv3OdkzizbNPs9ZklkpUOaSWmLfK13TfviH8AUJb4BwAZ2xX/li58R/jIbZ8Mf/lXV4UL3vDWcOZLXxbOOWcpvPzlL6/+e8EFF4R3vetd4fbbb69eyH74+EfCHXeuhgce+Go4583vHK1lylRxqvY20/HVdM0wNZjmslVRGwaw4WPPCGeMr3KLDay+XGN9E+vaKIg19iNN7a210z/wYzC15fadMdjH8XIbbCt7vM2Jj1lbZrjItHOy/lgmz9FgZtqm2csTA9ksdtrE79e2/Yr3xWVKjfgHAGWJfwCQsV3x7yWvemu4/PK/Cq886/ywePoLwi/+4i+F5z73d8L+/fvDM57xjHDaaQvhmc98ZnjpS1862J8Ph6vff004ftvd4f77vxzOetPbR2sxxpi9M+IfAJQl/gFAxnbFv+e//FXh+G33hDs/vhpu++g94e1vvyKcfdb54RWvOCe8/vV/Hi666LLwP57/e+GXfumXwxkHzwjv/Msrw+13nAh3fOL+8Lt/+H9GazHGmL0z4h8AlCX+AUDGdsW/K668Mpz5msPhzD9728Al4Q9fe2l42euWq/8mL37VxeH5L/+zsHjmofC///Si8NJXvy087yXnhzf/xcWjtRhjzN4Z8Q8AyhL/ACBju+KfMcaYyRH/AKAs8Q8AMsQ/Y4zpZsQ/AChL/AOADPHPGGO6GfEPAMoS/wAgQ/wzxphuRvwDgLLEPwDIEP+MMaabEf8AoCzxDwAyxD9jjOlmxD8AKEv8A4AM8c8YY7oZ8Q8AyhL/ACBD/DPGmG5G/AOAssQ/AMgoFf9y/8cXgOnEPwAoS/wDgAzxD6Ab4h8AlCX+AUCG+AfQDfEPAMoS/wAgQ/wD6Ib4BwBliX8AkCH+AXRD/AOAssQ/AMgQ/wC6If4BQFniHwBkiH8A3RD/AKAs8Q8AMsQ/gG6IfwBQlvgHABniH0A3xD8AKEv8A4AM8Q+gG+IfAJQl/gFAhvgH0A3xDwDKEv8AIEP82xtOri6HxYWFsH///rGFhcWwvLpxCFhdWQ5LyyvZ+0o4ubJU7c/SyuaiRH2/muvYqn1eWVoYnLelsLKJgDLv8ZW01c8hW0P8A4CyxD8AyBD/9oYU/xaXV7P3T3Py5EpYGjxuYWlnxb+2/drKfd6N8W87nkO2hvgHAGWJfwCQIf7tDW3xb3zf0lJYWoxxazEsDZY7eXI1LA++juEqWlhcDiceHYWkxcXqMVUIWz1ZrSM+drjc0viKwhS+6pr70Ixj09Y1Xj63X6N1nH3sxCnvc9Pq8uJ4maVG/JtlHc3jW11eqvajeszoXDcfE02su7HctHWMQ9/oWE877cxw9m8Nl6uWHZyP1RiANni+urxKkTXiHwCUJf4BQIb4tzfE2BNjUFv8G4ahYVhLgat51dj460YAS+uOYS53ddza49a/1bgenGZZV/WY5n7V11Fon9cvN7memdex7vjWzsEsxxdj3eqM68gea/N8tOy3+LeziH8AUJb4BwAZ4t/ekIJPDDtJ/SqwFIPistmY1Axpo6+jeGVcPerlAtL46rna45L68rOsq7q9uV/1OFZon3PL1c/NzPvauL0KbsvxyrvROamtY9pjmqatI3eszdtm3W+6J/4BQFniHwBkiH97QzPwtd03T/yL8agprS+tPxe5qvtr8WmjdY0f09yv2jpK7HN9ufp+D79ei3+zrGNi39K5iG+1XUlX3a0/L2nduSDXto7csTZvm3W/6Z74BwBliX8AkCH+7Q1bHf+mhb0orq8tLjXjX9u6knX7NUf8m2U7zeXq52bmfW05vvr6pj2mfnvUto7csTZvm3W/6Z74BwBliX8AkCH+7Q1bGf+aj6/HpXRfLnAluSvjcuuaeExzvzYZ/2beTm258XrSuZl1HY34t3asaX3tx9d8a3bbOrLH2jwfLfvdFh3ZfuIfAJQl/gFAhvi3N6TgE8NO3TAgTcag5tVoKTbF246lT86txaVq/SuNT58dxaP02Lr0twbrj423p8dMW1fTxH411nEq+9w0Xlfu035nWEf9+OLf6kufRlwtvzRcd/Zxg+clfSJvtJjiXcs6cvEvqp+PKlxO2e/6vtYfTzfEPwAoS/wDgAzxD6Ab4h8AlCX+AUCG+AfQDfEPAMoS/wAgQ/wD6Ib4x6lYGb/dfzFcevOl1Vv90593OJVlAXYz8Q8AMsQ/gG6If8xr/Pc/R39jtfm3XeddFmC3E/8AIEP8A+iG+Mc86h8KNLyabykcOzG6mm9x+GE/1Qf9LMdPMZ992dy2AHYb8Q8AMsQ/gG6If8xr2tV8w6+HwW/86d+bWDa3LYDdRPwDgAzxD6Ab4h/z2uitvCtLG8e/3LL1bQDsRuIfAGSIfwDdEP+Yl/gHkCf+AUCG+Def8y88AhSS+xnrA/GPeYl/AHniHwBkiH/zicHCGHPqE3+e0n/7RvxjXuIfQJ74BwAZ4t98UvyLn55ojJl/0s9S7udsrxP/mJf4B5An/gFAhvg3H/HPmDIj/ol/AFCK+AcAGeLffMQ/Y8qM+Cf+AUAp4h8AZIh/8xH/jCkz4p/4BwCliH8AkCH+zUf8M6bMiH/iHwCUIv4BQIb4Nx/xz5gyI/6JfwBQivgHABni33zEP2PKjPgn/gFAKeIfAGSIf/MR/4wpM+Kf+AcApYh/AJAh/s1H/DOmzIh/4h8AlCL+AUCG+Dcf8c+YMiP+iX8AUIr4BwAZ4t98xD9jyoz4J/4BQCniHwBkiH/zEf+MKTPin/gHAKWIfwCQIf7NR/wzpsyIf+IfAJQi/gFAhvg3H/HPmDIj/ol/AFCK+AcAGeLffMQ/Y8qM+Cf+AUAp4h8AZIh/8xH/jCkz4p/4BwCliH8AkCH+zScGi/Rf4NSIf+IfAJQg/gFAhvg3P2NMucn9jO114h8AlCX+AUCG+AfQDfEPAMoS/wAgQ/wD6Ib4BwBliX8AkCH+AXRD/AOAssQ/AMgQ/wC6If4BQFniHwBkiH8A3RD/AKAs8Q8AMsQ/gG6IfwBQlvgHABniH0A3xD8AKEv8A4AM8Q+gG+IfAJQl/gFAhvgH0A3xDwDKEv8AIEP821onV5fD4sJC2L9//9jCwmJYXt34BfrqynJYWl7J3rcbrSwtDI59KaxsY5w4ubJUnfOllc2d7808bh7znIut3qdZ7LXvya6JfwBQlvgHABni39ZK8W9xeTV7/zQnT66EpcHjFpbEv+2w3ed7N8a/vfg92TXxDwDKEv8AIEP821pt8W9839JSWFqMMWgxLA2WO3lyNSwPvo6hJ1pYXA4nHh2Fl8XF6jFVOFodvNAfrCM+drjc0viKwhSK6pr7kJZJt9eD1LR9Gz92ynabVpcXx8ssNYJX2zpWl5eq7Vf3xW3XgtfE42r7NY5TtXN07N1rwWx8vINjSuuOx549343QNvU8b3Ce6uY9F0kz/q07R1O2O+18RdPW0TyXp512Zjj7t4bLVcsOztHq6Pske14a+0qe+AcAZYl/AJAh/m2tcRzKhJl03zCkDAPUOL41rrIaf90IRmndMWDlriZbe9z6txrPEv+y+zbDdqv1Tyw3uf9t6xjfNzr2iftq5yXGp9VaZMqeo/r9o3+ncJVi3MRj0/nOrTdtc/C4dD7bzlM6D9X65jwXE+uo71P1mLXndOpj2s5Xyzqy57J5jlr2u76vaV9YT/wDgLLEPwDIEP+2VgokMYQk9aumUjyJy06LXNV6Gl9H9QhVLZMJLuOrzWqPS9Ly2e237Nss242ay826jrTteH8MgKujZZrLpdvG92XO0cR6G8c7Ga8a57v2uHX7Wn9cy3mKXyfznov6Opq3V8FtOV55N3qOa+uY9pimaevInsvGbbPuN9OJfwBQlvgHABni39ZqxqG2+ybiWzNGZWJMjC8xtjSl9aX156JQdf8o1mS337JvG203acah4dezrWOlcf/i0vqr9erbirLBqhak1sezteXXne/ass3jmHjcnPFvM+cimTiW9NzGt9qupKvu1j/PreerZR3Zc9m4bdb9ZjrxDwDKEv8AIEP821rNONR230R8a8aoTIxpBqWmuL62GHMq8a9tu0lzuc2uI16VVn267OhvyuUC3uTymWBVD2aN460f47rzXXtcc18nHtdynuLXyamei6htn6Ztt+18ta0jey4bt82630wn/gFAWeIfAGSIf1urGYfa7muLL9kY03h8Pcak+3JBKKk/frz+tP22fWvZ7rzrn9j3RqSLH0qRAlb9PDTfOp09R7X4lf5d/5t/4202HjvxuNE20jZz5znt69QIN+e5mFhHbZ/iMmv7l9aXeUzL+WpbR/ZcNs9Ry37X9zU9nvXEPwAoS/wDgAzxb2ulQBJDSF09Kk0LRynOxNuOpU/7rcWYav0r+U/FTY+tS9Gr/viVpdE2Gp9Au9G+Tdtu0/gYGuuP97WtI34wxcR9o/2oHjfYt3Q1YJQ+GCQbrGoRKv172ifzTpzv2uOq9dS2OfGpthucp7p5z0UycSwn1z6huFp+9DxmHzf1fE1fR+5cRvVzVH2fTNnv+r7WH88k8Q8AyhL/ACBD/KMvxvGvFvygS+IfAJQl/gFAhvhHX4h/7DTiHwCUJf4BQIb4B9CNX33OgfDCl54b/uCPDoUzXvln4cXnvDaced4F4Q//5I3hZYcuDC//0z8Pf/yqt4RXvPqt4ZWvuSic9dqLw9mvuyQsvf5wOOeCS8M5b1gO577xssp5b7q8cn504REA6CXxDwAyxD+AbsTfncvLy+Gd73xneM973hPe9773haNHj1a/X6+77rrqd+0NN9wQjh07Vv0Ovummm6rfyfF3c/wdHX9Xx9/Z6fd3+n2e+10PAH0g/gFAhvgH0A3xDwDKEv8AIEP8A+iG+AcAZYl/AJAh/gF0Q/wDgLLEPwDIEP8AuiH+AUBZ4h8AZIh/G8t9khiw9XI/j3uJ+AcAZYl/AJAh/m0sRghjzPZO/NlL/92rxD8AKEv8A4AM8W9j4p8x2z/p5y73M7lXiH8AUJb4BwAZ4t/GxD9jtn/EP/EPADZL/AOADPFvY+KfMds/4p/4BwCbJf4BQIb4tzHxz5jtH/FP/AOAzRL/ACBD/NuY+GfM9o/4J/4BwGaJfwCQIf5tTPwzZvtH/BP/AGCzxD8AyBD/Nib+GbP9I/6JfwCwWeIfAGSIfxsT/4zZ/hH/xD8A2CzxDwAyxL+NiX/GbP+If+IfAGyW+AcAGeLfxsQ/Y7Z/xD/xDwA2S/wDgAzxb2PinzHbP+Kf+AcAmyX+AUCG+Lcx8c+Y7R/xT/wDgM0S/wAgQ/zbmPhnzPaP+Cf+AcBmiX8AkCH+bUz8M2b7R/wT/wBgs8Q/AMgQ/zYm/hmz/SP+iX8AsFniHwBkiH8bE/+M2f4R/8Q/ANgs8Q8AMsS/jcUIkf4LbB/xT/wDgM0Q/wAgQ/ybjTGmm8n9PO4V4h8AlCX+AUCG+AfQDfEPAMoS/wAgQ/wD6Ib4BwBliX8AkCH+AXRD/AOAssQ/AMgQ/wC6If4BQFniHwBkiH8A3RD/AKAs8Q8AMsQ/gG6IfwBQlvgHABniH0A3xD8AKEv8A4AM8Q+gG+IfAJQl/gFAhvgH0A3xDwDKEv8AIEP8A+iG+AcAZYl/AJAh/gF0Q/wDgLLEPwDIEP8AuiH+9dvxo4fCgYWFsHDgUDja8rwdPjhYZuFgOJxZpu2+48ePDu4/EPbv319ZOHAgHDp8dN1yszp6+FA4eOhw9j6AnUL8A4AM8Q+gG+Jfvx09NAxzCwsHwqGjZeNfDH+HDgzD4uHBuqsQONjeRtua5vjxw+FgDJUHxT9gZxP/ACBD/APohvjXX+M4d/BgNqqNw+CBwf2NwNd2X3L88MFqmYOHp38/HD10sLryMAXIg4eGVwWOQ9+BA9X9p532gnDwOcPlhtsdXqkYr1w8ODiGtC/zREWA0sQ/AMgQ/wC6If71V3rL74FD8a25kwGvft84xI3ub7uvvv4YCNuu8huuZ+3++j7k1tu88m9yP9YfA0BXxD8AyBD/ALoh/vVXPc41r9Jrhrt6WGu7L6277fa64VuB49V7k28/boa+4bKTtzX3Y5YrDQG2g/gHABniH0A3xL9+qv89vurtsxuEteHX+fhXvy+tP7eOpnTlXvV23cPpyr3Nxb8Y+5rilYDpMQBdEP8AIEP8A+iG+NdPKbw1w9ksV/e13TexjQ2uxGtbzzxX/gHsFOIfAGSIf1vv5OpyWGy80FtYWAzLqyezy9etriyHpeWV7H0lnFxZqvZnaWXjfZlmZSm+aFwKKye353g2s71pZl1HOj+Ly6vZ+9vMeqzzHE+J5+1UbfX3Zh+If/2Urpqrh7n6bW1/16/tvvo26lcX1j/tN21jcntpPbNf+Vffj/i1GAjsFOIfAGSIf1svxb/NBqSTJ1fCUnyxtbQ34l+p49kN8W8zx7ob4992fG/2gfjXP+Mo1wh247fhNt5WO++n/UbVtg4Olx0uf6B6i+/4vvRJvQsHBuupxcBM/IvG200h8nDj04JrMROgK+IfAGSIf1uvLf6N71taCkuL8UXcYlgaLHfy5GpYHnwdX1RVL6wWl8OJR0fBZXGxekwVjFZPVuuIjx0utzS+ojAForrmPjQj0ury0vgqxbQv9eWT1eXF4TKD7S014lVuHbnjWR0sP23fm9q2t5XrGMe/wfOTjimdw2YYTBHv2KMnsscal0lO9Xjmfd4m1t1Ybto6xqFv9H132mlnhrN/a/3xzfo8sEb8A4CyxD8AyBD/tl6MIjGatMW/YUAZBrIUgppXV42/boSitO4Y2HJXka09bv1bjesRabiutWWmXZE2uc3JfWpbx7rjmWHfZ9ve1q0jnZ8UuFK0q87XlPhXPa5xrCX2ZWId8zxvtX2qjmXGdTT3sbmu6usZ95tJ4h8AlCX+AUCG+Lf1UhiJoSWpXy2Voklcti0gNb+OYoyqR73mFWFpmWqbuRDVWL4KN8vxCq7RY2rrTprbbIaeaeto7v8s+55brr69rV5H+nd6fiYiV+O+tueursTxNG+f5Xmbtq7x/TM+b8Nl53sumST+AUBZ4h8AZIh/W68Z+NruawtIuQgTo0uMLE3NWJWLQdX9tUgzXja+ZXMlXb21/nHN0DP8erTPLevIBaPmfkfN89S2va1ex/rItnYM6b5Znru6efelvo55n7f0mPrt0Waet2r5OZ9LJol/AFCW+AcAGeLf1kthJRdCmve1BaRchGmGpKa4vrYIU49IzXXV96X+mLbl2u7LBaO2fU82s71p5l1HM/DVn69S8W+e45nneas/pn571LaO3LHM+1wySfwDgLLEPwDIEP+23lbGv+bj6xEm3ZcLQUkzIqV/n1wdbSsTdCYCWNqnWryato51x9Oy77Nub6vXkc5P/W/+je9rW2fjWEvsy8Q65nneavvUfMt52zpyx9K8bdb9ZpL4BwBliX8AkCH+bb0URmJcqRuGlslo0rxqK0WZeNux9Gm/jaAUQ1Bafwwucb31x9aliFV/bLy92peTa5/IW61naS0IpeWT8X4tTn5a7UbrqB9PtfyUfW+atr1431auI52f3Kf9Riuj48uts3ms6TET9815PGm/4n2bed7i91v6RN5oMcW7lnVMC5nzPpesEf8AoCzxDwAyxD+Aboh/AFCW+AcAGeIfQDfEPwAoS/wDgAzxD6Ab4h8AlCX+AUCG+AfQDfEPAMoS/wAgQ/wD6Ib4BwBliX8AkCH+AXRD/AOAssQ/AMgQ/wC6If4BQFniHwBkiH8A3RD/AKAs8Q8AMsS/+Zx/4RGgkNzPWB+IfwBQlvgHABni33xisDDGnPrEn6f0374R/wCgLPEPADLEv/mIf8aUmfSzlPs52+vEPwAoS/wDgAzxbz7inzFlRvwT/wCgFPEPADLEv/mIf8aUGfFP/AOAUsQ/AMgQ/+Yj/hlTZsQ/8Q8AShH/ACBD/JuP+GdMmRH/xD8AKEX8A4AM8W8+4p8xZUb8E/8AoBTxDwAyxL/5iH/GlBnxT/wDgFLEPwDIEP/mI/4ZU2bEP/EPAEoR/wAgQ/ybj/hnTJkR/8Q/AChF/AOADPFvPuKfMWVG/BP/AKAU8Q8AMsS/+Yh/xpQZ8U/8A4BSxD8AyBD/5iP+GVNmxD/xDwBKEf8AIEP8m4/4Z0yZEf/EPwAoRfwDgAzxbz7inzFlRvwT/wCgFPEPADLEv/mIf8aUGfFP/AOAUsQ/AMgQ/+Yj/hlTZsQ/8Q8AShH/ACBD/JtPDBbpv8CpEf/EPwAoQfwDgAzxb37GmHKT+xnb68Q/AChL/AOADPEPoBviHwCUJf4BQIb4B9CNX33OgfDCl54b/uCPDoUzXvln4cXnvDaced4F4Q//5I3hZYcuDC//0z8Pf/yqt4RXvPqt4ZWvuSic9dqLw9mvuyQsvf5wOOeCS8M5b1gO577xssp5b7q8cn6UeWs1APSB+AcAGeIfQDde8pKXhFtuuSXcdttt4eMf/3i49957w+rqavjMZz4TPvvZz4bPf/7z4Utf+lJ46KGHwle/+tXwta99LfzjP/5j+Kd/+qfw8MMPh29961vh29/+dnjkkUfCo48+Gk6ePFnJbQsA+kD8A4AM8Q+gG+IfAJQl/gFAhvgH0A3xDwDKEv8AIEP8A+iG+AcAZYl/AJAh/gF0Q/wDgLLEPwDIEP8AuiH+AUBZ4h8AZIh/AN0Q/wCgLPEPADLEv53h5OpyWFxYCPv37x9bWFgMy6sbv5BfXVkOS8sr2ftKOLmyVO3P0sr8UWFlaWFwPEthZYYwUeJ4NrO9upXlxfG5v/Td23vcSYnzfaq2+nuKIfEPAMoS/wAgQ/zbGVL8W1xezd4/zcmTK2Fp8LiFpb0R/0odz1zRLW17cTmsFgoouzH+bcf3FEPiHwCUJf4BQIb4tzO0xb/xfUtLYWkxxqTFsDRY7uTJ1bA8+DqGoihGqxOPpoC1WD2mCk+rJ6t1xMcOl1saX1GYQlNdcx+aMWp1eWl8lWLal/ryyWq6im6wvaVGBMutI3c8McJN2/emtu1ttI512x489ljtuKc9B/V1JKeyH9Uyc57viXU3lpu2jrXgOfx+Oe20M8PZv1U7D5t8Dtgc8Q8AyhL/ACBD/NsZxnEpE3bSfcMQM4xUKSg1r9Iaf90ITmndMXLlrkZbe9z6txrXY9RwXWvLTLuybXKbk/vUto51xzPDvs+2vRnWkR6Xglcm/uWeg4l1lNiPec537bzFfV+dcR3NfWyuq/p6xv1m88Q/AChL/AOADPFvZ0iBJQabpH7VVYovcdlsvGnGv9HXUbwSrR71mleWpWWqbdYelzSXrwLQcrwSbO3v46V1J81tNoPRtHU093+Wfc8tV9/erOsYb7sl/uWeg/o6iuzHHOd72rrG9894vofLzvccsHniHwCUJf4BQIb4tzM041LbffPEvxhrmtL60vpzUam6PxPBqrd+rqSrwNY/rhmMhl+P9rllHbnw1NzvqHme2rY36zrG2y4Y/+bajznPd3pM/fZoM+e7Wn7O54DNE/8AoCzxDwAyxL+doRmX2u6rh6dmqMnFnGaQaorra4s59RjVXNesEay+XNt9ufDUtu/JZrY3zXjb23Tl3zTznO/6Y+q3R23ryH2/zPscsHniHwCUJf4BQIb4tzNsZfxrPr4ec9J9uaCUNGPUWhAbbSsThurbHO9TLYJNW8e642nZ91m3N/M60uNOIf4V2Y95znftvDXfKr6Z891cV/X1jPvN5ol/AFCW+AcAGeLfzpACS4w0dbOEpxR34m3H0qf91mJOtf6Vxqe9DtZbf2xdil/1x8bbq305ufapuNV6ltbCUlo+Ge/X4uSn3m60jvrxVMtP2femaduL982yjhLxLzrl/ZjzfMd9TJ/IGy2meNeyjlz8i+Z9Dtgc8Q8AyhL/ACBD/APohvgHAGWJfwCQIf4BdEP8A4CyxD8AyBD/ALoh/gFAWeIfAGSIfwDdEP8AoCzxDwAyxD+Aboh/AFCW+AcAGeIfQDfEPwAoS/wDgAzxD6Ab4h8AlCX+AUCG+AfQDfEPAMoS/wAgQ/ybz/kXHgEKyf2M9YH4BwBliX8AkCH+zScGC2PMqU/8eUr/7RvxDwDKEv8AIEP8m4/4Z0yZST9LuZ+zvU78A4CyxD8AyBD/5iP+GVNmxD/xDwBKEf8AIEP8m4/4Z0yZEf/EPwAoRfwDgAzxbz7inzFlRvwT/wCgFPEPADLEv/mIf8aUGfFP/AOAUsQ/AMgQ/+Yj/hlTZsQ/8Q8AShH/ACBD/JuP+GdMmRH/xD8AKEX8A4AM8W8+4p8xZUb8E/8AoBTxDwAyxL/5iH/GlBnxT/wDgFLEPwDIEP/mI/4ZU2bEP/EPAEoR/wAgQ/ybj/hnTJkR/8Q/AChF/AOADPFvPuKfMWVG/BP/AKAU8Q8AMsS/+Yh/xpQZ8U/8A4BSxD8AyBD/5iP+GVNmxD/xDwBKEf8AIEP8m4/4Z0yZEf/EPwAoRfwDgAzxbz7inzFlRvwT/wCgFPEPADLEv/nEYJH+C5wa8U/8A4ASxD8AyBD/5meMKTe5n7G9TvwDgLLEPwDIEP8AuiH+AUBZ4h8AZIh/AN0Q/wCgLPEPADLEP4BuiH8AUJb4BwAZ4h9AN8Q/AChL/AOADPEPoBviHwCUJf4BQIb4B9AN8Q8AyhL/ACBD/APohvgHAGWJfwCQIf4BdEP8A4CyxD8AyBD/ALoh/gFAWeIfAGSIfwDdEP8AoCzxDwAyxD+Aboh/AFCW+AcAGeIfQDfEPwAoS/wDgAzxD6Ab4h8AlCX+AUCG+AfQDfEPAMoS/wAgQ/wD6Ib4BwBliX8AkCH+AXRD/AOAssQ/AMgQ/wC6If4BQFniHwBkiH8A3RD/AKAs8Q8AMvoc/06uLofFhYWwf//+sYWFxbC8uvGL59WV5bC0vJK9r4STK0vV/iytlHshv5l93urjW1laGJzrpbCyiVCxFedks+Y9LydProSlwfda3PdT+b7bDdLzVFcd94zP32aW2+z30E4j/gFAWeIfAGSIfwthcXk1e/80KeQsLO2e+LeZfd6O49uN8e9Uzsvq8uL4eOf9vtsttut5Ss/Hbj6P4h8AlCX+AUCG+JePB+P7lpbC0mIMVYthabDcyZOrYXnwdYwb0cLicjjx6CgKLS5Wj6kiz+ow8sTHDpdbGl/ZleJIXXMfmgFl2rqaVpeXqn2olov7PHh8bp9XT55cv+y04xvtS9rHZrjLbbO+T0kMYMN1Ds5pYx2zHF/znOT2v/mYaGLdjeWmrWMc+kbP6WmnnRnO/q3hctWyo3M40343omF8TFznZr7vmsulZacd17T9Sucw91w2jzl9H8/6/CbT4l/99rbj3PB5rq13noi8k4h/AFCW+AcAGeJfe4QZRp5hEFsXSVLMSV83YlZadwxquUix9rj1b/nMhpKWdVWPGQeV4X5lw85EgFrbbuuybcGoZZvx62TyGCbP18zHt+6c5Pd/4jG1Y6mC54zraO5jc13V17Pu92i5FK3qj6svV78v9303sVzbcTXvq646HB5n63OZO+a0rxs8v3XNeJe7ve04c8tN235cNvfzs1uIfwBQlvgHABni3/CKoqR+RVcVHdoiSYpAja+jenCplskEkfGVcLXHJfXlZ1lXdXsKKoNlYyxZrQWR3D5WwWo5XiE22o8UiJrHN9pe9ly0bLOueQz1dcx8fI3bp+1/22OaZj0Hw2Unb5t7v+f8vmtbZ926/aqtMz1ulu/r+mPj+tqe37q0jXXHVtvntuPMLTdt+23nYTcQ/wCgLPEPADLEv7UA0XZfWyTJRZMYYFL8qEvrq0eNZrCq7q9FjY3WVbfSWHZxaRRemvucth/fErqSrlrLh6+0L7lz0bbNeF/SDFLDr4frmPX4slEos//1x6R15+LQZs5BtXzjtln3u7kPze+tuuZ9zXOdtB1XvK9+Lur73fZc5o65WqZxnLnnt25akMs9f9n9aDy+bfvN49ltxD8AKEv8A4AM8W/r4l8uRiVxfW3Roh5ANlpXU7yarfpU2tHffKtiSyZc1dfZenyNwFJfNn5dLZPZZrovatverMfXdk5y+9R8TP32aDPnINroHE7T3IcS8W8zx1VfZ9tzmTvmZKPnt27avtVvb/35yjx+2vbbzsNuIP4BQFniHwBkiH+bjzDr4lguFDUeXw8y6b5c1EnaQsm06JQes7ZcbR2ZcLW2/tF9af+ax1fb/vi+RqjJbTN+nbSuY5PHF9fdtv8Tj6kdS3UFZG1bmzkHzXVVX8+6343lml+3LTs1/rUcV/p3uq++XxPLNZ+H3DG3fU/Vno+0fP0xbbe3HefEci3bT+vMnfPdQvwDgLLEPwDIEP+GVxLVbRQn4tcpHMXbjqVP+61Fk2r9K/lPKU2PrUt/F63+2Hh7PXLk1tUUP/hhYrnR/lf3TezzifGn+lbLLa2FsOay8ZhXRvfHt8g2P6m3bZt143Vm1jHL8dXPSbwSrG3/Jx43eC7TFWNR+vCItnXkQljUPC8z7feUaBgfU1dtd4Pvu7ppx9W8r3pbcy2OTXsupx7zlOe3+T2azHJ723E2H9/2/dV2fnYD8Q8AyhL/ACCjz/EPtkuMhs3AuxfEkNiMfNslxdsUEHcj8Q8AyhL/ACBD/IOtl66q6yqUbYXq6sKl4VuLc/dvtXiF4G6+6i8S/wCgLPEPADLEP4BuiH8AUJb4BwAZ4h9AN8Q/AChL/AOADPEPoBviHwCUJf4BQIb4B9AN8Q8AyhL/ACBD/APohvgHAGWJfwCQIf4BdEP8A4CyxD8AyBD/+u38C4+wy+WeV3YH8Q8AyhL/ACBD/Ou3GI/M7p34HKb/svuIfwBQlvgHABniX7+Jf7t70vOXe27Z+cQ/AChL/AOADPGv38S/3T3i3+4m/gFAWeIfAGSIf/0m/u3uEf92N/EPAMoS/wAgQ/zrN/Fvd4/4t7uJfwBQlvgHABniX7+Jf7t7xL/dTfwDgLLEPwDIEP/6Tfzb3SP+7W7iHwCUJf4BQIb412/i3+4e8W93E/8AoCzxDwAyxL9+E/9294h/u5v4BwBliX8AkCH+9Zv4t7tH/NvdxD8AKEv8A4AM8a/fxL/dPeLf7ib+AUBZ4h8AZIh//Sb+7e4R/3Y38Q8AyhL/ACBD/Os38W93j/i3u4l/AFCW+AcAGeJfv4l/u3vEv91N/AOAssQ/AMgQ//pN/NvdI/7tbuIfAJQl/gFAhvjXb+Lf7h7xb3cT/wCgLPEPADLEv34T/3b3iH+7m/gHAGWJfwCQIf71W4xH6b/sTuLf7iX+AUBZ4h8AZIh/mN0/ueeVnU/8A4CyxD8AyBD/ALoh/gFAWeIfAGSIfwDdEP8AoCzxDwAyxD+Aboh/AFCW+AcAGeIfQDfEPwAoS/wDgAzxD6Ab4h8AlCX+AUCG+AfQDfEPAMoS/wAgQ/wD6Ib4BwBliX8AkCH+AXRD/AOAssQ/AMgQ/wC6If4BQFniHwBkiH8A3RD/AKAs8Q8AMsQ/gG6IfwBQlvgHABniH0A3xD8AKEv8A4AM8Q+gG+IfAJQl/gFAhvgH0A3xDwDKEv8AIEP8A+iG+AcAZYl/AJAh/gF0Q/wDgLLEPwDIEP8AuiH+AUBZ4h8AZIh/AN0Q/wCgLPEPADLEP4BuiH8AUJb4BwAZ4h9AN8Q/AChL/AOADPEPoBviHwCUJf4BQIb4B9AN8Q8AyhL/ACBD/APohvgHAGWJfwCQIf4BdEP8A4CyxD8AyBD/ALoh/gFAWeIfAGSIfwDdEP8AoCzxDwAyxD+Aboh/AFCW+AcAGeIfQDfEPwAoS/wDgAzxD6Ab4h8AlCX+AUCG+AfQDfEPAMoS/wAgQ/wD6Ib4BwBliX8AkCH+AXRD/AOAssQ/AMgQ/wC6If4BQFniHwBkiH8A3RD/AKAs8Q8AMsQ/gG6IfwBQlvgHABniH0A3xD8AKEv8A4AM8Q+gG+IfAJQl/gFAhvgH0A3xDwDKEv8AIEP8A+iG+AcAZYl/AJAh/gF0Q/wDgLLEPwDIEP8AuiH+AUBZ4h8AZIh/AN0Q/wCgLPEPADLEP4BuiH8AUJb4BwAZ4h9AN8Q/AChL/AOADPEPoBviHwCUJf4BQIb4B9AN8Q8AyhL/ACBD/APohvgHAGWJfwCQIf4BdEP8A4CyxD8AyBD/ALoh/gFAWeIfAGSIfwDdEP8AoCzxDwAyxD+Aboh/AFCW+AcAGeIfQDfEPwAoS/wDgAzxD6Ab4h8AlCX+AUCG+AfQDfEPAMoS/wAgQ/wD6Ib4BwBliX8AkCH+AXRD/AOAssQ/AMgQ/wC6If4BQFniHwBkiH8A3RD/AKAs8Q8AMsQ/gG6IfwBQlvgHABniH0A3xD8AKEv8A4AM8W/nO//CI2yCc1hO7lxSjvgHAGWJfwCQIf7tfDHC5J471psWrJzDzRP/tp74BwBliX8AkCH+7XzC1ezEv3LEv60n/gFAWeIfsGMdP3ooHFhYCAsHDoWjx49nl4kOHxwss3AwHM4s03bfLI4fPhj2798fDh4+PvHv3LJ1Rw8fCgcPHc7ex+4g/u18wtXsxL9yxL+tJ/4BQFniH7BjHT10oIptCwsHwqGj3ce/3P05x48fDgdjtDwo/u1m4t/OJ1zNTvwrR/zbeuIfAJQl/gE70vHjR8OhAzGgHcyGtHEYPDC4vxH42u6bXMfB6srCFBgPHjq6bpm2K//WPT4uM9rveFt1+wZXLbJziX87n3A1O/GvHPFv64l/AFCW+AfsSOktvwcOHV139V79vvFVdqP72+5bv/61KwqnXSE4Lf6NtzOKkvXHu/JvbxD/dr6uw9XhQweq/5Hh8NH4M7/+98dOIv6VI/5tPfEPAMoS/4AdKV69l97uu/6Ku7X74tf18NZ2X1p3Eq/SO3zoUDh4YPrbizeKf/ExMQAerT1O/NsbxL+dr8twNbzKN/7OSFcp7+yfd/GvHPFv64l/AFCW+AfsOOO3/I7eMtuMac3AN/w6H//q96X1R+N4d+BgOHQ4XV04e/yL98WrfuLXyYGD+f1ldxL/dj7hanbiXzni39YT/wCgLPEP2HFSmKuHtWiWq/va7qtvY9bl2uJfdf/xo8NP9h39nb9qOfFvTxD/dr5S4aq6CvjgWsxfiFf0HV7/N0Cb1v5HhPV/23N4ZfHk3wWtrhJuLLddtiP+tZ2P0nK/j7eL+Lf1xD8AKEv8A3acGOaaL+rqt6UXmKfyN/8m15eWm/3Kv/TvuJ3h+mr3iX97gvi385UIV/UrjQ8Pfv6H0W7yfxyYJv0eaS6b1lmPfWvrXf/7aDtsR/ybdj62gvi3t4l/AFCW+AfsKOMX4o0XyOMrSkZBbfwic85P+03bSS9UD46u+mm+kJwW/+J9Rwdf16/qqX9a8NqL4G5e6HPqxL+dr0j82yAijWP+gQPD30HxZ3oUCavfVZlPJI8//8P/AWKwzOh3y/jPGMTfG6Nl4++1dNVw9ScIRsFs2jbT+uex1fGv7XyM/0eZeF/1+33t92XrfaPnJv2PLPUrtJvP2044l5Qj/gFAWeIfAGSIfztfiXAVQ13blWrTriAeR6tD6W+GjqJUFcGG/67WPYpgcZnqf0QY3f+22uPjbZPryG/zVGx5/JtyPur3DQPoKBKmY227b8b4V992l+eScsQ/AChL/AOADPFv5ysRrpqhqmkcj2pXskX1aDgRouLyo6v84rpTuKqLf1/w5S//zfHj423r1pHZ5qnY6vg37XzE++pxLn49Eefa7psx/jUDblfnknLEPwAoS/wDgAzxb+crEa5mvvKv/jbWdIVaeitvbZnclX/parRhjBre/7pDv1kFqqbh1Wu7K/61nY/q/m2If/VzmGz3uaQc8Q8AyhL/ACBD/Nv5ioSrWkTK3p+Lf6Ng1YxNKUzFGDUMT0fHf/PvwMFRGBtsr/ogkJbouOvi3wbnYzvi3044l5Qj/gFAWeIfAGSIfztfkXBVu2qt/mm/KSzl4lG60qweDOu3pXW2fdpvM3rVA9Zui38bno9541/tvvE5ycS/nXIuKUf8A4CyxD8AyBD/dr4S4SqqX6EXxU+GPXR4GJKa8WgcC0cRaryOUYCqL3f40OQngtdjYLVMvAqwdn+KZ7sp/s1yPmYNfM37hl8Pn5fmp7fX41+1vR1wLilH/AOAssQ/AMgQ/3a+UvGvD7Yq/vWR+Lf1xD8AKEv8A4AM8W/nE65mJ/6VI/5tPfEPAMoS/wAgQ/zb+YSr2Yl/5Yh/W0/8A4CyxD8AyBD/dj7hanbiXzni39YT/wCgLPEPADLEv51PuJqd+FeO+Lf1xD8AKEv8A4AM8W/nE65mJ/6VI/5tPfEPAMoS/wAgQ/zb+YSr2Yl/5Yh/W0/8A4CyxD8AyBD/dr4YYZidc1hO7lxSjvgHAGWJfwCQIf4BdEP8A4CyxD8AyBD/ALoh/gFAWeIfAGSIfwDdEP8AoCzxDwAyxD+Aboh/AFCW+AcAGeIfQDfEPwAoS/wDgAzxD6Ab4h8AlCX+AUCG+AfQDfEPAMoS/wAgQ/wD6Ib4BwBliX8AkCH+AXRD/AOAssQ/AMgQ/wC6If4BQFniHwBkiH8A3RD/AKAs8Q8AMsQ/gG6IfwBQlvgHABniH0A3xD8AKEv8A4AM8Q+gG+IfAJQl/gFAhvgH0A3xDwDKEv8AIEP8A+iG+AcAZYl/AJAh/gF0Q/wDgLLEPwDIEP8AuiH+AUBZ4h8AZIh/AN0Q/wCgLPEPADLEP4BuiH8AUJb4BwAZ4h9AN8Q/AChL/AOADPEPoBviHwCUJf4BQIb4B9AN8Q8AyhL/ACBD/APohvgHAGWJfwCQIf4BdEP8A4CyxD8AyBD/ALoh/gFAWeIfAGSIfwDdEP8AoCzxDwAyxD+Aboh/AFCW+AcAGeIfQDfEPwAoS/wDgAzxD6Ab4h8AlCX+AUCG+AfQDfEPAMoS/wAgQ/wD6Ib4BwBliX8AkCH+AXRD/AOAssQ/AMgQ/wC6If4BQFniHwBkiH8A3RD/AKAs8Q8AMsQ/gG6IfwBQlvgHABniH0A3xD8AKEv8A4AM8Q+gG+IfAJQl/gFAhvgH0A3xDwDKEv8AIEP8A+iG+AcAZYl/AJAh/gF0Q/wDgLLEPwDIEP8AuiH+AUBZ4h8AZIh/AN0Q/wCgLPEPADLEP4BuiH8AUJb4BwAZ4h9AN8Q/AChL/AOADPEPoBviHwCUJf4BQIb4B9AN8Q8AyhL/ACBD/APohvgHAGWJfwCQIf4BdEP8A4CyxD8AyBD/ALoh/gFAWeIfAGSIfwDdEP8AoCzxDwAyxD+Aboh/AFCW+AcAGeIfQDfEPwAoS/wDgAzxD6Ab4h8AlCX+AUCG+AfQDfEPAMoS/wAgQ/wD6Ib4BwBliX8AkCH+AXRD/AOAssQ/AMgQ/wC6If4BQFniHwBkiH8A3RD/AKAs8Q8AMsQ/gG6IfwBQlvgHABniH0A3xD8AKEv8A4AM8Q+gG+IfAJQl/gFAhvgH0A3xDwDKEv8AIEP8A+iG+AcAZYl/AJAh/gF0Q/wDgLLEPwDIEP8AuiH+AUBZ4h8AZIh/AN0Q/wCgLPEPADLEP4BuiH8AUJb4BwAZ4h9AN8Q/AChL/AOADPEPoBviHwCUJf4BQIb4B9AN8Q8AyhL/ACBD/APohvgHAGWJfwCQIf4BdEP8A4CyxD8AyBD/ALoh/gFAWeIfAGSIfwDdEP8AoCzxDwAyxD+Aboh/AFCW+AcAGeIfQDfEPwAoS/wDgAzxD6Ab4h8AlCX+AUCG+AfQDfEPAMoS/wAgQ/wD6Ib4BwBliX8AkCH+AXRD/AOAssQ/AMgQ/wC6If4BQFniHwBkiH8A3RD/AKAs8Q8AMsQ/gG6IfwBQlvgHABniH0A3xD8AKEv8A4AM8Q+gG+IfAJQl/gFAhvgH0A3xDwDKEv8AIEP8A+iG+AcAZYl/AJAh/gF0Q/wDgLLEPwDIEP8AuiH+AUBZ4h8AZIh/AN0Q/wCgLPEPADLEP4BuiH8AUJb4BwAZ4h9AN8Q/AChL/AOADPEPoBviHwCUJf4BQIb4B9AN8Q8AyhL/ACBD/APohvgHAGWJfwCQIf4BdEP8A4CyxD8AyBD/ALoh/gFAWeIfAGSIfwDdEP8AoCzxDwAyxD+Aboh/AFCW+AcAGeIfQDfEPwAoS/wDgAzxD6Ab4h8AlCX+AUCG+AfQDfEPAMoS/wAgQ/wD6Ib4BwBliX8AkCH+AXRD/AOAssQ/AMgQ/wC6If4BQFniHwBkiH8A3RD/AKAs8Q8AMsQ/gG6IfwBQlvgHABniH0A3xD8AKEv8A4AM8Q+gG+IfAJQl/gFAhvgH0A3xDwDKEv8AIEP8A+iG+AcAZYl/AJAh/gF0Q/wDgLLEPwDIEP8AuiH+AUBZ4h8AZIh/AN0Q/wCgLPEPADLEP4BuiH8AUJb4BwAZ4h9AN8Q/AChL/AOADPEPoBviHwCUJf4BQIb4B9AN8Q8AyhL/ACBD/APohvgHAGWJfwCQIf4BdEP8A4CyxD8AyBD/ALoh/gFAWeIfAGSIfwDdEP8AoCzxDwAyxD+Aboh/AFCW+AcAGeIfQDfEPwAoS/wDgAzxD6Ab4h8AlCX+AUCG+AfQDfEPAMoS/wAgQ/wD6Ib4BwBliX8AkCH+AXRD/AOAssQ/AMgQ/wC6If4BQFniHwBkiH8A3RD/AKAs8Q8AMsQ/gG6IfwBQlvgHABniH0A3xD8AKEv8A4AM8Q+gG+IfAJQl/gFAhvgH0A3xDwDKEv8AIEP8A+iG+AcAZYl/AJAh/gF0Q/wDgLLEPwDIEP8AuiH+AUBZ4h8AZIh/AN0Q/wCgLPEPADLEP4BuiH8AUJb4BwAZ4h9AN8Q/AChL/AOADPEPoBviHwCUJf4BQIb4B9AN8Q8AyhL/ACBD/APohvgHAGWJfwCQIf4BdEP8A4CyxD8AyBD/ALoh/gFAWeIfAGSIfwDdEP8AoCzxDwAyxD+Aboh/AFCW+AcAGeIfQDfEPwAoS/wDgAzxD6Ab4h8AlCX+AUCG+AfQDfEPAMoS/wAgQ/wD6Ib4BwBliX8AkCH+AXRD/AOAssQ/AMgQ/wC6If4BQFniHwBkiH8A3RD/AKAs8Q8AMsQ/gG6IfwBQlvgHABniH0A3xD8AKEv8A4AM8Q+gG+IfAJQl/gFAhvgH0A3xDwDKEv8AIEP8A+iG+AcAZYl/AJAh/gF0Q/wDgLLEPwDIEP8AuiH+AUBZ4h8AZIh/AN0Q/wCgLPEPADLEP4BuiH8AUJb4BwAZ4h9AN8Q/AChL/AOADPEPoBviHwCUJf4BQIb4B9AN8Q8AyhL/ACBD/APohvgHAGWJfwCQIf4BdEP8A4CyxD8AyBD/ALoh/gFAWeIfAGSIfwDdEP8AoCzxDwAyxD+Aboh/AFCW+AcAGeIfQDfEPwAoS/wDgAzxD6Ab4h8AlCX+AUCG+AfQDfEPAMoS/wAgQ/wD6Ib4BwBliX8AkCH+AXRD/AOAssQ/AMgQ/wC6If4BQFniHwBkiH8A3RD/AKAs8Q8AMsQ/gG6IfwBQlvgHABniH0A3xD8AKEv8A4AM8Q+gG+IfAJQl/gFAhvgH0A3xDwDKEv8AIEP8A+iG+AcAZYl/AJAh/gF0Q/wDgLLEPwDIEP8AuiH+AUBZ4h8AZIh/AN0Q/wCgLPEPADLEP4BuiH8AUJb4BwAZ4h9AN8Q/AChL/AOADPEPoBviHwCUJf4BQIb4B9AN8Q8AyhL/ACBD/APohvgHAGWJfwCQIf4BdEP8A4CyxD8AyBD/ALoh/gFAWeIfAGSIfwDdEP8AoCzxDwAyxD+Aboh/AFCW+AcAGeIfQDfEPwAoS/wDgAzxD6Ab4h8AlCX+AUCG+AfQDfEPAMoS/wAgQ/wD6Ib4BwBliX8AkCH+AXRD/AOAssQ/AMgQ/wC6If4BQFniHwBkiH8A3RD/AKAs8Q8AMsQ/gG6IfwBQlvgHABniH0A3xD8AKEv8A4AM8Q+gG+IfAJQl/gFAhvgH0A3xDwDKEv8AIEP8A+iG+AcAZYl/AJAh/gF0Q/wDgLLEPwDIEP8AuiH+AUBZ4h8AZIh/AN0Q/wCgLPEPADLEP4BuiH8AUJb4BwAZ4h9AN8Q/AChL/AOADPEPoBviHwCUJf4BQIb4B9AN8Q8AyhL/ACBD/APohvgHAGWJfwCQIf4BdEP8A4CyxD8AyBD/ALoh/gFAWeIfAGSIfwDdEP8AoCzxDwAyxD+Aboh/AFCW+AcAGeIfQDfEPwAoS/wDgAzxD6Ab4h8AlCX+AUCG+AfQDfEPAMoS/wAgQ/wD6Ib4BwBliX8AkCH+AXRD/AOAssQ/AMgQ/wC6If4BQFniHwBkiH8A3RD/AKAs8Q8AMsQ/gG6IfwBQlvgHABniH0A3xD8AKEv8A4AM8Q+gG+IfAJQl/gFAhvgH0A3xDwDKEv8AIEP8A+iG+AcAZYl/AJAh/gF0Q/wDgLLEPwDIEP8AuiH+AUBZ4h8AZIh/AN0Q/wCgLPEPADLEP4BuiH8AUJb4BwAZ4h9AN8Q/AChL/AOADPEPoBviHwCUJf4BQIb4B9AN8Q8AyhL/ACBD/APohvgHAGWJfwCQIf4BdEP8A4CyxD8AyBD/ALoh/gFAWeIfAGSIfwDdEP8AoCzxDwAyxD+Aboh/AFCW+AcAGeIfQDfEPwAoS/wDgAzxD6Ab4h8AlCX+AUCG+AfQDfEPAMoS/wAgQ/wD6Ib4BwBliX8AkCH+AXRD/AOAssQ/AMgQ/wC6If4BQFniHwBkiH8A3RD/AKAs8Q8AMsQ/gG6IfwBQlvgHABniH0A3xD8AKEv8A4AM8Q+gG+IfAJQl/gFAhvgH0A3xDwDKEv8AIEP8A+iG+AcAZYl/AJAh/gF0Q/wDgLLEPwDIEP8AuiH+AUBZ4h8AZIh/AN0Q/wCgLPEPADLEP4BuiH8AUJb4BwAZ4h9AN8Q/AChL/AOADPEPoBviHwCUJf4BQIb4B9AN8Q8AyhL/ACBD/APoRjP+3XPPPeHEiRPiHwDMSfwDgAzxD6AbMf7F37Pxd/Gdd945jn+f/vSnxT8AmIP4BwAZm4l/x44dCzfccIP4B1CA+AcAZYl/AJDhyj+Aboh/AFCW+AcAGeIfQDf8zT8AKEv8A4AM8Q+gG83459N+AeDUiH8AkNEW/+KL0hgAY/y76aabsvHvPe95j/gHMIcY/+Lv2o9+9KPhE5/4xDj+PfDAA+HBBx8MX/jCF8KXv/zlKv79wz/8Q/j6178evvGNb4h/ADCF+AcAGeIfQDdS/PvYxz4WPvnJT4b77rsv3H///evi31e+8hXxDwBmIP4BQMa0+Bfl4l/8xN/rr78+XHvtteHqq68OV1xxhfgHMIcY/+Lv3Ntvvz3cdddd4VOf+tT4wz4+97nPhS9+8YtT4983v/lN8Q8AGsQ/AMiYJf7V/+5fjH833HBDuO6668L73//+cOWVV4p/AHOI8S/+3r3jjjvC3XffPf6wj3jV30Z/70/8A4D1xD8AmKIZAFP8a/vQj7/+678OR48eDe9973vFP4A5xPjX/LCP3N/7a4t/Kfyl+JfbDgD0hfgHAFNMu/ovxb/cW3/rf/dP/APYvBj/0t/7y73lN4a/aX/vL8a/+lV/4h8AiH8AMFVb/Gv+3b/01t/4d//iW3/j1X8x/sFO9KvPORCe/vSnV5EFdqJ41d8999wzfstvDH/xqr/4lt8Y/tJVfyn+xfDnwz4AIE/8A4ApUvxLATAX/5pv/Y1/9y++9Tde/Rc/+CO+/Td+8u+73vWu8Jd/+ZfhHe94R3j7298ejhw5Ei6//PKwvLwcLr300nD48OHwtre9DbbF773k7LBv374qXMN2i78z4+/O+Ds0/j6Nv1fj79f4e/ejH/1ouPPOO6u/9Rev+ouf8tv8oI8Y/uJVf/7eHwDMRvwDgCly8W/Wq/9SAIwf/hHfAhwjYPwE4He/+91VCPyrv/qrKga+853vrGJgCoKwHf7fl51fxb90VStspfS7M0q3pd+t8W/7xeAXP9k3Rr9PfOITE+Gv/rf+6lf95d7yWw9/4h8ArBH/AGCKZvxLL2KnXf0XA2D64I8UAK+99trwgQ98YBwB3/e+91UhMH4acLwiMMXAFARhO/x/f/ynVfyLf1cNtlsMffGTfKP49t4Y/O66667qbb7xAz6a4a/+Cb/pb/3NctWf+AcAQ+IfAExRj38pANbj37Sr/+oBMH4ASPwbgPEqwBgB498CjG8HrofAFAPjlYGwHV501qur+BejC2y3+EEeMfbFK/xS8Lvvvvuqv+8XP9k3fsBHPfylt/vm/taf+AcAGxP/AGCKtvjXdvVfPQDGvwEYA2C8CjBGwHglYAyBMQJG8YrAFANTEISt9uJzXlfFvxhdYLvF0BfFK/xS8ItX+sUP9ojRL/2Nv7bw13bVX/Mtv+IfAH0n/gHAFLn4N28ATFcBNiNguhqwHgNhq5153gVV/IvhBbZbjH0p+MWr/OrRL17tV/9k33r4S3/nb1r4E/8AIE/8A4AWuQAY49+0t//mAmD8EJCNIiBsp5f+yRur+BejC2y1GPiSdFuMfUkz+sWr/ep/468Z/uLbfWP4a7vqz1t+AWCN+AcALXLxr+3qv2kBsH4VYDMCJjEGwnZ42aELq/gXowt0Ica+FPzi23vr0S9d7Tct/LnqDwA2R/wDgBbN+DdPAGxeBVi/EjCFwBQDYTu8/E//vIp/MbpAF2Lsawa/eKVf82q/+t/4y4W/ja76E/8AQPwDgFa5+Bc13/5bD4C5twBPi4ApBNZjIGy1P37VW6r4F6MLdCHGviQX/ZrhL0W/XPhL8S+FP/EPACaJfwCwgWnxb1oA3OgqwBQB628JrsdA2GqvePVbq/iXogtstXrkS+pv7a1f6dd2tV8y7e2+wh8ArCf+AcAGcvEvmhYA61cBpgBYj4DNENgMgrDVXvmai6r4l6ILbLd0dV8z+DWj36mEP/EPAIbEPwDYQC78JRsFwGkRMEkxcFoQhK1w1msvruJfii6w3VLoS7EvBb9m9Nvorb718Cf+AUCe+AcAM8iFvyjFv1wETPGvHgHbQiBsl7Nfd0kV/1J0ge2WQl899jWDX4p+0672E/4AYDbiHwDMKBf/orYA2LwKMBcDc1EQttLS6w9X8a8eYGA71YNfM/rVg98sV/sJfwDQTvwDgBnlwl/dtAg4SwiE7XTOBZdW8a8eXKALKfS1Bb/NXO2X5F74AEBfiX8AsAm56FfXDIBJPQQ2YyBst3PesFzFv3poga7VY18z+DWjn/AHALMT/wBgDrnwV5cLgHXNGAjb6dw3DuNfM7ZAV5qhL5k1+EW5FzsAgPgHAHPLRb+cXPyDLp37xsuq+JeLLdCFZuSry4W+ptwLHQBgSPwDgAJy0W8juSgD2+G8N11exb9caIEu5cLeNLkXNwDAeuIfAGyBXOyDnSLFv1xQgZ0q92IGANiY+AcAHclFGdgO54t/7DC5FyoAQBniHwBAz5x/4ZEq/uX+n0MAAPYW8Q8AoGfEPwCA/hD/AAB6RvwDAOgP8Q8AoGfEPwCA/hD/AAB6RvwDAOgP8Q8AoGfEPwCA/hD/AAB6RvwDAOgP8Q8AoGfEPwCA/hD/AAB6RvwDAOgP8Q8AoGfEPwCA/hD/AAB6RvwDAOgP8Q8AoGfEPwCA/hD/AAB6RvwDAOgP8Q8AoGfEPwCA/hD/AAB6RvwDAOgP8Q8AoGfEPwCA/hD/AAB6RvwDAOgP8Q8AoGfEPwCA/hD/AAB6RvwDAOgP8Q8AoGfEPwCA/hD/AAB6RvwDAOgP8Q8AoGfEPwCA/hD/AAB6RvwDAOgP8Q8AoGfEPwCA/hD/AAB6RvwDAOgP8Q8AoGfEPwCA/hD/AAB6RvwDAOgP8Q8AoGfEPwCA/hD/AAB6RvwDAOgP8Q8AoGfEPwCA/hD/AAB6RvwDAOgP8Q8AoGfEPwCA/hD/AAB6RvwDAOgP8Q8AoGfEPwCA/hD/AAB6RvwDAOgP8Q8AoGfEPwCA/hD/AAB6RvwDAOgP8Q8AoGfEPwCA/hD/AAB6RvwDAOgP8Q8AoGfEPwCA/hD/AAB6RvwDAOgP8Q8AoGfEPwCA/hD/AAB6RvwDAOgP8Q8AoGfEPwCA/hD/AAB6RvwDAOgP8Q8AoGfEPwCA/hD/AAB6RvwDAOgP8Q8AoGfEPwCA/hD/AAB6RvwDAOgP8Q8AoGfEPwCA/hD/AAB6RvwDAOgP8Q8AoGfEPwCA/hD/AAB6RvwDAOgP8Q8AoGfEPwCA/hD/AAB6RvwDAOgP8Q8AoGfEPwCA/hD/AAB6RvwDAOgP8Q8AoGfEPwCA/hD/AAB6RvwDAOgP8Q8AoGfEPwCA/hD/AAB6RvwDAOgP8Q8AoGfEPwCA/hD/AAB6RvwDAOgP8Q8AoGfEPwCA/hD/AAB6RvwDAOgP8Q8AoGfEPwCA/hD/AAB6RvwDAOgP8Q8AoGfEPwCA/hD/AAB6RvwDAOgP8Q8AoGfEPwCA/hD/AAB6RvwDAOgP8Q8AoGfEPwCA/hD/AAB6RvwDAOgP8Q8AoGfEPwCA/hD/AAB6RvwDAOgP8Q8AoGfEPwCA/hD/AAB6RvwDAOgP8Q8AoGfEPwCA/hD/AAB6RvwDAOgP8Q8AoGfEPwCA/hD/AAB6RvwDAOgP8Q8AoGfEPwCA/hD/AAB6RvwDAOgP8Q8AoGfEPwCA/hD/AAB6RvwDAOgP8Q8AoGfEPwCA/hD/AAB6RvwDAOgP8Q8AoGfEPwCA/hD/AAB6RvwDAOgP8Q8AoGfEPwCA/hD/AAB6RvwDAOgP8Q8AoGfEPwCA/hD/AAB6RvwDAOgP8Q8AoGfEPwCA/hD/AAB6RvwDAOgP8Q8AoGfEPwCAvngs/P/5AlKw0i/ivgAAAABJRU5ErkJggg==" vertex="1" parent="1">
          <mxGeometry x="-4930" y="-1690" width="3515.81" height="2430" as="geometry" />
        </mxCell>
        <mxCell id="e-_xzjSR4gkOz-BCcowv-1" value="" style="html=1;shadow=0;dashed=0;align=center;verticalAlign=middle;shape=mxgraph.arrows2.arrow;dy=0.79;dx=388.48;notch=0;rotation=-60;fillColor=#FF0000;strokeColor=#b85450;" vertex="1" parent="1">
          <mxGeometry x="-4944.15" y="24.25" width="1828.95" height="480" as="geometry" />
        </mxCell>
        <mxCell id="e-_xzjSR4gkOz-BCcowv-2" value="" style="rounded=0;whiteSpace=wrap;html=1;" vertex="1" parent="1">
          <mxGeometry x="-4980" y="1090" width="1220" height="435" as="geometry" />
        </mxCell>
        <mxCell id="e-_xzjSR4gkOz-BCcowv-3" value="&lt;h1 style=&quot;font-size: 60px;&quot;&gt;Ouverture de la vue Carte permettant de creer une carte avec ces données. Cette carte est censée être ajoutée à la liste dont le bouton qui l&#39;a appelé fait partie&lt;/h1&gt;" style="text;html=1;strokeColor=none;fillColor=none;spacing=5;spacingTop=-20;whiteSpace=wrap;overflow=hidden;rounded=0;align=center;" vertex="1" parent="1">
          <mxGeometry x="-4960" y="1130" width="1180" height="380" as="geometry" />
        </mxCell>
        <mxCell id="e-_xzjSR4gkOz-BCcowv-4" value="" style="rounded=0;whiteSpace=wrap;html=1;" vertex="1" parent="1">
          <mxGeometry x="-3420" y="870" width="580" height="172" as="geometry" />
        </mxCell>
        <mxCell id="e-_xzjSR4gkOz-BCcowv-6" value="&lt;h1&gt;&lt;font style=&quot;font-size: 60px;&quot;&gt;Vue réparer après la date de rendu&lt;/font&gt;&lt;/h1&gt;" style="text;html=1;strokeColor=none;fillColor=none;spacing=5;spacingTop=-20;whiteSpace=wrap;overflow=hidden;rounded=0;" vertex="1" parent="1">
          <mxGeometry x="-3395" y="880" width="545" height="180" as="geometry" />
        </mxCell>
        <mxCell id="e-_xzjSR4gkOz-BCcowv-8" value="" style="html=1;shadow=0;dashed=0;align=center;verticalAlign=middle;shape=mxgraph.arrows2.arrow;dy=0.6;dx=40;direction=north;notch=0;" vertex="1" parent="1">
          <mxGeometry x="-3160" y="360" width="90" height="490" as="geometry" />
        </mxCell>
      </root>
    </mxGraphModel>
  </diagram>
</mxfile>
